<?xml version="1.0" encoding="utf-8"?>
<!-- Generator: Adobe Illustrator 19.0.0, SVG Export Plug-In . SVG Version: 6.00 Build 0)  -->
<svg version="1.1" id="layer" xmlns="http://www.w3.org/2000/svg" xmlns:xlink="http://www.w3.org/1999/xlink" x="0px" y="0px"
	 viewBox="-153 -46 652 652" style="enable-background:new -153 -46 652 652;" xml:space="preserve">
<style type="text/css">
	.st0{fill:#CF3339;}
	.st1{fill:#00303C;}
	.st2{fill:#002D3D;}
	.st3{fill:#FFFFFF;}
</style>
<g>
	<path class="st0" d="M228.1,272.7h-7.5v-5h8.2c0.7,0,1.8,0.1,2.5,0.8c0.5,0.4,0.7,1.1,0.7,1.8C232.2,272.7,229.6,272.7,228.1,272.7
		z M235.7,278c1.2-0.3,3.1-0.7,4.6-2.5c1.1-1.4,1.8-3.3,1.8-5.2c0-2.7-1.3-5.5-3.3-6.9c-2.3-1.7-5.3-1.8-7.8-1.8h-20.4v27.4h10v-10
		h5.3l5.7,10h11L235.7,278L235.7,278z M194.3,283.1c-1.2,0.6-2.6,0.7-4,0.7c-6.1,0-8.4-4.4-8.4-8.6c0-3.8,2.1-8.6,8.4-8.6
		c6.7,0.1,8.1,5.6,8.1,8.6C198.4,278,197.4,281.5,194.3,283.1z M200.1,262.1c-3.2-1.3-6.9-1.6-10.3-1.6c-4.9,0.1-11.5,1-15.4,6.4
		c-1.8,2.5-2.6,5.5-2.6,8.6c0,3.1,0.8,5.8,2.7,8.3c2,2.7,6,6.1,15.6,6.1c5.1,0,9.5-0.7,13.3-3.7c1.4-1,2.5-2.2,3.3-3.7
		c1.3-2.2,2-4.9,2-7.5C208.7,270.4,206.4,264.7,200.1,262.1z M144.1,288.9h10v-9.8h15.9v-6.1h-15.9v-5.2h17.3v-6.2h-27.3
		C144.1,261.5,144.1,288.9,144.1,288.9z"/>
	<path class="st1" d="M330.5,278.5h17.8v-6.2h-17.7v-4.5h19.2v-6.1h-29.1V289h29.5v-6.2h-19.6L330.5,278.5L330.5,278.5z
		 M297.4,279.5l-7-17.8h-13.1V289h9.7v-17.4l6.4,17.4h7.7l6.5-17.5V289h9.8v-27.3h-13L297.4,279.5L297.4,279.5z M448.2,278.5
		l3.2-9.2l3.3,9.2H448.2z M457,261.7h-11.2L433.9,289h10.9l1.5-4.5h10.5l1.5,4.5H469L457,261.7L457,261.7z M370.6,272.9h-7.4v-5h8.2
		c0.7,0,1.8,0.1,2.5,0.7c0.5,0.5,0.7,1.2,0.7,1.8C374.6,272.8,372.1,272.9,370.6,272.9L370.6,272.9z M382.8,275.5
		c1.1-1.3,1.8-3.2,1.8-5.1c0-2.8-1.3-5.4-3.3-6.9c-2.3-1.7-5.3-1.8-7.7-1.8h-20.3V289h9.9v-9.9h5.3l5.7,9.9h10.9l-6.9-10.9
		C379.3,277.8,381.2,277.4,382.8,275.5z M255.9,278.5l3.2-9.2l3.3,9.2H255.9L255.9,278.5z M253.4,261.7L241.5,289h10.9l1.5-4.5h10.5
		l1.5,4.5h10.8l-12-27.3L253.4,261.7L253.4,261.7z M387.7,289h9.9v-27.3h-9.9V289L387.7,289z M425.9,279.2c-0.3,0.8-0.7,1.7-2,2.7
		c-1.4,1.2-3.4,1.8-5.6,1.8c-5.7,0-8.1-4.3-8.1-8.5c0-5.7,4-8.5,8.5-8.5c1.3,0,3.2,0.3,4.7,1.3c1.5,1,1.9,2,2.3,2.7l9.2-1.6
		c-0.9-2.6-3-8.6-16.4-8.6c-15.7,0-18.5,9.6-18.5,14.9c0,7.5,4.7,11.8,10.4,13.5c2.5,0.7,5.1,1,7.9,1c6,0,12.4-1.4,15.6-6.4
		c0.9-1.4,1.3-2.4,1.6-3.4L425.9,279.2L425.9,279.2z M-22.2,267.8h9.8V289h10v-21.2h9.7v-6.2h-29.5V267.8L-22.2,267.8z M19.9,278.5
		h17.8v-6.2H19.9v-4.5h19.2v-6.1H10V289h29.5v-6.2H19.9V278.5z M130.9,271.7h-12.1v-10h-10V289h10v-10.4h12.1V289h10v-27.3h-10
		C130.9,261.7,130.9,271.7,130.9,271.7z M53.9,278.5l3.2-9.3l3.2,9.3C60.3,278.5,53.9,278.5,53.9,278.5z M51.3,261.7L39.5,289h10.8
		l1.5-4.4h10.6l1.5,4.4h10.8l-12-27.3L51.3,261.7L51.3,261.7z M95.8,281.9c-1.4,1.2-3.4,1.8-5.6,1.8c-5.7,0-8.1-4.3-8.1-8.5
		c0-5.7,4-8.5,8.4-8.5c1.4,0,3.3,0.3,4.8,1.3c1.5,1,1.9,2,2.3,2.7l9.2-1.6c-0.9-2.6-3-8.6-16.4-8.6c-15.7,0-18.5,9.6-18.5,14.9
		c0,7.5,4.7,11.8,10.3,13.5c2.6,0.8,5.2,1,8,1c6,0,12.4-1.4,15.6-6.4c0.9-1.3,1.3-2.4,1.6-3.4l-9.5-1
		C97.5,280,97.1,280.9,95.8,281.9L95.8,281.9z"/>
</g>
<g>
	<path class="st2" d="M-84.7,320.8c25.6,0,46.3-20.7,46.3-46.3s-20.7-46.3-46.3-46.3s-46.3,20.7-46.3,46.3S-110.3,320.8-84.7,320.8"
		/>
	<path class="st3" d="M-98.6,268.1h-6.8v15.9h-7v-15.9h-6.8v-4.6h20.6V268.1z M-73.6,263.5v4.7h-13.1v3.9h12v4.6h-12v7.4h-7.5v-20.6
		H-73.6z M-58.6,263.5h-8l-8.5,20.6h7.7l1.1-3.4h7.5l1.1,3.4h7.7L-58.6,263.5z M-64.9,276.1l2.3-6.9l2.3,6.9H-64.9z"/>
</g>
</svg>
