<?xml version="1.0" standalone="no"?>
<!DOCTYPE svg PUBLIC "-//W3C//DTD SVG 20010904//EN"
 "http://www.w3.org/TR/2001/REC-SVG-20010904/DTD/svg10.dtd">
<svg version="1.0" xmlns="http://www.w3.org/2000/svg"
 width="1216.000000pt" height="1216.000000pt" viewBox="0 0 1216.000000 1216.000000"
 preserveAspectRatio="xMidYMid meet">
<metadata>
Created by potrace 1.14, written by Peter Selinger 2001-2017
</metadata>
<g transform="translate(0.000000,1216.000000) scale(0.100000,-0.100000)"
fill="#000000" stroke="none">
<path d="M10 7082 l0 -3628 994 0 c547 1 998 4 1002 9 4 4 8 229 8 500 l1 492
-502 0 -501 -1 0 2627 0 2627 4071 -2 4072 -1 0 -500 0 -499 493 -1 c272 0
497 2 501 5 4 3 7 454 7 1003 l0 997 -5073 0 -5073 0 0 -3628z"/>
<path d="M2019 8706 c-1 -1 -3 -954 -4 -2119 -1 -1480 2 -2120 9 -2125 6 -4
232 -7 501 -7 l490 -1 0 -489 c0 -270 3 -495 7 -501 5 -7 1086 -10 3570 -10
l3563 1 0 2125 0 2125 -492 0 c-270 0 -495 4 -500 8 -4 5 -9 228 -9 495 -1
268 -2 489 -3 492 -1 4 -7121 9 -7132 6z m7136 -2624 c0 -1434 -2 -1623 -15
-1626 -8 -2 -1390 -3 -3070 -2 l-3055 1 -1 1620 c0 891 1 1622 2 1625 1 3
1383 5 3071 5 l3068 0 0 -1623z"/>
<path d="M10159 8706 c-1 -1 -2 -223 -3 -494 0 -320 3 -496 9 -500 6 -4 228
-7 495 -8 267 -1 488 -2 491 -3 3 0 6 -1182 6 -2625 l0 -2624 -4071 2 -4071 1
0 500 0 500 -500 0 -501 0 0 -1003 0 -1002 5073 0 5073 0 0 3628 0 3628 -1000
0 c-550 0 -1000 0 -1001 0z"/>
</g>
</svg>
