<?xml version="1.0" encoding="utf-8"?>
<!-- Generator: Adobe Illustrator 26.0.2, SVG Export Plug-In . SVG Version: 6.00 Build 0)  -->
<svg version="1.1" id="svg2480" xmlns:svg="http://www.w3.org/2000/svg"
	 xmlns="http://www.w3.org/2000/svg" xmlns:xlink="http://www.w3.org/1999/xlink" x="0px" y="0px" viewBox="0 0 278.2 101"
	 style="enable-background:new 0 0 278.2 101;" xml:space="preserve">
<style type="text/css">
	.st0{fill:#FFFFFF;}
	.st1{fill:none;}
	.st2{clip-path:url(#SVGID_00000065061318758532212310000015451874872610717316_);}
	.st3{fill:#FFFFFF;}
</style>
<g id="layer1">
	<g id="g2503" transform="matrix(10.66176,0,0,10.66176,-1743.2763,-1065.0493)">
		<path id="path45" class="st1" d="M163.5,109.4h26v-9.5h-26V109.4z"/>
		<g id="g47" transform="matrix(1.25,0,0,-1.25,-444.76009,1067.2181)">
			<g>
				<defs>
					<rect id="SVGID_1_" x="358.3" y="719.7" width="277.6" height="100.8"/>
				</defs>
				<clipPath id="SVGID_00000130621290613818160350000009911106544394545296_">
					<use xlink:href="#SVGID_1_"  style="overflow:visible;"/>
				</clipPath>
				<g id="g49" style="clip-path:url(#SVGID_00000130621290613818160350000009911106544394545296_);">
					<g id="g55" transform="translate(500.5049,760.7627)">
						<path id="path57" class="st0" d="M-9.6,9v0.5h1.8V7.6C-8.4,7.4-9,7.3-9.6,7.3c-0.7,0-1.3,0.2-1.7,0.6C-11.8,8.2-12,8.7-12,9.3
							c0,0.6,0.2,1.1,0.6,1.5c0.4,0.4,0.9,0.6,1.7,0.6c0.5,0,1-0.1,1.3-0.3c0.3-0.2,0.5-0.4,0.6-0.8h-0.6c-0.1,0.2-0.2,0.4-0.4,0.5
							c-0.2,0.1-0.5,0.2-0.9,0.2c-0.5,0-0.9-0.1-1.2-0.4c-0.3-0.3-0.5-0.7-0.5-1.1c0-0.5,0.2-0.8,0.5-1.1c0.3-0.3,0.7-0.5,1.3-0.5
							c0.5,0,0.9,0.1,1.3,0.2V9H-9.6"/>
					</g>
					<g id="g59" transform="translate(509.6297,755.2787)">
						<path id="path61" class="st0" d="M-15.9,12.8v3.9h2.8v-0.5h-2.2V15h2.1v-0.5h-2.1v-1.7H-15.9z"/>
					</g>
					<g id="g63" transform="translate(520.50591,767.85941)">
						<path id="path65" class="st0" d="M-23.4,4.1h3.9V3.7h-1.6V0.3h-0.6v3.4h-1.6V4.1z"/>
					</g>
					<path id="path67" class="st3" d="M501.7,772h3.9v-3.9h-3.9V772z"/>
				</g>
			</g>
		</g>
	</g>
</g>
</svg>
