<svg id="Layer_1" data-name="Layer 1" xmlns="http://www.w3.org/2000/svg" viewBox="0 0 64 64"><defs><style>.cls-1{fill:none;stroke:#ffffff;stroke-width:1.5;}.cls-1,.cls-2{fill-rule:evenodd;}.cls-2{fill:#fff;}</style></defs><path class="cls-1" d="M0,64H64V0H0Z"/><path class="cls-2" d="M56.84,14.68H54.59V6.4h2.12v.93A2.12,2.12,0,0,1,58.5,6.22,2.19,2.19,0,0,1,61,8.69v6H58.63V8.44c0-.74,0-1.36-.53-1.48a1,1,0,0,0-.79.18,1.57,1.57,0,0,0-.47,1.3ZM17.7,10.54a10.93,10.93,0,0,1-.27,3.4.9.9,0,0,1-.86.5.79.79,0,0,1-.79-.5,9,9,0,0,1-.33-3.4,9.22,9.22,0,0,1,.33-3.4.8.8,0,0,1,.79-.49.9.9,0,0,1,.86.49,9.52,9.52,0,0,1,.27,3.4M18.56,7a3.11,3.11,0,0,0-2-.74,3.24,3.24,0,0,0-2,.74,4.61,4.61,0,0,0-1.53,3.58,4.53,4.53,0,0,0,1.53,3.59,3.24,3.24,0,0,0,2,.74,3.11,3.11,0,0,0,2-.74,4.34,4.34,0,0,0,1.52-3.59A4.41,4.41,0,0,0,18.56,7M41.67,17.84v2.22h-.46c-.26-.93-.66-1.73-1.72-1.79a1.16,1.16,0,0,0-1.33.86c-.06.56.14,1.05,1.33,1.67C41,21.61,42.2,22,42.2,23.65a2.82,2.82,0,0,1-3,2.65H36.51V23.21H37c.33,1.61.86,2.6,2.12,2.66a1.23,1.23,0,0,0,1.39-1.24c0-.8-.53-1.29-1.79-2s-2.25-1.3-2.25-2.41c0-1.49,1.13-2.41,2.92-2.41Zm2.92-3.16v-6a2.18,2.18,0,0,0-2.45-2.47,2.25,2.25,0,0,0-1.86,1.17,1.89,1.89,0,0,0-2.12-1.17,2.1,2.1,0,0,0-1.78,1.11V6.4H34.32v8.28h2.25V8.44A1.4,1.4,0,0,1,37,7.14.89.89,0,0,1,37.77,7c.53.12.53.74.53,1.48v6.24h2.25V8.38A1.54,1.54,0,0,1,41,7.14.9.9,0,0,1,41.74,7c.53.12.6.74.6,1.48v6.24Zm-23,0h2.32v-10H21.6Zm7.82-7.6c.46.62.46,2.1.46,3.28s.07,2.84-.46,3.52a.85.85,0,0,1-.73.37c-.46,0-.73-.49-.86-1.3s-.06-1.67-.06-2.65c0-1.67.13-3.53,1-3.53a.85.85,0,0,1,.66.31Zm2.72,7.6v-10H29.82V7a1.38,1.38,0,0,0-1.33-.74c-1.65,0-3,1.61-3,4.08-.07,1.67.53,4.45,2.85,4.45A1.74,1.74,0,0,0,30,13.88v.8Zm18-4.94-.73.43a1.82,1.82,0,0,0-.92,1.61,6.58,6.58,0,0,0,0,1.67c.06.68.53.8.92.68s.73-1,.73-1.86Zm1.33-3.09a1.87,1.87,0,0,1,1,1.92v6.11H50.28v-.92a2,2,0,0,1-2,1.11,2.07,2.07,0,0,1-2.19-2.29c0-1.79,1.26-2.16,2.65-2.72s1.39-.55,1.39-1V7.45c0-.55-.33-.8-1-.8-.27.06-.73.18-.73.49s.4.37.46.93c.07.87-.66,1.17-1.32,1.11a1,1,0,0,1-1.06-.92c-.07-1.12,1.26-2,3.11-2A3.67,3.67,0,0,1,51.48,6.65ZM17.37,21.3l-.73.43a1.85,1.85,0,0,0-.93,1.61,6.54,6.54,0,0,0,0,1.66c0,.75.46.87.86.68s.8-.92.8-1.85Zm1.32-3.09a1.88,1.88,0,0,1,.93,1.91V26.3H17.5v-.92a2,2,0,0,1-2,1,2,2,0,0,1-2.18-2.22c0-1.79,1.26-2.16,2.58-2.72s1.46-.62,1.46-1.05V19.07c0-.62-.33-.86-1-.8-.26,0-.72.12-.72.43s.39.43.46,1c.07.8-.66,1.11-1.33,1.11a1.11,1.11,0,0,1-1.06-1c-.06-1,1.26-2,3.12-2a3.66,3.66,0,0,1,1.85.37Zm16,2.1c0-1.73-1-2.6-2.45-2.47a2.31,2.31,0,0,0-1.66.8V16.23H28.36v5.69c0,2.1-1.59,4.07-3.18,4-1.12,0-1.39-.8-1.52-1.67a17.55,17.55,0,0,1-.07-4.2c.13-1,.4-1.79,1.19-1.79.6,0,.67.37.4.62s-.66.61-.46,1.29,1.45.87,2.05.31a1.5,1.5,0,0,0,.07-1.79,2.2,2.2,0,0,0-2.06-.86c-1.26,0-3.64,1.05-3.64,4.38,0,3.59,2.45,4.21,3.84,4.21a3.94,3.94,0,0,0,3.38-2.35V26.3h2.25V20.06a1.57,1.57,0,0,1,.47-1.3,1,1,0,0,1,.79-.18c.53.12.53.74.53,1.48V26.3h2.32v-6ZM11.54,4.49V8h-.47c-.39-1.73-1.25-3-2.45-3.09A1.72,1.72,0,0,0,7,5.91a10.22,10.22,0,0,0-.6,4.14A20.09,20.09,0,0,0,6.64,14,1.37,1.37,0,0,0,8,15.12a1.2,1.2,0,0,0,1-.37,2.69,2.69,0,0,0,.4-1.61V11.47a1.21,1.21,0,0,0-.53-1.17A4.66,4.66,0,0,0,8,10.11V9.68h3.71v8.84h-.46a6.7,6.7,0,0,0-.67-1.74,2.2,2.2,0,0,0-1.92-1.17,1.57,1.57,0,0,0-1.85,1.48c0,1.24.79,1.55,2.25,2.29s3.18,1.36,3.18,3.52-1.92,3.4-4.11,3.4H4.58V22h.47c.59,3.21,2.05,3.77,3,3.77A1.67,1.67,0,0,0,10,24c-.07-1.36-1.06-1.86-2.45-2.54-2-1.05-2.92-1.54-2.92-3.27A3.24,3.24,0,0,1,7.3,15.43C4.38,15.12,3.52,12.65,3.59,10s1.66-5.5,4.9-5.5Z"/></svg>