<svg id="svg8" xmlns="http://www.w3.org/2000/svg" xmlns:xlink="http://www.w3.org/1999/xlink" viewBox="0 0 104.92 70.2"><defs><style>.cls-1{fill:none;}.cls-2{fill:none;stroke:#ffffff;stroke-width:1.5;}.cls-3{clip-path:url(#clip-path);}.cls-4{fill:#fff;}</style><clipPath id="clip-path" transform="translate(0 0)"><rect class="cls-1" y="0.15" width="104.85" height="70.05"/></clipPath></defs><g id="layer1"><g id="g56"><rect id="rect12" class="cls-2" width="104.92" height="70.2"/><g id="g32"><g class="cls-3"><path id="path20" class="cls-4" d="M45.52,63.6a1.31,1.31,0,1,0-1.65-.83,1.32,1.32,0,0,0,1.65.83" transform="translate(0 0)"/></g><g class="cls-3"><path id="path22" class="cls-4" d="M69.37,63.6a1.31,1.31,0,1,0-1.65-.83,1.32,1.32,0,0,0,1.65.83" transform="translate(0 0)"/></g><g class="cls-3"><path id="path24" class="cls-4" d="M98.1,63.6a1.31,1.31,0,1,0-1.65-.83,1.29,1.29,0,0,0,1.65.83" transform="translate(0 0)"/></g><g class="cls-3"><path id="path26" class="cls-4" d="M27.6,42c0-2.85-1.28-3.08-3.3-3.08v-.75h6.6V59.32c0,2.18.3,2.4,2.55,2.4H36c3.22,0,4.12-.9,5-4h.9l-1.5,5.4H27.67Z" transform="translate(0 0)"/></g><g class="cls-3"><path id="path28" class="cls-4" d="M73.87,42c0-2.85-1.2-3.08-3.3-3.08v-.75h6.6V49.12l7.5-7.94c.45-.53.9-1,.9-1.35,0-.83-.75-.9-2.17-.9v-.75h8.7v.75c-1.95,0-3.38.52-5.33,2.55l-7,7.64,7.8,9.53c1.57,2,3.52,4.05,6.07,4.05v.45H90.82s-2.92-.08-4.42-1.65a19.21,19.21,0,0,1-2-2.1l-7.12-8.85h0V59.4c0,2.85,1.2,3.07,3.3,3.07v.75H74Z" transform="translate(0 0)"/></g><g class="cls-3"><path id="path30" class="cls-4" d="M63.75,58.2c-.53,2.62-1.73,3.52-4.58,3.52H55.5c-1.88,0-2.1-.22-2.1-3.15V50.85h3.3c2.55,0,3.67.52,3.67,2.62h.45V46.65h-.45c0,2.55-1.12,2.77-3.67,2.77H53.4V42.9c0-2.7.07-3.15,2.1-3.15h3c2.7.07,3.82,1,4.35,3.45h.75l-.23-5H46.87V39c2,0,3.3.3,3.3,3.07V63.22h14.1l.23-4.95h-.75Z" transform="translate(0 0)"/></g></g></g></g></svg>