<svg id="svg4344" xmlns="http://www.w3.org/2000/svg" xmlns:xlink="http://www.w3.org/1999/xlink" viewBox="0 0 197.61 69.81"><defs><style>.cls-1{fill:none;}.cls-2{fill:none;}.cls-3{clip-path:url(#clip-path);}.cls-4{fill:#fff;}</style><clipPath id="clip-path" transform="translate(0)"><path class="cls-1" d="M34.59,0A34.91,34.91,0,0,0,0,34.91H0A34.9,34.9,0,0,0,34.91,69.8h127.8a34.89,34.89,0,0,0,34.9-34.58h0v-.63A34.9,34.9,0,0,0,163,0H34.59ZM3.42,34.91A31.49,31.49,0,0,1,34.91,3.42h127.8a31.48,31.48,0,0,1,31.48,31.49h0a31.48,31.48,0,0,1-31.48,31.48H34.91A31.49,31.49,0,0,1,3.42,34.91M123.81,26.4v9.74a3.42,3.42,0,0,1-3.69,3.6h0a3.5,3.5,0,0,1-3.68-3.64h0V24.49a.64.64,0,0,0-.63-.63h-2.07a2.53,2.53,0,0,0-2.52,2.54h0v9.72a3.43,3.43,0,0,1-3.69,3.62h0a3.49,3.49,0,0,1-3.68-3.62h0V24.49a.63.63,0,0,0-.62-.63h-2.06a2.54,2.54,0,0,0-2.53,2.54h0v9.66c0,5,3.19,8.77,8.73,8.77h0a9.3,9.3,0,0,0,6.47-2.59h0a9.54,9.54,0,0,0,6.56,2.59h0c5.77,0,8.64-4.16,8.64-8.77h0V24.49a.63.63,0,0,0-.63-.63h-2.06a2.54,2.54,0,0,0-2.53,2.54m39.25-2.52c-4.72,0-8.35,3.44-8.35,8.75h0v9.66a2.52,2.52,0,0,0,2.52,2.52h2.07a.63.63,0,0,0,.63-.63h0V32.49A3.43,3.43,0,0,1,163.38,29h6.77a2.52,2.52,0,0,0,2.53-2.52h0V24.5a.63.63,0,0,0-.63-.62h-9Zm-80.18,0c-5.08,0-8.36,3.86-8.36,8.59h0v3.59c0,5.2,3.51,8.74,8.36,8.74h5.6c4.72,0,8.36-3.42,8.36-8.74h0V32.47c0-4.73-3.29-8.59-8.36-8.59h-5.6ZM79.74,36.06V32.62A3.42,3.42,0,0,1,83.19,29h5a3.43,3.43,0,0,1,3.45,3.66h0v3.44a3.43,3.43,0,0,1-3.45,3.66h-5a3.42,3.42,0,0,1-3.45-3.66M52,23.88V42.3a2.51,2.51,0,0,0,2.53,2.51h2.06a.62.62,0,0,0,.63-.62h0V39.36h8.38c4.31,0,7.4-3,7.4-7.69h0c0-4.69-3.09-7.79-7.4-7.79H52ZM57.17,29h8.2a2.43,2.43,0,0,1,2.37,2.6h0a2.49,2.49,0,0,1-2.37,2.69h-8.2ZM52,23.88Zm-16.08,0c-4.84,0-8.36,3.56-8.36,8.75h0v9.66A2.53,2.53,0,0,0,30,44.81H32.1a.62.62,0,0,0,.63-.63h0V32.62A3.42,3.42,0,0,1,36.19,29h7.94V42.29a2.52,2.52,0,0,0,2.52,2.52h2.07a.63.63,0,0,0,.62-.63h0V23.88Zm103.42,0c-4.72,0-8.36,3.45-8.36,8.76h0V36.1c0,5.19,3.59,8.7,8.31,8.7h10.44a2.48,2.48,0,0,0,2.53-2.47h0v-2a.63.63,0,0,0-.62-.63H139.3c-1.73,0-3.14-1.15-3.14-2.51h10a6.69,6.69,0,0,0,6.66-6.84h0a6.69,6.69,0,0,0-6.66-6.49h-6.86Zm0,5.08H146a1.6,1.6,0,0,1,1.59,1.61h0A1.6,1.6,0,0,1,146,32.16h-9.82A2.9,2.9,0,0,1,139.3,29"/></clipPath><linearGradient id="linear-gradient" x1="-866.88" y1="579.88" x2="-865.36" y2="579.88" gradientTransform="matrix(-129.95, 0, 0, 129.95, -112455.76, -75321.74)" gradientUnits="userSpaceOnUse"><stop offset="0.17" stop-color="#d0d0d0"/><stop offset="0.25" stop-color="#d0d0d0"/><stop offset="0.28" stop-color="#d0d0d0"/><stop offset="0.29" stop-color="#d0d0d0"/><stop offset="0.29" stop-color="#d0d0d0"/><stop offset="0.3" stop-color="#d0d0d0"/><stop offset="0.3" stop-color="#cfcfcf"/><stop offset="0.3" stop-color="#cfcfcf"/><stop offset="0.31" stop-color="#cfcfcf"/><stop offset="0.31" stop-color="#cfcfcf"/><stop offset="0.32" stop-color="#cfcfcf"/><stop offset="0.32" stop-color="#cfcfcf"/><stop offset="0.33" stop-color="#cfcfcf"/><stop offset="0.33" stop-color="#d0d0d0"/><stop offset="0.34" stop-color="#d0d0d0"/><stop offset="0.34" stop-color="#d1d1d1"/><stop offset="0.34" stop-color="#d1d1d1"/><stop offset="0.35" stop-color="#d1d1d1"/><stop offset="0.35" stop-color="#d2d2d2"/><stop offset="0.36" stop-color="#d2d2d2"/><stop offset="0.36" stop-color="#d2d2d2"/><stop offset="0.36" stop-color="#d2d2d2"/><stop offset="0.37" stop-color="#d2d2d2"/><stop offset="0.37" stop-color="#d2d2d2"/><stop offset="0.38" stop-color="#d2d2d2"/><stop offset="0.38" stop-color="#d3d3d3"/><stop offset="0.38" stop-color="#d3d3d3"/><stop offset="0.39" stop-color="#d3d3d3"/><stop offset="0.39" stop-color="#d3d3d3"/><stop offset="0.39" stop-color="#d3d3d3"/><stop offset="0.4" stop-color="#d3d3d3"/><stop offset="0.4" stop-color="#d3d3d3"/><stop offset="0.41" stop-color="#d3d3d3"/><stop offset="0.41" stop-color="#d3d3d3"/><stop offset="0.41" stop-color="#d4d4d4"/><stop offset="0.42" stop-color="#d3d3d3"/><stop offset="0.42" stop-color="#d4d4d4"/><stop offset="0.43" stop-color="#d4d4d4"/><stop offset="0.43" stop-color="#d4d4d4"/><stop offset="0.43" stop-color="#d4d4d4"/><stop offset="0.44" stop-color="#d4d4d4"/><stop offset="0.44" stop-color="#d4d4d4"/><stop offset="0.45" stop-color="#d4d4d4"/><stop offset="0.45" stop-color="#d4d4d4"/><stop offset="0.45" stop-color="#d4d4d4"/><stop offset="0.46" stop-color="#d4d4d4"/><stop offset="0.46" stop-color="#d4d4d4"/><stop offset="0.46" stop-color="#d4d4d4"/><stop offset="0.47" stop-color="#d4d4d4"/><stop offset="0.47" stop-color="#d4d4d4"/><stop offset="0.48" stop-color="#d4d4d4"/><stop offset="0.48" stop-color="#d4d4d4"/><stop offset="0.48" stop-color="#d4d4d4"/><stop offset="0.49" stop-color="#d4d4d4"/><stop offset="0.49" stop-color="#d4d4d4"/><stop offset="0.5" stop-color="#d5d5d5"/><stop offset="0.5" stop-color="#d5d5d5"/><stop offset="0.5" stop-color="#d5d5d5"/><stop offset="0.51" stop-color="#d5d5d5"/><stop offset="0.51" stop-color="#d5d5d5"/><stop offset="0.52" stop-color="#d5d5d5"/><stop offset="0.52" stop-color="#d5d5d5"/><stop offset="0.52" stop-color="#d5d5d5"/><stop offset="0.53" stop-color="#d5d5d5"/><stop offset="0.53" stop-color="#d5d5d5"/><stop offset="0.54" stop-color="#d5d5d5"/><stop offset="0.54" stop-color="#d6d6d6"/><stop offset="0.54" stop-color="#d6d6d6"/><stop offset="0.55" stop-color="#d6d6d6"/><stop offset="0.55" stop-color="#d6d6d6"/><stop offset="0.55" stop-color="#d6d6d6"/><stop offset="0.56" stop-color="#d6d6d6"/><stop offset="0.56" stop-color="#d6d6d6"/><stop offset="0.57" stop-color="#d6d6d6"/><stop offset="0.57" stop-color="#d6d6d6"/><stop offset="0.57" stop-color="#d6d6d6"/><stop offset="0.58" stop-color="#d6d6d6"/><stop offset="0.58" stop-color="#d6d6d6"/><stop offset="0.59" stop-color="#d6d6d6"/><stop offset="0.59" stop-color="#d6d6d6"/><stop offset="0.59" stop-color="#d6d6d6"/><stop offset="0.6" stop-color="#d6d6d6"/><stop offset="0.6" stop-color="#d6d6d6"/><stop offset="0.61" stop-color="#d6d6d6"/><stop offset="0.61" stop-color="#d6d6d6"/><stop offset="0.61" stop-color="#d6d6d6"/><stop offset="0.62" stop-color="#d6d6d6"/><stop offset="0.62" stop-color="#d6d6d6"/><stop offset="0.63" stop-color="#d5d5d5"/><stop offset="0.63" stop-color="#d5d5d5"/><stop offset="0.63" stop-color="#d5d5d5"/><stop offset="0.64" stop-color="#d5d5d5"/><stop offset="0.64" stop-color="#d5d5d5"/><stop offset="0.64" stop-color="#d5d5d5"/><stop offset="0.65" stop-color="#d4d4d4"/><stop offset="0.65" stop-color="#d4d4d4"/><stop offset="0.66" stop-color="#d4d4d4"/><stop offset="0.66" stop-color="#d4d4d4"/><stop offset="0.66" stop-color="#d3d3d3"/><stop offset="0.67" stop-color="#d3d3d3"/><stop offset="0.69" stop-color="#d3d3d3"/><stop offset="0.75" stop-color="#d3d3d3"/><stop offset="1" stop-color="#d3d3d3"/></linearGradient></defs><path id="path4206" class="cls-2" d="M0,34.91A34.91,34.91,0,0,1,34.91,0h127.8a34.91,34.91,0,0,1,0,69.81H34.91A34.91,34.91,0,0,1,0,34.91" transform="translate(0)"/><path id="path4208" class="cls-2" d="M162.71,69.41H34.91a34.51,34.51,0,1,1,0-69h127.8a34.51,34.51,0,1,1,0,69" transform="translate(0)"/><g class="cls-3"><g id="g4210"><path id="path4214" class="cls-4" d="M197.61,69.8V0H0V69.8Z" transform="translate(0)"/></g></g></svg>