<svg id="svg352" xmlns="http://www.w3.org/2000/svg" viewBox="0 0 244.24 100"><defs><style>.cls-1{fill:#bfbfbf;}.cls-2{fill:#9c9c9c;}</style></defs><path id="path4664" class="cls-1" d="M4.76,40C7.64,29.48,19.64,27,30.69,26.66a154.83,154.83,0,0,1,19.22.95L45.15,45a154.75,154.75,0,0,0-19.21-.95C14.88,44.37,2.88,46.88,0,57.41Z" transform="translate(0)"/><path id="path4655" class="cls-2" d="M157.68,21.49c-14.55,0-18.28,14.08-20.37,21.7L121.77,100h9.07l13.78-50.37H154l-6.27,22.92h9.06l7.52-27.49H145.87c.95-3.46,2-7.15,2.78-10.16,1.52-5.56,4-9.59,7.61-9.46,4,.15,2,2.77,1.42,4.77-.76,2.76,1.28,5.54,4.86,5.54C170.31,35.75,172.22,21.49,157.68,21.49Zm-51.44,9.94h0L95,72.55h9.45l4.16-15.23h8.21c9.06,0,15.08-5,16.7-12,1.52-6.49-2.27-13.94-12.42-13.94Zm8.13,4.84H118c3.8,0,6.82,3,6.09,8.34-.67,4.92-6,7.86-10.66,7.86h-3.5Zm89.63,8c-7.94,0-13.68,6.84-15.05,13.67-1.32,6.57,2.44,15.29,12.81,15.29,7.37,0,11.07-3.24,11.07-3.24l-1.7-4.19a12.78,12.78,0,0,1-7.41,2.52c-4.31,0-7-3.4-6.42-8.83h17.62C216.18,56.25,216.87,44.23,204,44.23Zm35.14.37c-5.92,0-9.4,6.11-9.4,6.11l1.54-5.65h-9.06L214.7,72.55h9.06s2.19-8,3.3-12c1.71-6.27,5.21-10.19,6.89-10.35,2-.19,1.76,4.5,5.55,4.5,5.75,0,7-10.06-.36-10.06Zm-71.37.46-1.25,4.57H178L159.94,72.55h25.52L186.71,68h-13l18.07-22.92ZM204,48.77h0c4.93,0,3.81,6.51,3.81,6.51l-9.88,0s1.64-6.49,6.07-6.49Z" transform="translate(0)"/><path id="path4668" class="cls-2" d="M73.72,72.61c-32.51-2-70.29-18.79-69-32.6L.27,56.41C-1.09,70.5,34,87.22,69,90Z" transform="translate(0)"/><path id="path4672" class="cls-2" d="M85.54,50C82.66,60.54,70.65,63,59.6,63.35a153.59,153.59,0,0,1-19.21-.94L45.15,45A153.59,153.59,0,0,0,64.36,46c11-.31,23-2.81,25.94-13.35Z" transform="translate(0)"/><path id="path4674" class="cls-1" d="M16.57,17.4c32.52,2,70.3,18.8,69,32.6L90,33.6C91.38,19.52,56.33,2.8,21.33,0Z" transform="translate(0)"/></svg>