<svg id="Layer_1" data-name="Layer 1" xmlns="http://www.w3.org/2000/svg" viewBox="0 0 500 109.8"><defs><style>.cls-1{fill:#bdbdbd;}</style></defs><path class="cls-1" d="M33.48,93c9.93,0,16-5.11,16-11.63,0-9.92-10.86-12.71-25.59-20.31C9.3,53.65,1.7,43,1.7,30.55,1.7,12.72,16.11,0,40.31,0A75.66,75.66,0,0,1,66.67,5V22.64c-8.84-4.49-16-7.13-21.86-7.13-8.38,0-13.8,4.65-13.8,10.23,0,8.68,11.16,11.79,29.3,21.71C72.41,54.12,78,63.27,78,76c0,19.69-16.28,33.34-41.39,33.34-10.39,0-20.48-2-31.18-5.58L0,81.41C12.24,88.86,22.64,93,33.48,93m90.9-48.76c-6.18,0-10.13,4.12-10.45,11.71h20.25c0-7.75-3.47-11.71-9.8-11.71M113.29,69.93c0,.95-.15,1.89-.15,2.68,0,13.6,8.86,21.52,23.26,21.52,7.11,0,15.67-3,26.42-8.06l-5.69,18.35c-9.35,3.16-18.2,5.38-28.17,5.38-28.32,0-44.93-16-44.93-39.72s17.4-40.51,41.14-40.51c21,0,36.7,14.88,36.7,38.31v2.05Zm58.4,23.57V46.66c0-6.17-1.27-10.43-5.37-14.24h7.28a154.08,154.08,0,0,0,25.31-1.74l.63,7.76c6.33-5.07,12.34-7.6,19.46-7.6,16.62,0,27.37,10.6,27.37,27.85V93.5c0,6.17,1.27,10.28,5.39,14.08H213.15c4.12-3.8,5.38-7.91,5.38-14.08V69.29c0-14.71-1.91-22.48-10-22.48-8.39,0-9,7.76-9,22.48V93.5c0,6.17,1.27,10.28,5.38,14.08h-38.6c4.1-3.8,5.37-7.91,5.37-14.08M295.34,44.28c-6.17,0-10.13,4.12-10.44,11.71h20.26c0-7.75-3.48-11.71-9.82-11.71M284.27,69.93c0,.95-.16,1.89-.16,2.68,0,13.6,8.86,21.52,23.25,21.52,7.13,0,15.68-3,26.43-8.06l-5.69,18.35c-9.35,3.16-18.2,5.38-28.17,5.38-28.33,0-44.93-16-44.93-39.72s17.4-40.51,41.14-40.51c21.05,0,36.7,14.88,36.7,38.31v2.05Zm124.8,34.64a59.93,59.93,0,0,1-24.84,5.22C357.8,109.79,341,93,341,70.72c0-23.58,17.89-41,45.89-41a128.42,128.42,0,0,1,17.73,1.74V50.31c-6.34-3.33-11.4-5.07-15.51-5.07-10.44,0-17.25,7.91-17.25,21.68,0,16.3,8.07,26.26,21.36,26.26,6.33,0,13.29-2.21,21.52-6.65Zm35.4-19.3c0,5.54,3.94,9.34,10.92,9.34h1.25L450,108.69c-4.44.32-7.45.47-9.34.47-15.66,0-26.26-10.12-26.26-23.57,0-11.71,7.43-19.15,22-22.62,13.92-3.33,22.95-3,22.95-10.61,0-4.74-3.33-7.27-10-7.27-6.33,0-13,1.57-20.09,4.42l7.43-16.93a62.74,62.74,0,0,1,17.72-2.84c12.34,0,21.21,2.53,26.9,8.38,6.65,6.8,6.81,15.35,6.81,26.26v19C488.14,91.6,491,94,500,95.24l-6,13.29c-4.11.32-7,.48-8.86.48-15.18,0-25.95-9.34-25.95-23.43V72.3c-9.81,3.78-14.71,6.65-14.71,13"/></svg>