<svg id="svg4873" xmlns="http://www.w3.org/2000/svg" viewBox="0 0 410.57 95"><defs><style>.cls-1{fill:#d7d7d7;}.cls-2{fill:#ebebeb;}.cls-3{fill:#b5b5b5;}.cls-4{fill:#bababa;}.cls-5{fill:#acacac;}.cls-6{fill:#fff;}.cls-7,.cls-9{fill:#979797;}.cls-7,.cls-8{fill-rule:evenodd;}.cls-8{fill:#eaeaea;}</style></defs><path id="path2576" class="cls-1" d="M1.16,73.7l21-12.08,0-23.29L1.22,26.2,1.16,73.7" transform="translate(-1.16 -2.5)"/><path id="path2580" class="cls-2" d="M1.22,26.2l21,12.13L42.36,26.71l0-24.21L1.22,26.2" transform="translate(-1.16 -2.5)"/><path id="path2584" class="cls-3" d="M42.39,2.5l0,24.21L62.52,38.37l21-12.07L42.39,2.5" transform="translate(-1.16 -2.5)"/><path id="path2588" class="cls-4" d="M83.49,26.3l-21,12.07,0,23.3L83.44,73.8l0-47.5" transform="translate(-1.16 -2.5)"/><path id="path2592" class="cls-3" d="M83.43,73.8,62.49,61.67,42.3,73.3l0,24.2L83.43,73.8" transform="translate(-1.16 -2.5)"/><path id="path2596" class="cls-5" d="M42.27,97.5l0-24.2L22.15,61.62,1.16,73.7,42.27,97.5" transform="translate(-1.16 -2.5)"/><path id="path2600" class="cls-6" d="M22.18,38.33,42.36,26.71,62.53,38.37l0,23.3L42.3,73.3,22.15,61.62l0-23.29" transform="translate(-1.16 -2.5)"/><path id="path2604" class="cls-7" d="M42.36,30,59.68,40,42.33,50,25,40,42.36,30" transform="translate(-1.16 -2.5)"/><path id="path2608" class="cls-8" d="M42.33,50l0,20L25,60V40L42.33,50" transform="translate(-1.16 -2.5)"/><path id="path2612" class="cls-9" d="M132.94,36.62a22.11,22.11,0,0,0-8.64-1.82c-2.92,0-6.69,1.27-6.69,5.89,0,7.36,18.61,4.26,18.61,18.49,0,9.3-7.36,12.83-15.93,12.83-4.62,0-6.69-.61-10.89-1.64l.79-7.66a20.53,20.53,0,0,0,9.61,2.61c3.22,0,7.54-1.64,7.54-5.47,0-8.09-18.61-4.75-18.61-18.79,0-9.49,7.36-13,14.84-13a31.88,31.88,0,0,1,10.16,1.52l-.79,7" transform="translate(-1.16 -2.5)"/><path id="path2614" class="cls-9" d="M144.13,71.28h8.51V28.84h-8.51Z" transform="translate(-1.16 -2.5)"/><path id="path2618" class="cls-9" d="M163.76,28.84h25.06v6.69H172.28V46h15.14v6.69H172.28V64.59h16.66v6.69H163.76V28.84" transform="translate(-1.16 -2.5)"/><path id="path2622" class="cls-9" d="M230.53,37a27.76,27.76,0,0,0-10.94-2.25c-9.92,0-15.39,6.69-15.39,15.39s5.35,15.14,14.41,15.14a22.82,22.82,0,0,0,5.6-.61V53.64h-9V47h17.15V69.82A53.37,53.37,0,0,1,218.61,72c-13.74,0-23.28-6.87-23.28-21.22,0-14.54,8.87-22.68,23.28-22.68a42.07,42.07,0,0,1,12.47,1.76L230.53,37" transform="translate(-1.16 -2.5)"/><path id="path2626" class="cls-9" d="M237.89,28.84h8.94l7.9,33.93h.13l7.23-33.93h11.55l7.49,33.93h.12l8-33.93h8.27L286.41,71.28H275.47l-7.66-33.93h-.12l-7.54,33.93h-11L237.89,28.84" transform="translate(-1.16 -2.5)"/><path id="path2630" class="cls-9" d="M303.93,28.84H329v6.69H312.44V46h15.14v6.69H312.44V64.59H329.1v6.69H303.93V28.84" transform="translate(-1.16 -2.5)"/><path id="path2634" class="cls-9" d="M346.43,47h2.8c4.2,0,9-.61,9-5.9,0-5.11-4.74-5.54-9-5.54h-2.8Zm-8.51-18.12h9.18c9.12,0,20-.31,20,11.49a9.72,9.72,0,0,1-8.76,9.85v.12c2.31.18,3.65,2.49,4.5,4.38l6.81,16.6h-9.48L355.07,58c-1.22-3.16-2.31-4.38-5.9-4.38h-2.74V71.28h-8.51V28.84" transform="translate(-1.16 -2.5)"/><path id="path2638" class="cls-9" d="M376.71,28.84h8.52V47.08l15.32-18.24H411l-17.45,20,18.18,22.44H400.61l-15.26-19.7h-.12v19.7h-8.52V28.84" transform="translate(-1.16 -2.5)"/></svg>