<svg id="Layer_1" data-name="Layer 1" xmlns="http://www.w3.org/2000/svg" viewBox="0 0 182.2 36.9"><defs><style>.cls-1{fill:#a8a8a8;}</style></defs><path class="cls-1" d="M169.27.92c-4.25,0-7.51,1.12-9.68,3.3a10.55,10.55,0,0,0-2.87,7.5c0,7.75,5,9,10.31,10.31l3.53.86c3.56.9,5.73,1.63,5.75,4.13,0,3.58-3.51,4.34-6.44,4.34h-.3c-5.6,0-6.51-3.42-6.56-5.46v-.15h-6.76V26c0,3.51,1.37,11.69,13.91,11.69h.07c2.14,0,12.85-.59,12.84-11.5,0-6.35-4.33-8.32-8.56-9.41l-7.89-2.07c-1.6-.4-3.3-1-3.31-3.47,0-2.94,2.82-4,5.47-4,4,0,6.14,1.71,6.44,5.05v.14H182v-.15C181.93,7,178.55.92,169.27.92Zm-57,.12a6.51,6.51,0,0,0-6.61,6.38v25.5c0,1.9,1.58,3.93,3.53,3.94a3.37,3.37,0,0,1,.69,0h18.31V30.35H112.34V7.42h.26L115,19.5l6-1.43L119.07,7.3A6.6,6.6,0,0,0,112.31,1Zm-98.44.05c-4.22,0-7.45,1.1-9.62,3.27a10.59,10.59,0,0,0-2.9,7.54c0,7.74,5.07,9,10.4,10.28l3.46.89c3.45.84,5.71,1.59,5.71,4.14a3.67,3.67,0,0,1-1,2.71c-1.05,1.06-3,1.62-5.54,1.62-6,0-6.68-3.82-6.71-5.45v-.15H.87v.15c0,3.53,1.45,11.73,14,11.74,2.15,0,12.87-.62,12.86-11.48,0-6.36-4.14-8.31-8.58-9.47l-7.88-2.09C10,14.46,8,14,8,11.35c0-2.93,2.79-4,5.39-4h.07c5.9,0,6.32,3.79,6.47,5.16h6.78c0-1.15-.49-11.45-12.72-11.45Zm13.22.77,0,6.54h9.76V36.86h7.09V8.4h9.71l0-6.54Zm31.3,0-11.52,35H54.3l2.25-7.17H68.23l2.06,7.17H78l-11.5-35H58.39Zm20.79,0v35h7.1V24.37l7.59,0a9.74,9.74,0,0,0,7.19-2.74,12.49,12.49,0,0,0,3.22-8.46c0-6.92-3.93-11.28-10.21-11.28Zm50.39,0v35h24.86V30.33H136.51V21.7h15.74V15.25l-15.74,0v-7h17.11V1.86ZM86.28,8.21h5.23c4.07,0,5.73,1.34,5.73,4.62a5.49,5.49,0,0,1-1.19,4,5,5,0,0,1-3.68,1.23H86.28V8.21Zm-23.91,2.1,3.88,13.13H58.42l3.95-13.13Z" transform="translate(-0.87 -0.92)"/></svg>