<svg id="svg4405" xmlns="http://www.w3.org/2000/svg" xmlns:xlink="http://www.w3.org/1999/xlink" viewBox="0 0 347.42 200.49"><defs><style>.cls-1{fill:none;}.cls-2{fill:#9f9f9f;}.cls-3{clip-path:url(#clip-path);}.cls-4{fill:url(#linear-gradient);}.cls-5{clip-path:url(#clip-path-2);}.cls-6{fill:url(#linear-gradient-2);}.cls-7{clip-path:url(#clip-path-3);}.cls-8{fill:url(#linear-gradient-3);}.cls-9{clip-path:url(#clip-path-4);}.cls-10{fill:url(#linear-gradient-4);}.cls-11{clip-path:url(#clip-path-5);}.cls-12{fill:url(#linear-gradient-5);}.cls-13{clip-path:url(#clip-path-6);}.cls-14{fill:url(#linear-gradient-6);}.cls-15{clip-path:url(#clip-path-7);}.cls-16{fill:url(#linear-gradient-7);}.cls-17{clip-path:url(#clip-path-8);}.cls-18{fill:url(#linear-gradient-8);}.cls-19{clip-path:url(#clip-path-9);}.cls-20{fill:url(#linear-gradient-9);}.cls-21{clip-path:url(#clip-path-10);}.cls-22{fill:url(#linear-gradient-10);}.cls-23{clip-path:url(#clip-path-11);}.cls-24{fill:url(#linear-gradient-11);}.cls-25{clip-path:url(#clip-path-12);}.cls-26{fill:url(#linear-gradient-12);}.cls-27{clip-path:url(#clip-path-13);}.cls-28{fill:url(#linear-gradient-13);}.cls-29{clip-path:url(#clip-path-14);}.cls-30{fill:url(#linear-gradient-14);}.cls-31{clip-path:url(#clip-path-15);}.cls-32{fill:url(#linear-gradient-15);}.cls-33{clip-path:url(#clip-path-16);}.cls-34{fill:url(#linear-gradient-16);}</style><clipPath id="clip-path" transform="translate(-4.3 -4.51)"><path class="cls-1" d="M47.57,81.09l-1,2.75a17.06,17.06,0,0,0-.34,8.61l5.09,26.34c.4,2.28,1.12,3.23,1.89,3.1s.74-2,.25-5.92l-3.84-34.9c-.27-2.19-1.23-2.23-2.06,0"/></clipPath><linearGradient id="linear-gradient" x1="-781.08" y1="647.59" x2="-780.72" y2="647.59" gradientTransform="matrix(-299.15, 270.87, 270.87, 299.15, -408895.72, 17830.1)" gradientUnits="userSpaceOnUse"><stop offset="0" stop-color="#c7c7c7"/><stop offset="1" stop-color="#e0e0e0"/></linearGradient><clipPath id="clip-path-2" transform="translate(-4.3 -4.51)"><path class="cls-1" d="M58.36,108.74c.1,2.27.35,5-.44,5.19s-1.15-.74-1.53-3.66L54.73,94.72c-.29-2.23.09-7,.92-8.6s1.62-1.23,1.71,1Z"/></clipPath><linearGradient id="linear-gradient-2" x1="-781.08" y1="647.6" x2="-780.73" y2="647.6" gradientTransform="matrix(-294.32, 266.49, 266.49, 294.32, -402294.04, 17545.07)" xlink:href="#linear-gradient"/><clipPath id="clip-path-3" transform="translate(-4.3 -4.51)"><path class="cls-1" d="M65.28,56.44l-2,45.29c0,2.06-.17,4.69-.93,4.51-.43-.1-.95-1.3-1-3.36L60.5,65.7a16.12,16.12,0,0,1,1.65-6.76l1.37-2.57c1-1.8,1.91-1.78,1.76.07"/></clipPath><linearGradient id="linear-gradient-3" x1="-781.12" y1="647.74" x2="-780.77" y2="647.74" gradientTransform="matrix(-277.69, 251.44, 251.44, 277.69, -379613.6, 16520.69)" xlink:href="#linear-gradient"/><clipPath id="clip-path-4" transform="translate(-4.3 -4.51)"><path class="cls-1" d="M72.08,65.7,69,100.24c-.31,2.43-.67,5-1.39,4.92-.49,0-.92-1.54-.68-3.82l1.28-29.65a22.46,22.46,0,0,1,2.57-7c.94-1.61,1.64-.87,1.3,1"/></clipPath><linearGradient id="linear-gradient-4" x1="-781.1" y1="647.65" x2="-780.75" y2="647.65" gradientTransform="matrix(-288.45, 261.18, 261.18, 288.45, -394283.7, 17184.27)" xlink:href="#linear-gradient"/><clipPath id="clip-path-5" transform="translate(-4.3 -4.51)"><path class="cls-1" d="M73.25,97.79c-.59-.07-.61-2.52-.45-4.18L77.64,45.8a15.09,15.09,0,0,1,2.83-6.06l.47-.58c1.32-1.59,2.29-1.45,1.93.27L74.71,93.65c-.43,2.34-.72,4.14-1.46,4.14"/></clipPath><linearGradient id="linear-gradient-5" x1="-781.1" y1="647.7" x2="-780.75" y2="647.7" gradientTransform="matrix(-285.4, 258.42, 258.42, 285.4, -390138.52, 16984.23)" xlink:href="#linear-gradient"/><clipPath id="clip-path-6" transform="translate(-4.3 -4.51)"><path class="cls-1" d="M87.68,47.35c1.06-1.21,2.83-.53,2.45,1.19L79.55,96.84c-.38,1.73-1.14,4.4-1.92,4.31s-.61-2.59-.14-4.64l7.62-43.68a13.76,13.76,0,0,1,2.57-5.48"/></clipPath><linearGradient id="linear-gradient-6" x1="-781.08" y1="647.6" x2="-780.73" y2="647.6" gradientTransform="matrix(-295.41, 267.48, 267.48, 295.41, -403789.74, 17605.97)" xlink:href="#linear-gradient"/><clipPath id="clip-path-7" transform="translate(-4.3 -4.51)"><path class="cls-1" d="M88.77,96.28C88,98,87.05,100.34,86,99.89c-.77-.31.79-4.08.79-4.08l26.24-64c.85-1.86,2.73-4.25,4.77-3.25,1.83.88-.13,4.49-.85,6.11-15.92,35.8-20.46,45-28.16,61.65"/></clipPath><linearGradient id="linear-gradient-7" x1="-781.33" y1="648.09" x2="-780.98" y2="648.09" gradientTransform="matrix(-223.34, 202.23, 202.23, 223.34, -305418.95, 13280.35)" xlink:href="#linear-gradient"/><clipPath id="clip-path-8" transform="translate(-4.3 -4.51)"><path class="cls-1" d="M94.66,93.13c.63.48,2.1-1.28,3.26-3.27L146,9.8c.86-1.44,1.34-3.76-.39-4.62-1.34-.67-3.67.64-4.77,2.59L96.14,88.41c-1.31,2.43-2.08,4.23-1.48,4.72"/></clipPath><linearGradient id="linear-gradient-8" x1="-781.21" y1="647.83" x2="-780.86" y2="647.83" gradientTransform="matrix(-254.58, 230.51, 230.51, 254.58, -348050.46, 15164.55)" xlink:href="#linear-gradient"/><clipPath id="clip-path-9" transform="translate(-4.3 -4.51)"><path class="cls-1" d="M95.78,101.76c-.63-.62.44-2.6,1.72-4.6l51.32-74.49c1.39-2.1,4.46-4.44,6.34-3.34,1.69,1,1.71,3.1.29,5.09l-56,74.16c-1.4,2-3,3.83-3.65,3.18"/></clipPath><linearGradient id="linear-gradient-9" x1="-781.2" y1="647.76" x2="-780.85" y2="647.76" gradientTransform="matrix(-255.7, 231.53, 231.53, 255.7, -349561.18, 15254.9)" xlink:href="#linear-gradient"/><clipPath id="clip-path-10" transform="translate(-4.3 -4.51)"><path class="cls-1" d="M111,93.12s-3.39,3.55-4.1,2.76.66-2.26,2.15-4.17l1.68-2L182.4,7.42c1.15-1.41,2.75-1.48,4.26-.36l2.17,2.67a3.81,3.81,0,0,1-.21,5Z"/></clipPath><linearGradient id="linear-gradient-10" x1="-781.12" y1="647.55" x2="-780.77" y2="647.55" gradientTransform="matrix(-283.4, 256.61, 256.61, 283.4, -387355.47, 16941.17)" xlink:href="#linear-gradient"/><clipPath id="clip-path-11" transform="translate(-4.3 -4.51)"><path class="cls-1" d="M105.14,106.31c-.55-.55.69-2.21,3-4.22l76.15-70a3.11,3.11,0,0,1,4.51-.18,7.54,7.54,0,0,1,2.4,4.29c.42,2.21-.81,3.19-2.37,4.59L109.49,104c-2,1.71-3.7,2.94-4.35,2.34"/></clipPath><linearGradient id="linear-gradient-11" x1="-781.1" y1="647.43" x2="-780.75" y2="647.43" gradientTransform="matrix(-290.74, 263.25, 263.25, 290.74, -397338.91, 17417.47)" xlink:href="#linear-gradient"/><clipPath id="clip-path-12" transform="translate(-4.3 -4.51)"><path class="cls-1" d="M120.93,100.05l88.6-63.32c1.69-1.33,3.24-1,3.66.64l2.06,7.1c.47,1.75-.77,4.1-2.57,5.38l-90.23,52.27c-2.21,1.42-4.52,2.66-5.08,1.88-.72-1,1.51-2.29,3.56-4"/></clipPath><linearGradient id="linear-gradient-12" x1="-781.09" y1="647.32" x2="-780.74" y2="647.32" gradientTransform="matrix(-297.86, 269.7, 269.7, 297.86, -407032.27, 17880.1)" xlink:href="#linear-gradient"/><clipPath id="clip-path-13" transform="translate(-4.3 -4.51)"><path class="cls-1" d="M111.49,113.34c-.26-1,2.08-2,4.55-3.28l79.29-40c2.15-1.18,3.84-.58,3.83,1.28l.35,8.8c0,1.92-2.06,4.29-4.52,5.28l-78.15,27.19c-2.73,1.07-5.11,1.69-5.35.7"/></clipPath><linearGradient id="linear-gradient-13" x1="-781.1" y1="647.3" x2="-780.75" y2="647.3" gradientTransform="matrix(-292.03, 264.42, 264.42, 292.03, -399054.28, 17547.86)" xlink:href="#linear-gradient"/><clipPath id="clip-path-14" transform="translate(-4.3 -4.51)"><path class="cls-1" d="M204.41,105.76l-76.57,10.95c-3,.47-5.2.94-5.43.07-.26-1.06,2.3-1.71,5.11-2.65L206.94,90c2.56-.85,4.56.09,4.32,2.06l-1.13,9.09c-.23,2.1-2.78,4.18-5.72,4.6"/></clipPath><linearGradient id="linear-gradient-14" x1="-781.1" y1="647.24" x2="-780.75" y2="647.24" gradientTransform="matrix(-289.72, 262.33, 262.33, 289.72, -395865.91, 17441.02)" xlink:href="#linear-gradient"/><clipPath id="clip-path-15" transform="translate(-4.3 -4.51)"><path class="cls-1" d="M117.3,124.15c-.21-1.13,3.6-1.76,6.54-2.07l67.72-7.94c3-.31,5.5,1.31,4.52,3.93l-1.37,3.57c-.81,2.28-3.31,3.88-6.45,3.67l-64.9,0c-2.85,0-5.85,0-6.06-1.18"/></clipPath><linearGradient id="linear-gradient-15" x1="-781.1" y1="647.21" x2="-780.75" y2="647.21" gradientTransform="matrix(-292.72, 265.04, 265.04, 292.72, -399952.81, 17629.7)" xlink:href="#linear-gradient"/><clipPath id="clip-path-16" transform="translate(-4.3 -4.51)"><path class="cls-1" d="M107.93,23.74S88.31,84,87.19,87.23c-1.21,3.48-2.38,6.56-3.4,6.3-.66-.19-.14-2.4.59-5.07L103,23.08c.87-2.63,3.64-4.91,4.72-4.7,2,.39.83,3.69.26,5.36"/></clipPath><linearGradient id="linear-gradient-16" x1="-781.33" y1="648.13" x2="-780.98" y2="648.13" gradientTransform="matrix(-225.72, 204.38, 204.38, 225.72, -308689.11, 13405.1)" xlink:href="#linear-gradient"/></defs><path id="path2466" class="cls-2" d="M27.44,140.36c-15.54,0-23.18,8.36-23.14,19,.07,11.19,7.55,15.42,19,18.27,12,3,16.48,4.81,16.57,11.25.05,5.18-3.5,11.21-14,11.08-7.1-.1-11.27-2.55-14-6a10.4,10.4,0,0,1-1.8-4.59,44.51,44.51,0,0,1-.36-5H4.75v15.31c3.51,2.6,12.52,5.31,21.16,5.31,15.78,0,22.79-8.28,23.77-17.38.68-6.29,0-11.52-4.14-15.75-3.14-3.08-8.24-5-17.83-7.11-11.48-2.51-13.6-5.06-13.5-10.54s5.34-8.66,11.88-8.91c4.68-.2,8.37.4,12.24,3.06A7.23,7.23,0,0,1,41,152.78a33.09,33.09,0,0,1,.45,5h4.5v-13.6C41.77,142.14,36.78,140.36,27.44,140.36Zm111.73,1.08v16.3h-12v3h1.17c3.38,0,3.78.93,3.78,3.15v28.45l-19.26-34.57H82.54v3h1.17c3.41,0,3.78.59,3.78,2.79v24.39c0,5.47-.75,13.46-10.35,13.15-8.57-.24-9-6.65-9-12.34V163.5c0-2.2,1.39-2.79,4.78-2.79v-3H52.11v3c3.38,0,4.77.59,4.77,2.79v23.67c0,6.54,1.31,10.89,3.87,13.6,4.32,4.28,11.39,4.23,14.68,4.23,15.65,0,16.47-11.16,16.47-20.71V160.71c0,.67.22,0,3.6,0h2.7c3.38,0,3.6.59,3.6,2.79v34.3c0,2.16-.39,3.06-3.78,3.06H96.85v2.88h14.41v-2.88h-1.17c-3.39,0-3.78-.9-3.78-3.06V169l19.44,34.75h10.9V163.86c0-2.2.37-3.15,3.78-3.15h3.33v-5.14c0-4.37.29-9.45,6.75-9.45h7.2v49.34c0,4.14-.92,5.4-5.67,5.4h-1.62v2.88H178v-2.88h-1.53c-4.8,0-5.85-1.26-5.85-5.4V146.12h7.2c6.35,0,6.66,5.08,6.66,9.45v5.14H189c3.45,0,3.69.77,3.69,3v34.21c0,2.19-1.46,3-4.95,3v2.88H209v-2.88c-3.46,0-4.95-.78-4.95-3V161.34h5.58c4.43,0,7.74,1.59,7.74,8.37,0,4.26-1.7,9.09-7.83,9.09h-3.42s8.46,17,10,20.17c2,3.94,4.42,4.77,9.27,4.77h8.38v-2.88a5.42,5.42,0,0,1-4.78-2.25l-10-17.38c5.59-1.17,9.63-5.46,9.63-11.61,0-11.3-11.26-11.88-18.63-11.88H189v-16.3Zm154,14.94c-10.6.7-15.62,7.23-15.66,14.41,0,8.2,4,12,14,14.31s12.88,3.2,13,8.47c.05,3.67-3.27,7.69-10.54,7.56-5.72-.1-8.8-2.22-10.44-4.14a6.83,6.83,0,0,1-1.44-3.33,32.06,32.06,0,0,1-.27-4h-4.14V201c2.68,1.92,9.61,4.05,16.2,4.05,12,0,17.88-6.49,18.55-14,.44-4.71-.58-8.74-3.33-11.62-2.62-2.67-5.78-3.73-13.59-5.31-8.65-1.77-10.39-3.23-10.36-7.38,0-4.31,5-6.25,8.73-6.39,2.79-.12,6.9-.07,10,2.52a4.69,4.69,0,0,1,1.53,3.42c.14,1.36.22,2.69.27,3.78h4V159.27c-3.37-1.6-7.11-2.81-14.31-2.89C294.7,156.38,293.91,156.34,293.2,156.38Zm-62.12,1.36v3c3.4,0,4.78.59,4.78,2.79v23.67c0,6.54,1.27,10.89,4,13.6,4.23,4.28,11.27,4.23,14.58,4.23,15.75,0,16.57-11.1,16.57-17.83V163.68c0-2.2.38-3,3.69-3h1.17v-3H261.51v3h1.17c3.39,0,3.79.77,3.79,3v24.21c0,5.47-.75,13.46-10.36,13.15-8.56-.24-9-6.65-9-12.34V163.5c0-2.2,1.4-2.79,4.77-2.79v-3Zm82.29,0V170h4c.06-2.2,0-5.34.9-6.57s1.75-1.71,4.14-1.71h4.5v35.47c0,2.18-.9,3.69-4.41,3.69h-1.53v2.88H344v-2.88h-1.53c-3.5,0-4.32-1.51-4.32-3.69V161.7h4.5c2.36,0,3.36.56,4.14,1.71s.85,4.37.9,6.57h4.05V157.74Z" transform="translate(-4.3 -4.51)"/><g class="cls-3"><g id="g2478"><g id="g2484"><g id="g2486"><g id="g2492"><g id="g2494"><path id="path2502" class="cls-4" d="M45.61,78.84h8.44V122H45.61Z" transform="translate(-4.3 -4.51)"/></g></g></g></g></g></g><g class="cls-5"><g id="g2506"><g id="g2512"><g id="g2514"><g id="g2520"><g id="g2522"><path id="path2530" class="cls-6" d="M54.44,84.47H58.7v29.62H54.44Z" transform="translate(-4.3 -4.51)"/></g></g></g></g></g></g><g class="cls-7"><g id="g2534"><g id="g2540"><g id="g2542"><g id="g2548"><g id="g2550"><path id="path2558" class="cls-8" d="M60.45,54.57h5v51.85h-5Z" transform="translate(-4.3 -4.51)"/></g></g></g></g></g></g><g class="cls-9"><g id="g2562"><g id="g2568"><g id="g2570"><g id="g2576"><g id="g2578"><path id="path2586" class="cls-10" d="M66.69,63.07h5.73v42.12H66.69Z" transform="translate(-4.3 -4.51)"/></g></g></g></g></g></g><g class="cls-11"><g id="g2590"><g id="g2596"><g id="g2598"><g id="g2604"><g id="g2606"><path id="path2614" class="cls-12" d="M72.64,37.57h10.6V97.79H72.64Z" transform="translate(-4.3 -4.51)"/></g></g></g></g></g></g><g class="cls-13"><g id="g2618"><g id="g2624"><g id="g2626"><g id="g2632"><g id="g2634"><path id="path2642" class="cls-14" d="M77,46.14H90.51v55.1H77Z" transform="translate(-4.3 -4.51)"/></g></g></g></g></g></g><g class="cls-15"><g id="g2646"><g id="g2652"><g id="g2654"><g id="g2660"><g id="g2662"><path id="path2670" class="cls-16" d="M85.21,27.52h34.41v72.82H85.21Z" transform="translate(-4.3 -4.51)"/></g></g></g></g></g></g><g class="cls-17"><g id="g2674"><g id="g2680"><g id="g2682"><g id="g2688"><g id="g2690"><path id="path2698" class="cls-18" d="M94.06,4.51H147.3v89.1H94.06Z" transform="translate(-4.3 -4.51)"/></g></g></g></g></g></g><g class="cls-19"><g id="g2702"><g id="g2708"><g id="g2710"><g id="g2716"><g id="g2718"><path id="path2726" class="cls-20" d="M95.15,18.23h61.73v84.18H95.15Z" transform="translate(-4.3 -4.51)"/></g></g></g></g></g></g><g class="cls-21"><g id="g2730"><g id="g2736"><g id="g2738"><g id="g2744"><g id="g2746"><path id="path2754" class="cls-22" d="M106.12,5.94H190V96.67H106.12Z" transform="translate(-4.3 -4.51)"/></g></g></g></g></g></g><g class="cls-23"><g id="g2758"><g id="g2764"><g id="g2766"><g id="g2772"><g id="g2774"><path id="path2782" class="cls-24" d="M104.59,30.71h87v76.2h-87Z" transform="translate(-4.3 -4.51)"/></g></g></g></g></g></g><g class="cls-25"><g id="g2786"><g id="g2792"><g id="g2794"><g id="g2800"><g id="g2802"><path id="path2810" class="cls-26" d="M116.65,35.4h99.07v69.38H116.65Z" transform="translate(-4.3 -4.51)"/></g></g></g></g></g></g><g class="cls-27"><g id="g2814"><g id="g2820"><g id="g2822"><g id="g2828"><g id="g2830"><path id="path2838" class="cls-28" d="M111.23,68.91h88.28v45.42H111.23Z" transform="translate(-4.3 -4.51)"/></g></g></g></g></g></g><g class="cls-29"><g id="g2842"><g id="g2848"><g id="g2850"><g id="g2856"><g id="g2858"><path id="path2866" class="cls-30" d="M122.15,89.16H211.5v28.49H122.15Z" transform="translate(-4.3 -4.51)"/></g></g></g></g></g></g><g class="cls-31"><g id="g2870"><g id="g2876"><g id="g2878"><g id="g2884"><g id="g2886"><path id="path2894" class="cls-32" d="M117.09,113.83h80v11.69h-80Z" transform="translate(-4.3 -4.51)"/></g></g></g></g></g></g><g class="cls-33"><g id="g2898"><g id="g2904"><g id="g2906"><g id="g2912"><g id="g2914"><path id="path2922" class="cls-34" d="M83.13,18.17h26.5V93.79H83.13Z" transform="translate(-4.3 -4.51)"/></g></g></g></g></g></g></svg>