<svg id="svg9498" xmlns="http://www.w3.org/2000/svg" viewBox="0 0 404.65 95"><defs><style>.cls-1{fill:#b9b9b9;}</style></defs><path id="path9291" class="cls-1" d="M73,35.84H25.45v-10H73Zm-.41,38.34H62V43.34H72.54Zm-18.09,0H43.87V43.34H54.45Zm-18,0H25.87V43.34H36.45ZM49.16,2.5A47.5,47.5,0,1,0,96.66,50,47.5,47.5,0,0,0,49.16,2.5" transform="translate(-1.66 -2.5)"/><path id="path9307" class="cls-1" d="M389.73,45.63c5,0,6,4.17,6.2,8.24H384.06C384.16,50.23,385.24,45.63,389.73,45.63Zm.64,23.42c-5.35,0-6.31-4.6-6.31-9.09h22.25c0-10.8-3.85-20.43-16.37-20.43-10.8,0-16.25,8.77-16.25,18.72,0,10.37,6.2,16.9,16.57,16.9,7.06,0,14.33-3,14.87-10.91h-9c-.65,3.21-2.46,4.81-5.78,4.81M349.3,46.7h-7.49V33.44h7.59c4.28,0,7.81,1.81,7.81,6.52s-3.53,6.74-7.91,6.74Zm8.34,3.53c6-1.71,10.48-5.35,10.48-12,0-9.31-8.66-12.41-16.69-12.41h-20V74.19h10.38V54.61h8.13c9.31,0,7.06,12.94,8.55,19.58h11.34c-5.14-9.1,1.07-21.4-12.19-24m-47.28-.86h-9c-.22-2.46-2.47-3.74-4.81-3.74-2.15,0-5.25.64-5.14,3.42.11,2.14,2.46,2.78,4.17,3.21l3.85,1C305.34,54.51,312.07,57,312.07,64c0,8.55-8.77,11.12-15.83,11.12s-13.8-3.1-14.33-10.59h9.31c.32,3,2.67,4.49,5.56,4.49,2.57,0,5.88-1.07,5.88-4.17,0-6.42-20.11-1.82-20.11-14.87,0-7.91,7.92-10.48,14.55-10.48,6.1,0,12.19,2.46,13.15,9.09l.11.75m-33.05,0h-9c-.22-2.46-2.46-3.74-4.82-3.74-2.14,0-5.24.64-5.13,3.42.1,2.14,2.46,2.78,4.17,3.21l3.85,1C272.28,54.51,279,57,279,64c0,8.55-8.77,11.12-15.83,11.12s-13.79-3.1-14.33-10.59h9.3c.32,3,2.68,4.49,5.57,4.49,2.56,0,5.88-1.07,5.88-4.17,0-6.42-20.11-1.82-20.11-14.87,0-7.91,7.91-10.48,14.55-10.48,6.09,0,12.19,2.46,13.15,9.09l.11.75M232.92,34.18h10.7V25.84h-10.7Zm.32,40h10V40.49h-10Zm-28.34,0-4.82-16c-1.07-3.53-1.71-7.06-2.46-10.59-.53,2.57-1,5.14-1.71,7.6l-.75,2.67-4.49,16.37H178.8l-11-33.7h11.34l4.71,17.65.64,2.46L185,63c.22,1.39.43,2.78.64,4.17a85.77,85.77,0,0,1,2.57-11.77l4.17-14.87h11.55L208.32,56a77.19,77.19,0,0,1,2.35,11l.32-1.93a60.94,60.94,0,0,1,2.25-9.51l4.17-15.09h10.81l-11.56,33.7H204.9m-41-34.77H154c-.1-4.7-3.53-7.38-8.13-7.38-4,0-8.55,1.5-8.55,6.21,0,10.69,28,3.64,28,21.18,0,10.8-9.31,15.72-19.15,15.72-11.23,0-20.53-4-20.43-16.26h10.59c0,5.35,2.89,9,8.56,9,4.17,0,9.73-1.5,9.73-6.53,0-11.23-27.59-3.63-27.59-21.71,0-10.7,9.94-14.87,19.14-14.87,9.74,0,17.12,4.71,17.76,14.65" transform="translate(-1.66 -2.5)"/></svg>