<svg id="layer" xmlns="http://www.w3.org/2000/svg" viewBox="0 0 600 92.6"><defs><style>.cls-1{fill:#b9b9b9;}.cls-2{fill:#9c9c9c;}.cls-3{fill:#9b9b9b;}.cls-4{fill:#fff;}</style></defs><path class="cls-1" d="M381.1,53.7h-7.5v-5h8.2a3.56,3.56,0,0,1,2.5.8,2.27,2.27,0,0,1,.7,1.8C385.2,53.7,382.6,53.7,381.1,53.7Zm7.6,5.3a7.85,7.85,0,0,0,4.6-2.5,8.67,8.67,0,0,0-1.5-12.1c-2.3-1.7-5.3-1.8-7.8-1.8H363.6V70h10V60h5.3l5.7,10h11l-6.9-11Zm-41.4,5.1a8.9,8.9,0,0,1-4,.7c-6.1,0-8.4-4.4-8.4-8.6,0-3.8,2.1-8.6,8.4-8.6,6.7.1,8.1,5.6,8.1,8.6C351.4,59,350.4,62.5,347.3,64.1Zm5.8-21a27.78,27.78,0,0,0-10.3-1.6c-4.9.1-11.5,1-15.4,6.4a14.54,14.54,0,0,0-2.6,8.6,13.12,13.12,0,0,0,2.7,8.3c2,2.7,6,6.1,15.6,6.1,5.1,0,9.5-.7,13.3-3.7a10.64,10.64,0,0,0,3.3-3.7,15,15,0,0,0,2-7.5A13.72,13.72,0,0,0,353.1,43.1Zm-56,26.8h10V60.1H323V54H307.1V48.8h17.3V42.6H297.1Z" transform="translate(-22 -9.2)"/><path class="cls-2" d="M483.5,59.5h17.8V53.3H483.6V48.8h19.2V42.7H473.7V70h29.5V63.8H483.6l-.1-4.3Zm-33.1,1-7-17.8H430.3V70H440V52.6L446.4,70h7.7l6.5-17.5V70h9.8V42.7h-13l-7,17.8Zm150.8-1,3.2-9.2,3.3,9.2ZM610,42.7H598.8L586.9,70h10.9l1.5-4.5h10.5l1.5,4.5H622L610,42.7ZM523.6,53.9h-7.4v-5h8.2a4,4,0,0,1,2.5.7,2.57,2.57,0,0,1,.7,1.8c0,2.4-2.5,2.5-4,2.5Zm12.2,2.6a8.11,8.11,0,0,0,1.8-5.1,8.68,8.68,0,0,0-3.3-6.9c-2.3-1.7-5.3-1.8-7.7-1.8H506.3V70h9.9V60.1h5.3l5.7,9.9h10.9l-6.9-10.9A8.1,8.1,0,0,0,535.8,56.5Zm-126.9,3,3.2-9.2,3.3,9.2Zm-2.5-16.8L394.5,70h10.9l1.5-4.5h10.5l1.5,4.5h10.8l-12-27.3ZM540.7,70h9.9V42.7h-9.9V70Zm38.2-9.8a5.48,5.48,0,0,1-2,2.7,8.55,8.55,0,0,1-5.6,1.8c-5.7,0-8.1-4.3-8.1-8.5,0-5.7,4-8.5,8.5-8.5a8.83,8.83,0,0,1,4.7,1.3,6.39,6.39,0,0,1,2.3,2.7l9.2-1.6c-.9-2.6-3-8.6-16.4-8.6-15.7,0-18.5,9.6-18.5,14.9,0,7.5,4.7,11.8,10.4,13.5a29,29,0,0,0,7.9,1c6,0,12.4-1.4,15.6-6.4a12.51,12.51,0,0,0,1.6-3.4l-9.6-.9ZM130.8,48.8h9.8V70h10V48.8h9.7V42.6H130.8v6.2Zm42.1,10.7h17.8V53.3H172.9V48.8h19.2V42.7H163V70h29.5V63.8H172.9Zm111-6.8H271.8v-10h-10V70h10V59.6h12.1V70h10V42.7h-10Zm-77,6.8,3.2-9.3,3.2,9.3Zm-2.6-16.8L192.5,70h10.8l1.5-4.4h10.6l1.5,4.4h10.8l-12-27.3Zm44.5,20.2a8.55,8.55,0,0,1-5.6,1.8c-5.7,0-8.1-4.3-8.1-8.5,0-5.7,4-8.5,8.4-8.5a8.93,8.93,0,0,1,4.8,1.3,6.39,6.39,0,0,1,2.3,2.7l9.2-1.6c-.9-2.6-3-8.6-16.4-8.6-15.7,0-18.5,9.6-18.5,14.9,0,7.5,4.7,11.8,10.3,13.5a26.62,26.62,0,0,0,8,1c6,0,12.4-1.4,15.6-6.4a11.29,11.29,0,0,0,1.6-3.4l-9.5-1a6.21,6.21,0,0,1-2.1,2.8Z" transform="translate(-22 -9.2)"/><path class="cls-3" d="M68.3,101.8A46.3,46.3,0,1,0,22,55.5a46.26,46.26,0,0,0,46.3,46.3" transform="translate(-22 -9.2)"/><path class="cls-4" d="M54.4,49.1H47.6V65h-7V49.1H33.8V44.5H54.4Zm25-4.6v4.7H66.3v3.9h12v4.6h-12v7.4H58.8V44.5Zm15,0h-8L77.9,65.1h7.7l1.1-3.4h7.5l1.1,3.4H103ZM88.1,57.1l2.3-6.9,2.3,6.9Z" transform="translate(-22 -9.2)"/></svg>