<svg id="Layer_1" data-name="Layer 1" xmlns="http://www.w3.org/2000/svg" viewBox="0 0 516.32 104.54"><defs><style>.cls-1{fill:#b6b6b6;}.cls-2{fill:#8c8c8c;}</style></defs><path class="cls-1" d="M402.84,54.17h-.19a.37.37,0,0,1-.37-.37h0a.48.48,0,0,1,0-.17h0a64.52,64.52,0,0,1,118.18,0h0a.36.36,0,0,1-.2.48.35.35,0,0,1-.14,0H520a36.32,36.32,0,0,0-18.05-4.37,34.2,34.2,0,0,0-20,5.67h0a.3.3,0,0,1-.23,0h-.23a38.09,38.09,0,0,0-40.06,0h0a.3.3,0,0,1-.23,0h-.2a34.2,34.2,0,0,0-20-5.67,36.34,36.34,0,0,0-18,4.4Z" transform="translate(-4.17 -14.99)"/><path class="cls-1" d="M464.75,54.59h0a.31.31,0,0,0-.28-.31h0a28,28,0,0,0-3.17-.2c-.9,0-1.8,0-2.69,0h0a.31.31,0,0,0-.29.31h0v52.79A5.44,5.44,0,0,1,447.75,109h0a3.23,3.23,0,0,0-6.14,1.9h0a11.87,11.87,0,0,0,23.17-3.71Z" transform="translate(-4.17 -14.99)"/><path class="cls-2" d="M94.12,118.82H83.33l-7-22.66H67.44l-2.5,22.66H54.2l6.35-57.66H81.66c12.52,0,18.53,3,17,17.66-1.11,10-5,14-11.9,16ZM78.37,87.06c5,0,8.5-.2,9.41-8.5s-3.12-8.1-7.82-8.1H70.27L68.43,87.2Z" transform="translate(-4.17 -14.99)"/><path class="cls-2" d="M377.17,118.82H366.29l-7-22.66h-8.84L348,118.82H337.28l6.35-57.66h21.13c12.53,0,18.51,3,17,17.66-1.07,10-5,14-11.89,16Zm-16-31.76c5,0,8.5-.2,9.43-8.5s-2.83-8.1-7.82-8.1h-9.52L351.42,87.2Z" transform="translate(-4.17 -14.99)"/><path class="cls-2" d="M151.5,61.16h11.33l7.85,42.14,16.58-42.14h11l-23.83,58h-11.1Z" transform="translate(-4.17 -14.99)"/><path class="cls-2" d="M208.17,61.16h34l-1,9.61h-23l-1.44,13.71h18.67l-1.08,9.75h-18.7l-1.73,15H237.6l-1.1,9.63H201.88Z" transform="translate(-4.17 -14.99)"/><path class="cls-2" d="M297.67,61.16h34l-1.05,9.61h-23l-1.53,13.71h18.67l-1.08,9.75H305l-1.67,15h23.86l-1.05,9.63H291.33Z" transform="translate(-4.17 -14.99)"/><path class="cls-2" d="M386.07,117.8l1.5-9.43a111.62,111.62,0,0,0,16.1,1.73c7.25,0,9.29-1.25,9.91-7.09.6-5.35-.28-6-8.5-8.64-12.92-4.16-15.83-6.29-14.53-18.27,1.27-11.51,7.22-15.59,20.31-15.59a76.51,76.51,0,0,1,15.9,1.59l-1.22,9.38a121.24,121.24,0,0,0-15.81-1.42c-5.84,0-7.79,1.5-8.33,6.15-.6,5.44.43,6,8.27,8.5,12.38,4.11,16.27,6.23,14.93,18.28-1.38,12.6-7.25,16.54-22.24,16.54A80.41,80.41,0,0,1,386.07,117.8Z" transform="translate(-4.17 -14.99)"/><path class="cls-2" d="M111.18,118.82h-11l24.79-58h10.54l11.33,58H135.55l-1.79-9.6H115.18ZM128.41,76l-9.49,24.22h13.31Z" transform="translate(-4.17 -14.99)"/><path class="cls-2" d="M285.18,109.19h-25.5l5.29-48H254l-6.21,57.66h27.29C281.15,118.82,283.82,115.28,285.18,109.19Z" transform="translate(-4.17 -14.99)"/><path class="cls-2" d="M5.21,61.16l-1,9.61H22.1l-5.3,48.17H27.85l5.22-48.11h9c6.15,0,8.82-3.54,10.15-9.67Z" transform="translate(-4.17 -14.99)"/></svg>