<svg id="layer" xmlns="http://www.w3.org/2000/svg" viewBox="0 0 334.57 105"><defs><style>.cls-1{fill:#9c9c9c;}</style></defs><path class="cls-1" d="M24.55,102.85h0a30.77,30.77,0,0,0,10.6,1.73c16,0,27-11.54,27-33.51V5.55l6.08-2.9V72.19c0,22.41-11.54,35.46-27.94,35.46A28.1,28.1,0,0,1,24.55,102.85Zm-7-6.69h0a34.58,34.58,0,0,0,10.6,2c13.38,0,22.3-8.42,22.3-27.38V10.57l6-2.85V71.29c0,19.85-10.09,30.06-24.09,30.06A25.09,25.09,0,0,1,17.58,96.16ZM13.4,90.25h0a31.78,31.78,0,0,0,8.87,1.56c10.43,0,16.84-5.68,16.84-20.68V15.59L45,12.74V70.18C45,87,37.27,94.6,26.23,94.6A20.34,20.34,0,0,1,13.4,90.25ZM33.53,72.74V17.93L7.71,29.58v44.5c0,8.48,5.36,14.16,13.22,14.16S33.53,82.45,33.53,72.74Zm67.92-54.92V38.23c0,7.52,4.46,13.43,13,13.43,7.31,0,12.83-5.4,12.83-13.6V18.32a3.92,3.92,0,0,1,3.79-4.07h.06l.78-.06V12.24H119.07v1.95l.84.06a3.92,3.92,0,0,1,3.84,4V37.45c0,6.24-3.23,10-8.3,10s-8.15-4-8.15-10.09V17.76c0-2.12,1.18-3.4,3.57-3.51l.78-.06V12.24H97v1.95l.84.06C100.28,14.47,101.45,15.64,101.45,17.82Zm17.34,43.6.84.06c2.06.11,3.57,1,3.57,3.23v12H108.75v-12c0-2.34,1.57-3.06,3.57-3.23l.78-.06v-2H98.49v2l.84.06c2.06.11,3.57,1,3.57,3.23V92.82c0,2.34-1.56,3.12-3.57,3.23l-.84.06v2H113.1v-2l-.78-.06c-2.06-.17-3.57-1-3.57-3.23V79.71h14.39V92.82c0,2.34-1.56,3.12-3.57,3.23l-.83.06v2h14.61v-2l-.78-.06c-2-.17-3.57-1-3.57-3.23V64.71c0-2.34,1.56-3.06,3.57-3.23l.78-.06v-2H118.79v2Zm13.11-37.8v1.84l1.11.05c1.67.11,2.73.95,2.73,3.24v17c0,2.28-1.17,3.12-3,3.23l-.83.06v1.89h13V49l-.78-.06c-1.89-.11-3-1-3-3.23v-9c.11-6.63,3-10.59,6.36-10.59,2.56,0,4.29,1.78,4.29,5.19V45.64c0,2.29-1.17,3.13-3,3.24l-.83,0v1.9h13v-1.9l-.78,0c-1.89-.11-3-1-3-3.24v-15c0-4.3-2.62-7.87-7.86-7.87a8.39,8.39,0,0,0-8.14,6.14v-6Zm75.33,27.82c5.58,0,8.7-3.79,10-8.08l-2.4-.67c-1.11,3-3,5.29-6.85,5.29-4.47,0-7.48-4.23-7.48-11H217.6V35.38c0-7.08-4.18-12.82-10.93-12.82-7.19,0-12,6.91-12,14.44S199.31,51.44,207.23,51.44Zm-.61-25.76c3,0,5,2.84,5.18,8.59H200.54c.56-5.3,2.79-8.59,6.08-8.59Zm-26.49,19c0,4.3,2.57,6.75,6.75,6.75,3.84,0,6.41-2.84,7.53-6.86l-2-.55c-.78,2.34-2.07,3.73-3.79,3.73-2.35,0-3.07-1.67-3.07-3.68V26.24h7.53V23.39h-7.53V14.92h-2.73c-1.06,6.41-4.3,8.7-7.7,9.42v1.95h5.08ZM168.59,18.43a3.65,3.65,0,0,0,0-7.3,3.55,3.55,0,0,0-3.52,3.56,3.52,3.52,0,0,0,3.52,3.74ZM166,28.75v17c0,2.28-1.17,3.12-3,3.23l-.84.06v1.89h13.05V49l-.78-.06c-1.89-.11-3-1-3-3.23V22.89l-9.53.73v1.84l1.39.05C165,25.51,166,26.4,166,28.75Zm65.63,22.69a7.74,7.74,0,0,0,7.64-5.07v4.51h9.2V49l-.78,0c-1.89-.11-3-1-3-3.24V11.57l-9.37.84v1.84l1.23.05c1.67.06,2.73.95,2.73,3.24v9.92a7.8,7.8,0,0,0-7.64-4.9c-7.19,0-11.32,6.91-11.32,14.44S224.41,51.44,231.65,51.44Zm.9-25.76c4.07,0,6.74,4.4,6.74,11.26s-2.62,11.27-6.74,11.27c-3.85,0-6.42-4.35-6.42-11.27S228.7,25.68,232.55,25.68Zm81.07,44.16c-3.17,0-6,2.12-7.13,5.86V70.07l-9.26.72v1.84l1.12.06c1.67.11,2.73,1,2.73,3.23v17c0,2.35-1.12,3.13-3,3.24l-.84,0v1.9h13v-1.9l-.78,0c-1.9-.11-3-1-3-3.24V83.62c.11-6.86,3.06-11.21,6.74-11.21a2.34,2.34,0,0,1,1.84.72,3,3,0,0,0-1.56,2.57,2.88,2.88,0,0,0,2.9,2.9,3,3,0,0,0,2.9-3.18A5.48,5.48,0,0,0,313.62,69.84Zm17.74-.11c-7.2,0-12,6.86-12,14.44S324,98.62,331.91,98.62c5.58,0,8.7-3.8,10-8.09l-2.4-.67c-1.12,3-3,5.3-6.86,5.3-4.46,0-7.47-4.24-7.47-11h17.12V82.56C342.29,75.48,338.1,69.73,331.36,69.73Zm-6.14,11.71c.56-5.35,2.74-8.59,6.08-8.59,3,0,5,2.85,5.19,8.59Zm-32.67,12V79.1c0-5.91-3.68-9.37-9.93-9.37-5.35,0-10.09,3.51-10.09,7.53a2.84,2.84,0,0,0,2.84,3,2.88,2.88,0,0,0,1.45-5.41,5.82,5.82,0,0,1,4.91-2.23c3.4,0,5.41,2.5,5.41,6.74v1.29L279,84c-5.47,2.23-7.31,4.23-7.31,7.8,0,4.13,3,6.75,7.64,6.75a8.3,8.3,0,0,0,7.75-5.41V94c0,2.84,2,4.52,5.3,4.52a11.93,11.93,0,0,0,3.46-.51V96.16C293.55,96.44,292.55,95.55,292.55,93.49Zm-5.41-6.25c-.28,4.85-2.68,8.09-6.08,8.09a3.84,3.84,0,0,1-4-4.19,5.32,5.32,0,0,1,3.51-5l6.53-2.9Zm-71.94,4c-.78,2.29-2,3.74-3.79,3.74-2.34,0-3.06-1.68-3.06-3.68V73.41h7.52V70.57h-7.52V62.09h-2.74c-1.06,6.42-4.29,8.7-7.69,9.43v2H203v18.4c0,4.29,2.57,6.75,6.75,6.75,3.85,0,6.41-2.85,7.53-6.86Zm-35,2.29V79.1c0-5.91-3.68-9.37-9.92-9.37-5.36,0-10.1,3.51-10.1,7.53a2.86,2.86,0,0,0,2.85,3,2.88,2.88,0,0,0,1.45-5.41,5.8,5.8,0,0,1,4.9-2.23c3.41,0,5.41,2.5,5.41,6.74v1.29L166.69,84c-5.46,2.23-7.3,4.23-7.3,7.8,0,4.13,3,6.75,7.64,6.75a8.32,8.32,0,0,0,7.75-5.41V94c0,2.84,2,4.52,5.29,4.52a11.83,11.83,0,0,0,3.46-.51V96.16C181.3,96.44,180.24,95.55,180.24,93.49Zm-5.35-6.25c-.28,4.85-2.68,8.09-6.08,8.09a3.84,3.84,0,0,1-4-4.19,5.32,5.32,0,0,1,3.51-5l6.53-2.9Zm85.87,7.86c-4.46,0-7.47-4.23-7.47-11s3-11.21,7.42-11.21a5.34,5.34,0,0,1,4.46,1.9,3.05,3.05,0,0,0-1.4,2.51,2.89,2.89,0,0,0,2.9,2.9,3,3,0,0,0,2.9-3.18c0-3.29-3.29-7.36-9.2-7.36-8.2,0-12.94,6.85-12.94,14.44S252.06,98.56,260,98.56c5.47,0,8.53-3.62,9.76-7.75l-2.4-.73C266.34,92.93,264.5,95.1,260.76,95.1Zm-66.58-2.23V58.8l-9.37.78v1.84l1.23.06c1.67.05,2.73,1,2.73,3.23V92.87c0,2.35-1.17,3.13-3,3.24l-.83,0v1.9h13V96.22l-.78-.06C195.35,96,194.18,95.16,194.18,92.87Zm48.29,0V77.82c0-4.3-2.62-7.87-7.86-7.87a8.34,8.34,0,0,0-8.14,6.14V58.8l-9.37.78v1.84l1.23.06c1.67.05,2.73,1,2.73,3.23V92.87c0,2.35-1.17,3.13-3,3.24l-.84,0v1.9h13V96.22l-.78-.06c-1.89-.11-3-.94-3-3.23v-9c.11-6.58,3-10.6,6.36-10.6,2.56,0,4.29,1.78,4.29,5.19V92.93c0,2.34-1.17,3.12-3,3.23l-.83.06v1.89h13V96.22l-.78-.06C243.59,96,242.47,95.16,242.47,92.87Zm-96-23.14c-7.19,0-12,6.92-12,14.44S139.09,98.62,147,98.62c5.57,0,8.7-3.8,10-8.09l-2.4-.67c-1.11,3-3,5.3-6.86,5.3-4.46,0-7.47-4.24-7.47-11h17.12V82.56C157.38,75.48,153.14,69.73,146.45,69.73Zm-6.13,11.71c.55-5.35,2.73-8.59,6.07-8.59,3,0,5,2.85,5.19,8.59Z" transform="translate(-7.71 -2.65)"/></svg>