<svg id="layer" xmlns="http://www.w3.org/2000/svg" xmlns:xlink="http://www.w3.org/1999/xlink" viewBox="0 0 360.9 90"><defs><style>.cls-1{fill:none;}.cls-2{fill:#a7a7a7;}.cls-3{clip-path:url(#clip-path);}</style><clipPath id="clip-path" transform="translate(-15.95 -18)"><line class="cls-1" x1="66.6" y1="79.06" x2="66.6" y2="79.3"/></clipPath></defs><path class="cls-2" d="M116.72,49.58V98.19h36V86.82h-23.7V78.46h21.42V67.21H129.05V61h23V49.64C152,49.58,116.72,49.58,116.72,49.58Zm67.26,0V74.73c-4.46-7.52-14.62-25.15-14.62-25.15H158.23V98.19H170V73.77c4.45,7.4,14.5,24.42,14.5,24.42h11.61V49.58Zm18.53,0V98.19h36V86.82h-23.7V78.46h21.42V67.21H214.84V61h23V49.64C237.82,49.58,202.51,49.58,202.51,49.58Zm77.84,37a42.74,42.74,0,0,0-5.17-7.52l-1.8-1.8A12,12,0,0,0,279,73.53,14.69,14.69,0,0,0,282.28,64a16.71,16.71,0,0,0-2-8.12,12.66,12.66,0,0,0-5.71-5.17c-2.17-.85-5.66-1.45-10.65-1.45h-20V97.83h12.33V79.06a12.74,12.74,0,0,1,3.61.36,6.18,6.18,0,0,1,1.92,1.45c.61.6,1.69,2,4.46,6.31l6.67,10.65h14.38l-6.92-11.25ZM269.34,67a2.11,2.11,0,0,1-1.56,1.08c-.36.12-1.92.61-7,.61h-4.45V60.89h4.81c4.45,0,5.66.12,6,.12a3.41,3.41,0,0,1,2,1.09,3.88,3.88,0,0,1,.73,2.52A3.46,3.46,0,0,1,269.34,67Zm29.54-15.7a21.62,21.62,0,0,0-9,9.2,29.22,29.22,0,0,0-3,13.3,29.54,29.54,0,0,0,2.65,12.69,22.3,22.3,0,0,0,8.12,9.33A25.55,25.55,0,0,0,310.37,99a29.5,29.5,0,0,0,11-2.17,25.13,25.13,0,0,0,8.37-5.29l.6-.61V70.4H308.09V81.77h9.8v2.89a13.66,13.66,0,0,1-3.49,1.92,14.19,14.19,0,0,1-4.69,1,8.82,8.82,0,0,1-7.4-3.37c-1.92-2.41-3-6-3-10.77,0-4.45,1-7.88,2.89-9.93a10,10,0,0,1,7.52-3.13,9.05,9.05,0,0,1,5.18,1.57,7.36,7.36,0,0,1,2.76,4.33l.6,1.68,12.1-2.52L330,63.48a17.79,17.79,0,0,0-6.44-10.65C320.18,50.19,315.67,49,310,49a21.15,21.15,0,0,0-11.13,2.29Zm63.89-1.69s-6.55,11.86-8.84,16c-2.17-4-9-16-9-16h-14.5S347,77,347.43,77.8V98h12.34V77.92c.6-.84,17.08-28.46,17.08-28.46Z" transform="translate(-15.95 -18)"/><path class="cls-2" d="M116.72,27.08h2.89v7a8.68,8.68,0,0,0,.12,2.17,1.52,1.52,0,0,0,.84,1.2,3.32,3.32,0,0,0,1.92.6,2.49,2.49,0,0,0,1.93-.6,2.83,2.83,0,0,0,.72-1.08,11.08,11.08,0,0,0,.12-2.17V27.08h2.89V34a18.24,18.24,0,0,1-.24,3.37,3.26,3.26,0,0,1-.84,1.69c-.37.6-1,.72-1.69,1.08a9.08,9.08,0,0,1-2.77.36,10.15,10.15,0,0,1-3.13-.36,5,5,0,0,1-1.68-1.08,4.68,4.68,0,0,1-.72-1.57,21.65,21.65,0,0,1-.24-3.37l-.12-7Zm15.46,13.18V37.73H135v2.53Zm6.07-4.33,2.77-.24a3.61,3.61,0,0,0,1,1.92,3.78,3.78,0,0,0,2.05.6,2.65,2.65,0,0,0,2.05-.6,1.23,1.23,0,0,0,.72-1.2,1.29,1.29,0,0,0-.24-.72,6.32,6.32,0,0,0-1-.6c-.36-.12-1.08-.25-2.16-.61a8.69,8.69,0,0,1-3.25-1.2,3.41,3.41,0,0,1-1.2-2.65,4.41,4.41,0,0,1,.6-1.92,4.63,4.63,0,0,1,1.8-1.45,8.68,8.68,0,0,1,2.77-.6,6,6,0,0,1,4,1.09,4,4,0,0,1,1.45,2.88l-2.89.12a3.72,3.72,0,0,0-.72-1.56,3.23,3.23,0,0,0-1.81-.6,2.33,2.33,0,0,0-1.92.6c-.25.24-.61.6-.61.84a.86.86,0,0,0,.36.72,7.38,7.38,0,0,0,2.65.85,8.7,8.7,0,0,1,3,1A4.4,4.4,0,0,1,149.2,34a3.73,3.73,0,0,1,0,4.09,8.16,8.16,0,0,1-1.92,1.57,8.08,8.08,0,0,1-3.13.6,7.29,7.29,0,0,1-4.21-1.08A4.58,4.58,0,0,1,138.25,35.93Zm15.23,4.33V37.73h2.76v2.53Zm13.65-13.18h5.3a14.15,14.15,0,0,1,2.64.24,3.94,3.94,0,0,1,2.05,1.21,8.82,8.82,0,0,1,1.44,2,11.23,11.23,0,0,1,.6,3.13,9.69,9.69,0,0,1-.36,2.77,5.67,5.67,0,0,1-1.56,2.41,3.65,3.65,0,0,1-1.93,1,7.8,7.8,0,0,1-2.52.24h-5.42V27.14h-.24ZM170,29.37v8.72h2a7.46,7.46,0,0,0,1.81-.12,1.38,1.38,0,0,0,1.08-.6,2.28,2.28,0,0,0,.72-1.2,6.83,6.83,0,0,0,.25-2.41,12.28,12.28,0,0,0-.25-2.4,7.38,7.38,0,0,0-.72-1.21,2.29,2.29,0,0,0-1.44-.6,10.55,10.55,0,0,0-2.41-.12A6.52,6.52,0,0,1,170,29.37Zm12.69,10.89V27.08h10.29v2.17h-7.52v2.89h7V34.3h-7v3.61h7.88v2.17H182.65v.18Zm14.5,0V27.08h4.45a16.29,16.29,0,0,1,3.37.24,3.63,3.63,0,0,1,1.93,1.21,3.69,3.69,0,0,1,.84,2.65,2.48,2.48,0,0,1-.6,1.92,2.34,2.34,0,0,1-1.2,1.2,2.9,2.9,0,0,1-1.57.61,19.67,19.67,0,0,1-3,.12h-1.92v5h-2.65v.24h.36Zm2.77-10.89V33.1h1.56a6.91,6.91,0,0,0,2.17-.24,2.15,2.15,0,0,0,.84-.6,1.36,1.36,0,0,0,.36-1c0-.61-.12-.85-.6-1.09a1.62,1.62,0,0,0-1.08-.6c-.36,0-1-.12-1.93-.12C201.24,29.37,199.92,29.37,199.92,29.37Zm23,10.89h-3.13l-1.2-3h-5.66l-1,3h-3l5.54-13.06h3ZM217.61,35l-1.93-4.82L213.76,35Zm8.12,5.29V27.08h6a9.57,9.57,0,0,1,3.25.37,4,4,0,0,1,1.69,1.2,3.72,3.72,0,0,1,.6,2,3.78,3.78,0,0,1-.84,2.53,5.43,5.43,0,0,1-2.77,1.2,17.55,17.55,0,0,1,1.56,1.09c.36.36.85,1.08,1.69,2l1.8,2.65h-3.37l-1.92-2.89a10.52,10.52,0,0,0-1.57-1.92c-.24-.24-.6-.61-.84-.61a4.57,4.57,0,0,0-1.56-.12h-.6v5.66h-3.07Zm2.77-7.64h2a11.28,11.28,0,0,0,2.53-.12c.36-.12.6-.24.72-.6a1.31,1.31,0,0,0,.24-1,1.47,1.47,0,0,0-.36-1.08,1.62,1.62,0,0,0-1.08-.6h-4.21l.12,3.37Zm15.82,7.64V29.37h-4.21V27.2h11v2.17H246.9V40.26Zm10.29,0V27.08h4.33l2.52,9,2.53-9h4.33V40.14h-2.71V29.85l-2.76,10.29h-2.77l-2.77-10.29V40.14h-2.64l-.06.12Zm17.68,0V27.08h10.29v2.17h-7.52v2.89h7V34.3h-7v3.61h7.88v2.17H272.29v.18Zm14.38,0V27.08h2.77l5.65,8.85V27.08h2.65V40.14h-2.89l-5.65-8.48v8.48h-2.53Zm18.77,0V29.37h-4.21V27.2h11v2.17H308V40.26Zm16.42-6.44a8.49,8.49,0,0,1,.61-3.37,15.63,15.63,0,0,1,1.2-1.8,3.38,3.38,0,0,1,1.92-1.08,7.77,7.77,0,0,1,3-.61,7.26,7.26,0,0,1,5.06,1.81,6.9,6.9,0,0,1,1.92,5.05,6.65,6.65,0,0,1-1.92,5.06,6.86,6.86,0,0,1-5.06,1.8,7,7,0,0,1-5.05-1.8A8.81,8.81,0,0,1,321.86,33.82Zm3-.12A4.49,4.49,0,0,0,326,37.07a3.89,3.89,0,0,0,2.88,1.08,3.81,3.81,0,0,0,2.77-1.08,4.85,4.85,0,0,0,1.08-3.49,4.55,4.55,0,0,0-1.08-3.37,3.9,3.9,0,0,0-2.89-1.08,4.3,4.3,0,0,0-2.88,1.08A5.19,5.19,0,0,0,324.87,33.7ZM339,40.26V27.08h9.57v2.17H341.6v3.13h5.71v2.16H341.6V40.2C341.72,40.26,339,40.26,339,40.26Z" transform="translate(-15.95 -18)"/><path class="cls-2" d="M61.19,108a45,45,0,1,1,45.24-45A45.13,45.13,0,0,1,61.19,108Zm0-88.44A43.44,43.44,0,1,0,104.87,63,43.55,43.55,0,0,0,61.19,19.56Z" transform="translate(-15.95 -18)"/><path class="cls-2" d="M61.31,97.35h-.24A34.1,34.1,0,0,1,27.2,62.76,34.09,34.09,0,0,1,61.43,28.53,34.11,34.11,0,0,1,95.3,63.12a34.09,34.09,0,0,1-34,34.23Zm0-67.26a31.9,31.9,0,0,0-23,9.57,33.25,33.25,0,0,0-.24,46.68,32.71,32.71,0,0,0,23.22,9.81h.24a31.9,31.9,0,0,0,23-9.57,33,33,0,0,0-23-56.37C61.43,30.09,61.43,30.09,61.31,30.09ZM26,55.48c-.12.72-.37.6-.85.6l-3.61-.72c-.6-.12-.72-.12-.6-.72.24-1.09.84-1.69,2.77-1.21,1.92.25,2.53,1.21,2.29,2l.24.12a6.34,6.34,0,0,0,.12-1.44A2.69,2.69,0,0,0,24.19,52a3,3,0,0,0-3.13,1.08,11.38,11.38,0,0,0-.6,1.21L19.86,57h.3a.84.84,0,0,1,1-.6l3.73.72c.6.12.6.37.6.85h.24l.61-2.77C26.24,55.24,26,55.48,26,55.48Z" transform="translate(-15.95 -18)"/><path class="cls-2" d="M25.63,58.43l-.36-.12v-.12c.12-.6,0-.72-.6-.72l-3.73-.73c-.6-.12-.6,0-.72.6v.13l-.36-.13v-.12l.6-2.76c.12-.6.24-1,.6-1.21a2.93,2.93,0,0,1,3.13-1.2,2.57,2.57,0,0,1,2.17,2.41,2.83,2.83,0,0,1-.12,1.44V56C26.24,56.08,25.63,58.43,25.63,58.43Zm-.24-.24L26,55.66h-.12c-.13.6-.37.6-1,.6l-3.61-.84c-.24-.12-.6-.12-.6-.24s-.12-.24,0-.6c.24-1.21,1.08-1.81,2.89-1.45S26.24,54.22,26,55.3h.12a4.08,4.08,0,0,0,.12-1.2,2.56,2.56,0,0,0-2-2.17,2.81,2.81,0,0,0-3,1.08,11.38,11.38,0,0,0-.6,1.21L20,56.86h.18c.12-.6.36-.72,1-.6l3.73.72C25.39,57.34,25.51,57.47,25.39,58.19Zm-2.76-5a1.47,1.47,0,0,0-1.69,1.45v.6c.12.12.24.12.6.24l3.61.72c.6.12.6.12.73-.6s0-1.68-2.17-2.05A1.6,1.6,0,0,0,22.63,53.19Zm4-.36c.24-.6.12-.72-.36-1l-3.61-1.44c-.61-.24-.73-.12-1,.6l-.24-.12,1.69-4.45h1.68v.24a2.72,2.72,0,0,0-1.92,1.68c-.24.6,0,.72.6,1L25,50v-.13a1.32,1.32,0,0,0-.36-1.68l.12-.24,2.05.72-.36.12c-1.09-.12-1.21.24-1.57,1.08l1.69.61c.36.12.72.24,1-.24a3.27,3.27,0,0,0-.36-2.77l.12-.12,1.08,1.08-1.68,4.33H26.6Z" transform="translate(-15.95 -18)"/><path class="cls-2" d="M26.84,53l-.36-.12v-.12c.12-.24.12-.6,0-.6s-.24-.24-.36-.24l-3.61-1.44a.56.56,0,0,0-.61,0c-.12,0-.24.24-.36.6h-.36v-.12l1.69-4.69h1.68v.36a2.51,2.51,0,0,0-1.92,1.68c-.24.6-.12.6.6.84l1.56.6v-.12a1.32,1.32,0,0,0-.36-1.68l.12-.36,2.41.84-.36.24h-.12c-.73-.12-1.09.24-1.45.84v.36l1.57.61c.6.12.6.24.84-.24a3.84,3.84,0,0,0-.36-2.77l.24-.24,1.2,1.08Zm-.24-.24,1.8-4.45-1.08-1-.12.12a2.89,2.89,0,0,1,.24,2.77c-.24.6-.6.6-1,.36l-1.69-.73.12-.24a1.23,1.23,0,0,1,1.57-1V48.5l-1.93-.72v.12c.6.6.6,1,.36,1.8l-.24.12-1.56-.6c-.6-.24-.84-.36-.6-1.08a3,3,0,0,1,1.92-1.68v-.12H23L21.3,50.79h.12c.12-.24.24-.36.36-.6s.37,0,.61,0L26,51.63c.24.12.6.24.6.36C26.84,52.35,26.6,52.35,26.6,52.71Z" transform="translate(-15.95 -18)"/><path class="cls-2" d="M26.6,52.83c.24-.6.12-.72-.36-1l-3.61-1.44c-.61-.24-.73-.12-1,.6l-.24-.12,1.69-4.45h1.68v.24a2.72,2.72,0,0,0-1.92,1.68c-.24.6,0,.72.6,1L25,50v-.13a1.32,1.32,0,0,0-.36-1.68l.12-.24,2.05.72-.36.12c-1.09-.12-1.21.24-1.57,1.08l1.69.61c.36.12.72.24,1-.24a3.27,3.27,0,0,0-.36-2.77l.12-.12,1.08,1.08-1.68,4.33H26.6Z" transform="translate(-15.95 -18)"/><path class="cls-2" d="M26.84,53l-.36-.12v-.12c.12-.24.12-.6,0-.6s-.24-.24-.36-.24l-3.61-1.44a.56.56,0,0,0-.61,0c-.12,0-.24.24-.36.6h-.36v-.12l1.69-4.69h1.68v.36a2.51,2.51,0,0,0-1.92,1.68c-.24.6-.12.6.6.84l1.56.6v-.12a1.32,1.32,0,0,0-.36-1.68l.12-.36,2.41.84-.36.24h-.12c-.73-.12-1.09.24-1.45.84v.36l1.57.61c.6.12.6.24.84-.24a3.84,3.84,0,0,0-.36-2.77l.24-.24,1.2,1.08Zm-.24-.24,1.8-4.45-1.08-1-.12.12a2.89,2.89,0,0,1,.24,2.77c-.24.6-.6.6-1,.36l-1.69-.73.12-.24a1.23,1.23,0,0,1,1.57-1V48.5l-1.93-.72v.12c.6.6.6,1,.36,1.8l-.24.12-1.56-.6c-.6-.24-.84-.36-.6-1.08a3,3,0,0,1,1.92-1.68v-.12H23L21.3,50.79h.12c.12-.24.24-.36.36-.6s.37,0,.61,0L26,51.63c.24.12.6.24.6.36C26.84,52.35,26.6,52.35,26.6,52.71Zm3.25-11.49-1.57-2.16,2.53.84-1,1.32.24.36,1.2-1.68.72.36c.12,0,.24.12.36.24s.24.24-.12.72l.24.12,1.69-2.16-.24-.12c-.6.6-.85.36-1.45.24L27.8,37.61l-.36,1.09,2.41,3.73a1.72,1.72,0,0,1,.36,1.68l.24.12,1.2-1.8h-.12c-.24.24-.72.6-1,.24l-.6-.61v-.6Z" transform="translate(-15.95 -18)"/><path class="cls-2" d="M30.57,44.35l-.24-.24c.24-.6,0-1-.36-1.68L27.44,38.7l.36-1.21,4.81,1.81c.6.12.85.24,1.21-.24v-.12l.36.24-1.57,2.28-.36-.24V41.1c.36-.6.24-.6.12-.6.12,0-.12-.12-.24-.12l-.84-.24L30.21,41.7l.24.36a2.72,2.72,0,0,1,.36.61.49.49,0,0,0,.72-.24l.36.24ZM30.45,44l1.2-1.56h-.12a.73.73,0,0,1-1,.12,1,1,0,0,1-.36-.61l-.12-.24-.24-.6-1.69-2.53,2.89,1L30,41.1l.12.24,1.08-1.68,1,.36c.12,0,.24.12.6.24s.24.36,0,.72h.12l1.69-2h-.12c-.36.6-.84.36-1.45.24h-.12l-4.57-1.69-.36,1,2.41,3.61C30.45,42.91,30.69,43.39,30.45,44ZM28.4,39.18l1.21,1.92.84-1.2Z" transform="translate(-15.95 -18)"/><path class="cls-2" d="M29.85,41.22l-1.57-2.16,2.53.84-1,1.32.24.36,1.2-1.68.72.36c.12,0,.24.12.36.24s.24.24-.12.72l.24.12,1.69-2.16-.24-.12c-.6.6-.85.36-1.45.24L27.8,37.61l-.36,1.09,2.41,3.73a1.72,1.72,0,0,1,.36,1.68l.24.12,1.2-1.8h-.12c-.24.24-.72.6-1,.24l-.6-.61v-.6Z" transform="translate(-15.95 -18)"/><path class="cls-2" d="M30.57,44.35l-.24-.24c.24-.6,0-1-.36-1.68L27.44,38.7l.36-1.21,4.81,1.81c.6.12.85.24,1.21-.24v-.12l.36.24-1.57,2.28-.36-.24V41.1c.36-.6.24-.6.12-.6.12,0-.12-.12-.24-.12l-.84-.24L30.21,41.7l.24.36a2.72,2.72,0,0,1,.36.61.49.49,0,0,0,.72-.24l.36.24ZM30.45,44l1.2-1.56h-.12a.73.73,0,0,1-1,.12,1,1,0,0,1-.36-.61l-.12-.24-.24-.6-1.69-2.53,2.89,1L30,41.1l.12.24,1.08-1.68,1,.36c.12,0,.24.12.6.24s.24.36,0,.72h.12l1.69-2h-.12c-.36.6-.84.36-1.45.24h-.12l-4.57-1.69-.36,1,2.41,3.61C30.45,42.91,30.69,43.39,30.45,44ZM28.4,39.18l1.21,1.92.84-1.2ZM21.6,65.05c-1.56.12-1.92.6-1.8,1.56a1.54,1.54,0,0,0,1.92,1.44l2.77-.24c.6,0,.72-.24.6-.84h.24l.12,1.93h-.12c0-.61-.24-.73-.72-.73l-2.89.24c-1.44.12-2-.36-2.16-1.92s.6-2.41,1.8-2.53l3-.24c.6,0,.72-.24.6-.84h.24l.24,2.89h-.24c0-.6-.24-.72-.72-.72Z" transform="translate(-15.95 -18)"/><path class="cls-2" d="M25.27,69c0-.61-.24-.73-.72-.73l-2.89.24a2,2,0,0,1-2.4-1.92c-.12-1.69.6-2.53,1.92-2.65l3-.24c.24,0,.36-.12.6-.12s.12-.24.12-.6v-.12h.36l.24,3h-.36v-.12a2.44,2.44,0,0,0-.12-.6c-.12-.12-.24-.12-.6-.12l-2.77.24a2.07,2.07,0,0,0-1.56.6,2.22,2.22,0,0,0-.24.84c.12,1,.6,1.44,1.92,1.2l2.77-.24c.24,0,.36-.12.6-.12s.12-.24.12-.6v-.12h.36L26,69Zm-.6-.79c.6,0,.6.24.72.73h.12l-.12-1.81h-.12c0,.24,0,.6-.12.6s-.12.36-.48.48l-2.89.12c-1.56,0-2-.6-2.16-1.68,0-.6,0-.72.24-1s.72-.6,1.68-.6l2.77-.25c.24,0,.6,0,.6.13a.71.71,0,0,1,.24.6h.12L25,63h-.12c0,.24,0,.6-.12.6s-.24.24-.6.24l-3,.12c-1.2.12-1.8,1-1.68,2.53s.72,1.92,2.16,1.92l3-.24ZM23,75l2.64-.72c.61-.12,1-.36.85-1.08l.24-.12.6,2-.24.24c-.36-.72-.6-.72-1.45-.6L21.3,75.81l-.24-.72,3.49-4.33-2.89,1c-.84.24-1,.36-.84,1.21l-.24.12L20,71l.24-.12c.36.72.6.72,1.2.6l3.49-1a1.29,1.29,0,0,0,.24-1l.24-.12L26,71.36Z" transform="translate(-15.95 -18)"/><path class="cls-2" d="M21.48,76.05l-.24-.84L24.73,71,22,71.72c-.84.24-.84.36-.84,1.09v.12l-.36.12-.6-2.41.36-.12v.12a.9.9,0,0,0,1.2.6l3.49-1a2.26,2.26,0,0,0,.24-1V69.2l.37-.12.6,2-3,3.61,2.41-.6c.6-.12.84-.36.72-1v-.12l.36-.12.6,2.16-.48.36v-.12c-.24-.6-.6-.6-1.2-.6Zm0-.72.12.6,4.34-1.08a1,1,0,0,1,1.44.36h.12l-.6-1.92h-.12c.12.72-.24,1-1,1.08l-2.89.84,3.37-4-.61-1.92h-.12a2.26,2.26,0,0,1-.24,1l-3.61,1.2a1.13,1.13,0,0,1-1.44-.6h-.12l.6,1.93h.12c0-.85.12-1,1-1.21l3.25-.84C25,70.76,21.48,75.33,21.48,75.33Z" transform="translate(-15.95 -18)"/><path class="cls-2" d="M23,75l2.64-.72c.61-.12,1-.36.85-1.08l.24-.12.6,2-.24.24c-.36-.72-.6-.72-1.45-.6L21.3,75.81l-.24-.72,3.49-4.33-2.89,1c-.84.24-1,.36-.84,1.21l-.24.12L20,71l.24-.12c.36.72.6.72,1.2.6l3.49-1a1.29,1.29,0,0,0,.24-1l.24-.12L26,71.36Z" transform="translate(-15.95 -18)"/><path class="cls-2" d="M21.48,76.05l-.24-.84L24.73,71,22,71.72c-.84.24-.84.36-.84,1.09v.12l-.36.12-.6-2.41.36-.12v.12a.9.9,0,0,0,1.2.6l3.49-1a2.26,2.26,0,0,0,.24-1V69.2l.37-.12.6,2-3,3.61,2.41-.6c.6-.12.84-.36.72-1v-.12l.36-.12.6,2.16-.48.36v-.12c-.24-.6-.6-.6-1.2-.6Zm0-.72.12.6,4.34-1.08a1,1,0,0,1,1.44.36h.12l-.6-1.92h-.12c.12.72-.24,1-1,1.08l-2.89.84,3.37-4-.61-1.92h-.12a2.26,2.26,0,0,1-.24,1l-3.61,1.2a1.13,1.13,0,0,1-1.44-.6h-.12l.6,1.93h.12c0-.85.12-1,1-1.21l3.25-.84C25,70.76,21.48,75.33,21.48,75.33ZM27,76.78c.6-.24.6-.6.36-1l.24-.12,1.08,2.65-.24.12c-.24-.6-.6-.6-1-.36L24,79.66c-.6.25-.6.61-.36,1l-.24.12L22.27,78.1l.24-.12c.24.6.6.6,1,.36Z" transform="translate(-15.95 -18)"/><path class="cls-2" d="M23.35,80.81,22.15,78l.36-.12V78c.12.24.24.36.36.6a1.61,1.61,0,0,0,.6-.12L27,77q.36-.18.36-.36A1.68,1.68,0,0,0,27.2,76v-.12l.36-.12,1.2,2.77-.36.12v-.12c-.12-.24-.24-.36-.36-.6a1.61,1.61,0,0,0-.6.12L24,79.6c-.6.24-.6.37-.36.85Zm-1-2.71,1.08,2.53h.12c-.24-.6-.12-.72.6-1l3.49-1.56a1.61,1.61,0,0,1,.6-.12,1.69,1.69,0,0,1,.36.6h.12l-1.08-2.53h-.12c.12.25.12.61,0,.61A1.28,1.28,0,0,1,27,77l-3.49,1.56a1.61,1.61,0,0,1-.6.12A2.11,2.11,0,0,1,22.39,78.1Z" transform="translate(-15.95 -18)"/><path class="cls-2" d="M27,76.78c.6-.24.6-.6.36-1l.24-.12,1.08,2.65-.24.12c-.24-.6-.6-.6-1-.36L24,79.66c-.6.25-.6.61-.36,1l-.24.12L22.27,78.1l.24-.12c.24.6.6.6,1,.36Z" transform="translate(-15.95 -18)"/><path class="cls-2" d="M23.35,80.81,22.15,78l.36-.12V78c.12.24.24.36.36.6a1.61,1.61,0,0,0,.6-.12L27,77q.36-.18.36-.36A1.68,1.68,0,0,0,27.2,76v-.12l.36-.12,1.2,2.77-.36.12v-.12c-.12-.24-.24-.36-.36-.6a1.61,1.61,0,0,0-.6.12L24,79.6c-.6.24-.6.37-.36.85Zm-1-2.71,1.08,2.53h.12c-.24-.6-.12-.72.6-1l3.49-1.56a1.61,1.61,0,0,1,.6-.12,1.69,1.69,0,0,1,.36.6h.12l-1.08-2.53h-.12c.12.25.12.61,0,.61A1.28,1.28,0,0,1,27,77l-3.49,1.56a1.61,1.61,0,0,1-.6.12A2.11,2.11,0,0,1,22.39,78.1Zm9,4.75-1.08,1.09L30,83.82a2.39,2.39,0,0,0,.24-2.17l-3.85,2.17c-.61.24-.61.6-.24,1l-.24.12-1.45-2.53.24-.12c.24.6.6.6,1,.24l3.85-2.16a3,3,0,0,0-2-.85l-.12-.24,1.68-.6C29,78.7,31.41,82.85,31.41,82.85Z" transform="translate(-15.95 -18)"/><path class="cls-2" d="M25.63,85.14l-1.56-2.65.36-.24v.12q.18.36.36.36a1.61,1.61,0,0,0,.6-.12l3.85-2.16a2.73,2.73,0,0,0-1.92-.73l-.12-.36,1.8-.6,2.53,4.33-1.2,1.21L30,83.94c.36-.61.6-1.57.24-2l-3.85,2a.63.63,0,0,0-.12,1V85Zm-1.2-2.65,1.45,2.41H26c-.25-.6-.12-.72.36-1.08l4-2.41v.12a2.9,2.9,0,0,1-.24,2.41l.12.12,1-1.09-2.41-4-1.44.36a2.37,2.37,0,0,1,2,1v.12h-.12l-3.85,2.16c-.24.12-.6.24-.6.12C24.79,82.85,24.67,82.73,24.43,82.49Zm9,11.13c-.61-.6-.37-.6,0-1l2.52-2.77c.36-.36.6-.6,1-.12.85.72,1,1.69-.24,3-1.44,1.56-2.52,1.56-3.24.84l-.13.24a2.82,2.82,0,0,0,4.22-.12,3,3,0,0,0,.6-3.25c-.24-.36-.6-.72-.84-1.08l-2-1.92-.12.24c.36.36.6.6.12,1.08L32.55,91.7c-.36.36-.6.36-1.08,0l-.12.24,1.92,1.92Z" transform="translate(-15.95 -18)"/><path class="cls-2" d="M35.32,94.82a2.64,2.64,0,0,1-1-.12c-.6-.12-.84-.6-1.09-.72v-.12l-2-1.92.24-.36h.12c.24.12.36.24.6.24s.24-.12.6-.24l2.53-2.89c.12-.24.24-.36.24-.6s-.12-.24-.36-.6h-.36l.24-.37,2.05,1.93A3.31,3.31,0,0,1,38,90.13a2.8,2.8,0,0,1-.6,3.37A2,2,0,0,1,35.32,94.82ZM33.4,93.74a2.44,2.44,0,0,0,1.08.72,2.9,2.9,0,0,0,3-.72,3,3,0,0,0,.6-3.13c-.12-.36-.6-.6-.84-1l-1.93-1.8-.24.24a.66.66,0,0,1,.24.6c0,.24-.12.36-.24.6l-2.53,2.77c-.24.24-.36.36-.6.36a2,2,0,0,1-.6-.24v.12l1.92,1.8v-.36a.62.62,0,0,1-.24-.48,1.07,1.07,0,0,1,.37-.6l2.52-2.77c.24-.24.36-.36.6-.36s.24.12.61.24a1.67,1.67,0,0,1,.6,1.2,2.64,2.64,0,0,1-1,1.93,3.75,3.75,0,0,1-2,1.44,3.37,3.37,0,0,1-1.32-.6Zm.12-.12a1.6,1.6,0,0,0,1,.36h.12c.6,0,1.2-.6,1.92-1.44a2.62,2.62,0,0,0,.85-1.93,1.63,1.63,0,0,0-.61-1.08c-.12-.12-.24-.24-.36-.24s-.24.12-.36.36l-2.4,2.77c-.12.24-.24.36-.37.6s0,.36.25.6Z" transform="translate(-15.95 -18)"/><path class="cls-2" d="M33.4,93.62c-.61-.6-.37-.6,0-1l2.52-2.77c.36-.36.6-.6,1-.12.85.72,1,1.69-.24,3-1.44,1.56-2.52,1.56-3.24.84l-.13.24a2.82,2.82,0,0,0,4.22-.12,3,3,0,0,0,.6-3.25c-.24-.36-.6-.72-.84-1.08l-2-1.92-.12.24c.36.36.6.6.12,1.08L32.55,91.7c-.36.36-.6.36-1.08,0l-.12.24,1.92,1.92Z" transform="translate(-15.95 -18)"/><path class="cls-2" d="M35.32,94.82a2.64,2.64,0,0,1-1-.12c-.6-.12-.84-.6-1.09-.72v-.12l-2-1.92.24-.36h.12c.24.12.36.24.6.24s.24-.12.6-.24l2.53-2.89c.12-.24.24-.36.24-.6s-.12-.24-.36-.6h-.36l.24-.37,2.05,1.93A3.31,3.31,0,0,1,38,90.13a2.8,2.8,0,0,1-.6,3.37A2,2,0,0,1,35.32,94.82ZM33.4,93.74a2.44,2.44,0,0,0,1.08.72,2.9,2.9,0,0,0,3-.72,3,3,0,0,0,.6-3.13c-.12-.36-.6-.6-.84-1l-1.93-1.8-.24.24a.66.66,0,0,1,.24.6c0,.24-.12.36-.24.6l-2.53,2.77c-.24.24-.36.36-.6.36a2,2,0,0,1-.6-.24v.12l1.92,1.8v-.36a.62.62,0,0,1-.24-.48,1.07,1.07,0,0,1,.37-.6l2.52-2.77c.24-.24.36-.36.6-.36s.24.12.61.24a1.67,1.67,0,0,1,.6,1.2,2.64,2.64,0,0,1-1,1.93,3.75,3.75,0,0,1-2,1.44,3.37,3.37,0,0,1-1.32-.6Zm.12-.12a1.6,1.6,0,0,0,1,.36h.12c.6,0,1.2-.6,1.92-1.44a2.62,2.62,0,0,0,.85-1.93,1.63,1.63,0,0,0-.61-1.08c-.12-.12-.24-.24-.36-.24s-.24.12-.36.36l-2.4,2.77c-.12.24-.24.36-.37.6s0,.36.25.6Zm15.46,3-.24,1.68H48.5c-.25-.72-.61-1.8-1.21-1.92l-1.92,4.21c-.24.6-.12.72.36,1v.24l-2.65-1.08.12-.24c.6.24.72.12,1-.36l1.93-4.21a2.37,2.37,0,0,0-2.17.6l-.24-.24,1-1.2Z" transform="translate(-15.95 -18)"/><path class="cls-2" d="M45.73,101.8,43,100.6l.12-.36h.12a1.61,1.61,0,0,0,.6.12q.18,0,.36-.36L46,95.79a2.48,2.48,0,0,0-2,.6l-.36-.24,1.09-1.45,4.45,1.93-.24,1.8-.61-.12a3.61,3.61,0,0,0-1-1.92l-1.8,4.21c-.24.6-.12.6.36.84H46Zm-2.47-1.44,2.53,1.08v-.12c-.6-.24-.6-.6-.36-1L47.35,96h.12A3,3,0,0,1,48.68,98h.12L49,96.39l-4.33-1.93-.85,1.21.12.12a3.53,3.53,0,0,1,2.17-.6h.12l-1.93,4.33c-.12.24-.24.36-.36.6C43.74,100.6,43.5,100.36,43.26,100.36ZM57.82,98.8l.12,1.68H57.7c-.24-.6-.84-1.56-1.68-1.68l-.73,4.45c-.12.6.12.72.61.84v.24l-2.77-.6v-.24c.6.12.72,0,.84-.6l.72-4.46a2.84,2.84,0,0,0-1.92,1.09l-.24-.12.6-1.57Z" transform="translate(-15.95 -18)"/><path class="cls-2" d="M56,104.39l-3-.6.12-.36h.12c.6.12.72,0,.72-.6l.6-4.46a3.27,3.27,0,0,0-1.92,1l-.36-.12L53,97.53l4.69.72.24,1.81h-.6a3,3,0,0,0-1.57-1.69l-.72,4.46c-.12.6,0,.6.6.72h.12Zm-2.71-.6,2.65.36V104c-.61-.12-.73-.36-.61-.84l.73-4.58h.12a2.4,2.4,0,0,1,1.68,1.69H58l-.12-1.56-4.57-.61-.6,1.45.12.12a2.51,2.51,0,0,1,1.92-1H55l-.72,4.57C54.15,103.55,53.79,103.67,53.31,103.79Zm5.11.48c.6,0,.72-.12.72-.72V99.7c0-.6-.24-.72-.72-.72v-.24h4.81l.61,1.56-.24.12a3.11,3.11,0,0,0-2.17-1.2c-.72,0-.72.24-.72.84v1.56h.12a1.28,1.28,0,0,0,1.44-1h.12v2.17H62c-.24-.73-.6-1-1.44-1h-.12v1.69c0,.6,0,.72.6.72a3.91,3.91,0,0,0,2.53-1.2l.24.12-.61,1.56H58.42Z" transform="translate(-15.95 -18)"/><path class="cls-2" d="M63.23,104.63h-5v-.36h.12c.6,0,.72-.12.72-.6V99.82c0-.6-.12-.6-.72-.6h-.12v-.36h5l.61,1.68-.36.12a3.11,3.11,0,0,0-2.17-1.2c-.6,0-.6.12-.6.72v1.2h.12a1.3,1.3,0,0,0,1.44-.84h.6v2.53h-.6c-.24-.73-.6-.85-1.44-.85v1.69c0,.6,0,.72.6.72a3.9,3.9,0,0,0,2.41-1.2l.36.12Zm-4.69-.24h4.57l.61-1.44H63.6a3.87,3.87,0,0,1-2.53,1.2c-.6,0-.72-.36-.72-.84V101.5h.24a1.4,1.4,0,0,1,1.56,1h.12v-2h-.12c-.12.72-.6,1-1.44,1h-.24V99.7c0-.6,0-.84.72-.84a3.08,3.08,0,0,1,2.17,1.2h.12l-.37-1.57H58.54v.13c.6,0,.72.24.72.84v3.85C59.26,104.15,59.14,104.27,58.54,104.39Z" transform="translate(-15.95 -18)"/><path class="cls-2" d="M58.42,104.27c.6,0,.72-.12.72-.72V99.7c0-.6-.24-.72-.72-.72v-.24h4.81l.61,1.56-.24.12a3.11,3.11,0,0,0-2.17-1.2c-.72,0-.72.24-.72.84v1.56h.12a1.28,1.28,0,0,0,1.44-1h.12v2.17H62c-.24-.73-.6-1-1.44-1h-.12v1.69c0,.6,0,.72.6.72a3.91,3.91,0,0,0,2.53-1.2l.24.12-.61,1.56H58.42Z" transform="translate(-15.95 -18)"/><path class="cls-2" d="M63.23,104.63h-5v-.36h.12c.6,0,.72-.12.72-.6V99.82c0-.6-.12-.6-.72-.6h-.12v-.36h5l.61,1.68-.36.12a3.11,3.11,0,0,0-2.17-1.2c-.6,0-.6.12-.6.72v1.2h.12a1.3,1.3,0,0,0,1.44-.84h.6v2.53h-.6c-.24-.73-.6-.85-1.44-.85v1.69c0,.6,0,.72.6.72a3.9,3.9,0,0,0,2.41-1.2l.36.12Zm-4.69-.24h4.57l.61-1.44H63.6a3.87,3.87,0,0,1-2.53,1.2c-.6,0-.72-.36-.72-.84V101.5h.24a1.4,1.4,0,0,1,1.56,1h.12v-2h-.12c-.12.72-.6,1-1.44,1h-.24V99.7c0-.6,0-.84.72-.84a3.08,3.08,0,0,1,2.17,1.2h.12l-.37-1.57H58.54v.13c.6,0,.72.24.72.84v3.85C59.26,104.15,59.14,104.27,58.54,104.39Zm19.31-6.92.36-.12c.61-.24.73-.6.61-1.44l.24-.12,1,2-.24.12a.93.93,0,0,0-1.44-.36l-.37.24.73,1.69c.24.6.6.6,1,.36l.12.24-2.65,1.2-.12-.24c.6-.24.6-.6.36-1l-1.8-3.49c-.24-.6-.6-.6-1-.36L74.48,96l4.34-2,1.08,1.21-.24.24A2.58,2.58,0,0,0,77,95.19c-.6.24-.6.36-.24.84l1.08,1.44Z" transform="translate(-15.95 -18)"/><path class="cls-2" d="M77.25,101.44l-.12-.36h.12q.36-.18.36-.36a1.61,1.61,0,0,0-.12-.6l-1.8-3.49c-.24-.6-.36-.6-.84-.24h-.12L74.48,96h.13l4.45-2,1.2,1.21-.24.36a3,3,0,0,0-2.53-.24,1.49,1.49,0,0,0-.36.24,1.61,1.61,0,0,0,.12.6L78,97.71l.24-.12a.89.89,0,0,0,.61-1.2v-.12l.36-.24v.12l1,2-.36.24v-.12a.78.78,0,0,0-1.2-.36l-.61.12.73,1.57q.18.36.36.36a1.61,1.61,0,0,0,.6-.12h.12l.24.36H79.9C79.84,100.24,77.25,101.44,77.25,101.44Zm0-.24,2.53-1.08V100a1.61,1.61,0,0,1-.6.12c-.12,0-.24-.24-.6-.6l-.85-1.81.61-.24a1.31,1.31,0,0,1,1.56.36l.12-.12-1-1.92-.12.12a1.3,1.3,0,0,1-.6,1.44l-.37.24-.72-1.68c-.12-.24-.24-.36-.12-.6s.24-.24.6-.36a3.29,3.29,0,0,1,2.65.24l.12-.12-1-1.09-4.21,1.93V96c.6-.24.72-.12,1,.36l1.8,3.49a1.61,1.61,0,0,1,.12.6C77.73,101,77.61,101.08,77.25,101.2ZM83,95.55l-.84-2.65,2,1.68-1.2,1,.12.36,1.68-1.09.72.61.37.36c.12.24.12.36-.25.6l.12.24L87.9,95l-.12-.25c-.6.37-.84.12-1.44-.24l-4-3-.73,1,1.09,4.33a2,2,0,0,1-.24,1.8l.12.25,1.8-1.21-.12-.36c-.24.12-.72.24-.84-.12a.92.92,0,0,1-.24-.6l-.12-.6L83,95.55Z" transform="translate(-15.95 -18)"/><path class="cls-2" d="M82.61,98.8l-.24-.37c.6-.6.36-.84.24-1.68l-1.09-4.33.73-1h.12l4.21,3.12c.36.37.6.61,1.2.12h.12l.24.37-2.65,1.68-.24-.36h.12c.61-.36.36-.36.24-.6s-.24-.24-.36-.24l-.72-.6L83,96l.12.6c0,.24.12.36.24.6s.6.12.84,0h.12l.24.36L82.61,98.8Zm0-.37,1.68-1v-.12a.73.73,0,0,1-1-.12.92.92,0,0,1-.24-.6L83,96.27l-.12-.6-.72-2.89,2.4,1.92-.12.12-1.2.73v.24l1.68-1.09.84.61.37.36c.24.24,0,.6-.24.72v.12l2-1.56v-.13c-.6.37-.84.13-1.44-.24h-.12l-3.85-3-.73.84,1.09,4.33a1.48,1.48,0,0,1-.24,1.68Zm-.36-5.29.6,2.17,1.2-.85Zm11.85-5c.36-.6.24-.72-.12-1l-3.25-2c-.6-.24-.72-.24-1,.24l-.25-.12,2.65-4,1.57.36v.24A3,3,0,0,0,91.33,83c-.36.6-.24.73.24,1l1.2.84.12-.12c.61-.6.61-1,0-1.81l.12-.24,1.93,1.21-.12.24c-.72-.24-1.08,0-1.69.6v.12l1.45,1c.36.24.6.36,1-.12a3.27,3.27,0,0,0,.36-2.77l.24-.12L97,84.18Z" transform="translate(-15.95 -18)"/><path class="cls-2" d="M94.34,88.39,94,88.15V88c.24-.6.24-.6-.12-1l-3.25-2c-.36-.24-.6-.24-.84.24v.12L89.4,85V84.9l2.77-4,1.69.6-.12.36H93.5A3.08,3.08,0,0,0,91.33,83c-.12.24-.24.36-.24.6s.24.25.6.37l1.2.84v-.24c.36-.6.61-1,0-1.69l.24-.36h.12l1.93,1.45-.36.36c-.72-.24-1.08,0-1.57.6V85l1.45.84c.36.24.6.36.84,0a3.16,3.16,0,0,0,.36-2.77V83l.36-.12,1,1.45Zm-.12-.24,2.64-3.85L95.9,83h-.12a3.7,3.7,0,0,1-.36,2.77c-.36.6-.72.36-1.08.12l-1.57-1,.12-.24a1.3,1.3,0,0,1,1.69-.6l.12-.12-1.81-1.21-.12.12c.61.72.36,1.09,0,1.81l-.12.24-1.44-.84c-.24-.24-.6-.36-.6-.61a.66.66,0,0,1,.24-.6,4.17,4.17,0,0,1,2.4-1.2v-.12l-1.44-.36L89.28,85h.12c.37-.6.61-.6,1.09-.24l3.25,2A1.06,1.06,0,0,1,94.22,88.15Z" transform="translate(-15.95 -18)"/><path class="cls-2" d="M94.1,88.15c.36-.6.24-.72-.12-1l-3.25-2c-.6-.24-.72-.24-1,.24l-.25-.12,2.65-4,1.57.36v.24A3,3,0,0,0,91.33,83c-.36.6-.24.73.24,1l1.2.84.12-.12c.61-.6.61-1,0-1.81l.12-.24,1.93,1.21-.12.24c-.72-.24-1.08,0-1.69.6v.12l1.45,1c.36.24.6.36,1-.12a3.27,3.27,0,0,0,.36-2.77l.24-.12L97,84.18Z" transform="translate(-15.95 -18)"/><path class="cls-2" d="M94.34,88.39,94,88.15V88c.24-.6.24-.6-.12-1l-3.25-2c-.36-.24-.6-.24-.84.24v.12L89.4,85V84.9l2.77-4,1.69.6-.12.36H93.5A3.08,3.08,0,0,0,91.33,83c-.12.24-.24.36-.24.6s.24.25.6.37l1.2.84v-.24c.36-.6.61-1,0-1.69l.24-.36h.12l1.93,1.45-.36.36c-.72-.24-1.08,0-1.57.6V85l1.45.84c.36.24.6.36.84,0a3.16,3.16,0,0,0,.36-2.77V83l.36-.12,1,1.45Zm-.12-.24,2.64-3.85L95.9,83h-.12a3.7,3.7,0,0,1-.36,2.77c-.36.6-.72.36-1.08.12l-1.57-1,.12-.24a1.3,1.3,0,0,1,1.69-.6l.12-.12-1.81-1.21-.12.12c.61.72.36,1.09,0,1.81l-.12.24-1.44-.84c-.24-.24-.6-.36-.6-.61a.66.66,0,0,1,.24-.6,4.17,4.17,0,0,1,2.4-1.2v-.12l-1.44-.36L89.28,85h.12c.37-.6.61-.6,1.09-.24l3.25,2A1.06,1.06,0,0,1,94.22,88.15ZM96,74.61c-.6-.12-.72,0-.84.6L94.94,75l.84-2.77.24.12c-.12.49-.12.61.6.85l3.61,1.08c.61.12.73,0,.85-.6l.24.12-.85,2.77-.24-.12c.12-.61.12-.73-.6-1Z" transform="translate(-15.95 -18)"/><path class="cls-2" d="M100.53,76.9l-.36-.12v-.12c.12-.24.12-.61,0-.61s-.24-.24-.6-.24L96,74.73a.55.55,0,0,0-.6,0,.71.71,0,0,0-.24.6v.12l-.36-.12.84-2.88.36.12c-.12.6-.12.72.36.84l3.61,1.08a.55.55,0,0,0,.6,0c.24-.12.24-.24.24-.6v-.12l.37.12Zm-.18-.24.85-2.53h-.12c-.12.24-.24.36-.37.6a.54.54,0,0,1-.6,0L96.5,73.65a.73.73,0,0,1-.6-1.08h-.12l-.84,2.64h.12c.12-.24.24-.36.36-.6a.54.54,0,0,1,.6,0l3.61,1.08c.24.12.6.24.6.36C100.47,76.18,100.47,76.42,100.35,76.66Z" transform="translate(-15.95 -18)"/><path class="cls-2" d="M96,74.61c-.6-.12-.72,0-.84.6L94.94,75l.84-2.77.24.12c-.12.49-.12.61.6.85l3.61,1.08c.61.12.73,0,.85-.6l.24.12-.85,2.77-.24-.12c.12-.61.12-.73-.6-1Z" transform="translate(-15.95 -18)"/><path class="cls-2" d="M100.53,76.9l-.36-.12v-.12c.12-.24.12-.61,0-.61s-.24-.24-.6-.24L96,74.73a.55.55,0,0,0-.6,0,.71.71,0,0,0-.24.6v.12l-.36-.12.84-2.88.36.12c-.12.6-.12.72.36.84l3.61,1.08a.55.55,0,0,0,.6,0c.24-.12.24-.24.24-.6v-.12l.37.12Zm-.18-.24.85-2.53h-.12c-.12.24-.24.36-.37.6a.54.54,0,0,1-.6,0L96.5,73.65a.73.73,0,0,1-.6-1.08h-.12l-.84,2.64h.12c.12-.24.24-.36.36-.6a.54.54,0,0,1,.6,0l3.61,1.08c.24.12.6.24.6.36C100.47,76.18,100.47,76.42,100.35,76.66ZM27.08,44.35l-1.57-.84c-.6-.24-.72-.36-.36-1a1.29,1.29,0,0,1,1.69-.61c.84.61.84,1,.6,1.93l-.36.48.24.12.36-.6c.6-1,1.08-2.17-.12-3-.72-.36-1.68-.12-2.53,1.44l-1.44,2.53.24.12c.24-.6.6-.6,1-.36l3.37,1.93c.6.24.6.6.24,1l.24.12,1.45-2.53L29.85,45c-.24.6-.61.6-1,.36l-1.56-.84h-.24Z" transform="translate(-15.95 -18)"/><path class="cls-2" d="M28.76,47.66l-.36-.24V47.3c.24-.6.24-.6-.24-.84l-3.37-1.93c-.36-.24-.48-.24-.6-.24s-.24.12-.36.36v.12l-.36-.24v-.12l1.44-2.53c.6-.84,1-1.44,1.69-1.56a1.28,1.28,0,0,1,1,.12A1.37,1.37,0,0,1,28.28,42a4,4,0,0,1-.6,1.69l-.24.6,1.44.72c.6.24.6.12.85-.24v-.12l.36.24C30.09,45,28.76,47.66,28.76,47.66Zm-.12-.24,1.45-2.17H30c-.24.6-.61.6-1.09.24l-3.25-1.92c-.24-.12-.36-.24-.6-.36s0-.36.12-.6a1.37,1.37,0,0,1,.73-.61,1.06,1.06,0,0,1,1,.24c.84.61,1,1.09.6,1.93l-.36.48.12.12.24-.6a4,4,0,0,0,.6-1.68A1.57,1.57,0,0,0,27.32,41c-.24,0-.6-.12-.84,0-.6.12-1.09.6-1.57,1.57L23.47,45h.12a.55.55,0,0,1,.6-.36,1.3,1.3,0,0,1,.6.12l3.37,1.81C28.76,46.7,28.88,46.94,28.64,47.42Zm-2.4-5.36H26c-.25.12-.61.24-.61.61a1.08,1.08,0,0,0-.12.6c0,.24.24.24.61.36l1.44.72.24-.36c.6-.84.36-1.2-.36-1.81A3.86,3.86,0,0,0,26.24,42.06Zm3.49-.84-1.57-2.28,2.53.84-1,1.44.24.36,1.2-1.68.84.36c.12,0,.24.12.36.24s.24.24-.12.72l.24.12,1.69-2.16-.24-.12c-.6.6-.85.36-1.45.12L27.8,37.49l-.36,1.08,2.41,3.73c.36.61.6,1,.36,1.69l.24.12,1.2-1.81h-.12c-.24.25-.6.61-.84.25l-.6-.61L30,41.46Z" transform="translate(-15.95 -18)"/><path class="cls-2" d="M30.57,44.23l-.36-.12c.24-.72,0-1-.36-1.68L27.32,38.7l.36-1.21,4.81,1.81c.6.12.85.24,1.21-.24v-.12l.36.24v.12l-1.81,2.4L32,41.46v-.12c.24-.6.24-.6.12-.6.12-.12,0-.24-.12-.24l-.84-.24-1.08,1.56.24.36a2.72,2.72,0,0,1,.36.61c.36.24.6-.12.72-.24l.36.24ZM30.45,44l1.2-1.56h-.12a.63.63,0,0,1-1,.12,1,1,0,0,1-.36-.61l-.12-.24-.24-.6-1.69-2.53,2.89,1L30,41.1l.12.24,1.08-1.68,1,.36c.24.12.36.12.6.24s.24.36,0,.72h.12l1.57-2H34.3c-.36.6-.84.36-1.45.12h-.24L28,37.37l-.36,1.08,2.41,3.73C30.45,42.91,30.69,43.27,30.45,44ZM28.4,39.18l1.21,1.92.84-1.2Zm5.72-4.4L32.91,33.7c-.24-.36-.36-.6,0-.84.61-.6,1.09-.72,1.81-.12.48.6.48,1.2-.6,2l.12.37c.24-.24.6-.37,1.68,0l1,.36a2.63,2.63,0,0,0,.73.24l1.56-1.45-.12-.24a2.06,2.06,0,0,1-1.68.12l-1.09-.12a1.05,1.05,0,0,0-.84-.12,1.39,1.39,0,0,0,.12-2,1.64,1.64,0,0,0-2.41.24l-2.52,2.4.12.24c.36-.36.6-.36,1.08,0l2.65,2.77c.36.36.36.6,0,1.09l.12.24,2-1.93-.12-.24c-.36.36-.6.36-1.08,0l-1.2-1.2C34.24,35.45,34.12,34.78,34.12,34.78Z" transform="translate(-15.95 -18)"/><path class="cls-2" d="M34.6,38.7l-.24-.37c.36-.36.36-.6,0-1L31.71,34.6c-.36-.36-.6-.36-1,0l-.24-.36,2.64-2.4a2,2,0,0,1,1.45-.6c.6,0,.84.12,1.08.6.6.6.6,1.2,0,2a2.44,2.44,0,0,1,.6.12l1,.36a1.68,1.68,0,0,0,1.68,0l.24.24-1.56,1.57a5,5,0,0,0-.61-.12c-.24,0-.12,0-.24-.12l-1-.36c-.84-.36-1.2-.24-1.44-.12l1.08,1.2a.92.92,0,0,0,.6.24c.24,0,.24-.12.6-.24l.24.36Zm0-.13,1.92-1.8v-.12a.66.66,0,0,1-.6.24c-.24,0-.36-.12-.6-.36l-1.08-1.2L34.12,35l-.12.12-1.21-1.45c-.24-.24-.36-.36-.24-.6s.12-.24.24-.6c.36-.36.61-.6.85-.6a1.09,1.09,0,0,1,.84.36c.6.72.6,1.44-.36,2.16l.12.24c.24-.24.6-.24,1.68.12l1,.37c.12,0,.12,0,.25.12a2.44,2.44,0,0,0,.6.12l1.44-1.21L39.05,34a1.68,1.68,0,0,1-1.68,0l-1-.24c-.24-.12-.6-.24-.72-.12h-.24l.12-.12c.24-.36.84-1.2.12-1.92a1.36,1.36,0,0,0-1-.36,1.91,1.91,0,0,0-1.2.6l-2.65,2.4.12.12c.36-.36.72-.36,1.08.12l2.65,2.77C35.08,37.73,35.08,38,34.6,38.57Zm-.84-6.19c-.36,0-.61.12-.85.6-.12.12-.24.24-.24.36s.12.24.24.36L34,34.91c1-.85.84-1.45.36-1.93C34.24,32.5,34.12,32.38,33.76,32.38Z" transform="translate(-15.95 -18)"/><path class="cls-2" d="M34.12,34.78,32.91,33.7c-.24-.36-.36-.6,0-.84.61-.6,1.09-.72,1.81-.12.48.6.48,1.2-.6,2l.12.37c.24-.24.6-.37,1.68,0l1,.36a2.63,2.63,0,0,0,.73.24l1.56-1.45-.12-.24a2.06,2.06,0,0,1-1.68.12l-1.09-.12a1.05,1.05,0,0,0-.84-.12,1.39,1.39,0,0,0,.12-2,1.64,1.64,0,0,0-2.41.24l-2.52,2.4.12.24c.36-.36.6-.36,1.08,0l2.65,2.77c.36.36.36.6,0,1.09l.12.24,2-1.93-.12-.24c-.36.36-.6.36-1.08,0l-1.2-1.2C34.24,35.45,34.12,34.78,34.12,34.78Z" transform="translate(-15.95 -18)"/><path class="cls-2" d="M34.6,38.7l-.24-.37c.36-.36.36-.6,0-1L31.71,34.6c-.36-.36-.6-.36-1,0l-.24-.36,2.64-2.4a2,2,0,0,1,1.45-.6c.6,0,.84.12,1.08.6.6.6.6,1.2,0,2a2.44,2.44,0,0,1,.6.12l1,.36a1.68,1.68,0,0,0,1.68,0l.24.24-1.56,1.57a5,5,0,0,0-.61-.12c-.24,0-.12,0-.24-.12l-1-.36c-.84-.36-1.2-.24-1.44-.12l1.08,1.2a.92.92,0,0,0,.6.24c.24,0,.24-.12.6-.24l.24.36Zm0-.13,1.92-1.8v-.12a.66.66,0,0,1-.6.24c-.24,0-.36-.12-.6-.36l-1.08-1.2L34.12,35l-.12.12-1.21-1.45c-.24-.24-.36-.36-.24-.6s.12-.24.24-.6c.36-.36.61-.6.85-.6a1.09,1.09,0,0,1,.84.36c.6.72.6,1.44-.36,2.16l.12.24c.24-.24.6-.24,1.68.12l1,.37c.12,0,.12,0,.25.12a2.44,2.44,0,0,0,.6.12l1.44-1.21L39.05,34a1.68,1.68,0,0,1-1.68,0l-1-.24c-.24-.12-.6-.24-.72-.12h-.24l.12-.12c.24-.36.84-1.2.12-1.92a1.36,1.36,0,0,0-1-.36,1.91,1.91,0,0,0-1.2.6l-2.65,2.4.12.12c.36-.36.72-.36,1.08.12l2.65,2.77C35.08,37.73,35.08,38,34.6,38.57Zm-.84-6.19c-.36,0-.61.12-.85.6-.12.12-.24.24-.24.36s.12.24.24.36L34,34.91c1-.85.84-1.45.36-1.93C34.24,32.5,34.12,32.38,33.76,32.38Zm32.6-10.89.36,1.68h-.24c-.6-.6-1.08-1.44-1.92-1.44l-.24,4.45c0,.6.12.72.72.72v.24l-2.89-.24v-.24c.6,0,.72-.12.84-.6l.24-4.45a2.57,2.57,0,0,0-1.92,1.2l-.24-.12.6-1.68Z" transform="translate(-15.95 -18)"/><path class="cls-2" d="M65.16,27.2l-3-.12v-.36h.12c.6,0,.72-.12.72-.6l.24-4.45a3.21,3.21,0,0,0-1.8,1.2l-.24-.12.6-1.8,4.81.36.36,1.8-.6.12c-.36-.6-1-1.44-1.68-1.44l-.36,4.33c0,.6.12.6.6.72H65v.36ZM62.27,27l2.65.12V27c-.6,0-.72-.24-.72-.84l.24-4.57h.12a2.56,2.56,0,0,1,1.8,1.56h.12l-.24-1.56-4.57-.24-.6,1.32h.12a2.7,2.7,0,0,1,1.92-1.2h.12v4.69c-.24.6-.24.84-1,.84Z" transform="translate(-15.95 -18)"/><path class="cls-2" d="M66.36,21.49l.36,1.68h-.24c-.6-.6-1.08-1.44-1.92-1.44l-.24,4.45c0,.6.12.72.72.72v.24l-2.89-.24v-.24c.6,0,.72-.12.84-.6l.24-4.45a2.57,2.57,0,0,0-1.92,1.2l-.24-.12.6-1.68Z" transform="translate(-15.95 -18)"/><path class="cls-2" d="M65.16,27.2l-3-.12v-.36h.12c.6,0,.72-.12.72-.6l.24-4.45a3.21,3.21,0,0,0-1.8,1.2l-.24-.12.6-1.8,4.81.36.36,1.8-.6.12c-.36-.6-1-1.44-1.68-1.44l-.36,4.33c0,.6.12.6.6.72H65v.36ZM62.27,27l2.65.12V27c-.6,0-.72-.24-.72-.84l.24-4.57h.12a2.56,2.56,0,0,1,1.8,1.56h.12l-.24-1.56-4.57-.24-.6,1.32h.12a2.7,2.7,0,0,1,1.92-1.2h.12v4.69c-.24.6-.24.84-1,.84Zm-23.22.24,1.2,1-.24.24c-.6-.24-1.68-.6-2.16,0l2.64,3.73c.37.6.61.6,1,.12l.12.24-2.17,1.56-.24-.12c.6-.36.6-.6.24-1l-2.65-3.73A2.86,2.86,0,0,0,36,31.3l-.12.24L35.32,30Z" transform="translate(-15.95 -18)"/><path class="cls-2" d="M39.17,34.3l-.24-.36h.12q.36-.18.36-.36a1.61,1.61,0,0,0-.12-.6l-2.41-3.61a2.6,2.6,0,0,0-.6,1.93l-.6.24-.6-1.69,4-2.77,1.44,1.09-.24.36c-.6-.24-1.56-.6-2-.12L40.73,32c.13.24.25.36.37.36s.24,0,.6-.24h.12l.24.36Zm0-.24,2.17-1.56v-.12c-.24.12-.36.24-.61.12a1.1,1.1,0,0,1-.6-.36l-2.64-3.73h.12a3.31,3.31,0,0,1,2.4,0l.12-.12-1.08-1L35.32,30l.6,1.45H36c0-.73.12-1.69.72-2.05h-.12v.12l2.65,3.73a5.65,5.65,0,0,1,.24.6C39.65,33.7,39.53,33.82,39.17,34.06Z" transform="translate(-15.95 -18)"/><path class="cls-2" d="M47.65,28.53c.24.6.6.6,1,.36l.12.24-2.65,1.2L46,30.09c.6-.24.6-.6.36-1L44.4,25.28,45,30.81l-.24.12L40.92,27.2l1.44,2.89c.6,1.09.72,1.21,1.44,1l.12.25L42,32.14V31.9c.6-.36.6-.6.12-1.81l-1.45-2.77c-.24-.6-.6-.6-1-.36l-.12-.12,2-1,2.88,2.77-.36-4,1.93-1,.12.24c-.6.24-.6.6-.36,1Z" transform="translate(-15.95 -18)"/><path class="cls-2" d="M42.18,32.26,42.06,32c.6-.36.6-.6,0-1.69l-1.2-2.88c-.13-.25-.25-.37-.37-.37a1.61,1.61,0,0,0-.6.12h-.12l-.12-.36h.12l2-1,2.64,2.65-.24-3.85,2.05-1,.24.36h-.12c-.6.24-.6.36-.36.84l1.68,3.49q.18.36.36.36a1.64,1.64,0,0,0,.61-.12h.12L49,29l-2.77,1.44-.12-.36h.12c.6-.24.6-.36.36-.84L45,25.88l.6,5.05-.36.12L41.7,27.57l1.2,2.52c.6,1.09.6,1.21,1.2,1h.12l.12.37C44.28,31.42,42.18,32.26,42.18,32.26ZM42.3,32l1.8-.72v-.12c-.6.24-.84,0-1.44-1.09L41.1,27h.24l3.73,3.61.12-.12-.73-5.29h.13v.12L46.51,29c.24.6.12.72-.36,1.08v.12l2.41-1.08V29a1.64,1.64,0,0,1-.61.12c-.12,0-.24-.24-.6-.6L45.67,25c-.24-.72,0-1,.36-1.2v-.12l-1.81,1,.61,4-3-2.77-1.93,1V27a1.08,1.08,0,0,1,.6-.12c.12,0,.24.24.61.61l1.44,2.76C42.78,31.3,42.78,31.54,42.3,32Zm7.16-3.49c.6-.12.72-.36.6-.84l-.84-3.85c-.12-.61-.36-.61-.84-.61L48.25,23l4.58-1.2.84,1.44h-.36a2.82,2.82,0,0,0-2.53-.6c-.6.12-.6.36-.6,1l.36,1.57h.12c.72-.24,1.08-.36,1.08-1.2l.24-.12L52.59,26l-.24.12c-.37-.72-.85-.72-1.69-.6h-.12l.36,1.68c.12.61.24.73.72.61a3,3,0,0,0,2.05-1.93h.24l-.24,1.69-4.57,1.2v-.36h.36Z" transform="translate(-15.95 -18)"/><path class="cls-2" d="M49.46,28.77l-.12-.36h.12c.24-.12.36-.12.6-.24s.12-.24,0-.6L49,23.84c-.12-.37-.24-.49-1-.37h-.12v-.6H48l4.7-1.2.84,1.44-.36.24a2.9,2.9,0,0,0-2.53-.6,1.49,1.49,0,0,0-.36.24c-.12.12,0,.36,0,.6L50.66,25h.12c.72-.24,1-.36,1.08-1.2l.61-.12.6,2.4-.6.12c-.36-.72-.73-.72-1.57-.6h-.12l.36,1.56c0,.25.12.37.24.61a.83.83,0,0,0,.6,0,2.61,2.61,0,0,0,1.93-1.93l.36.12L54,27.81Zm.12-.24L54,27.45l.24-1.57h-.12a3.92,3.92,0,0,1-2,1.93c-.25.12-.61,0-.61-.12a.71.71,0,0,1-.24-.61l-.6-1.8h.24a1.39,1.39,0,0,1,1.69.6h.12l-.48-2h-.12A1.3,1.3,0,0,1,50.9,25h-.24l-.24-1.57q-.18-.54,0-.72a1.28,1.28,0,0,1,.6-.36,2.9,2.9,0,0,1,2.53.6l.12-.12L53,21.67,48.5,23.11v.12c.6-.12.84,0,1,.61l1,3.73c.12.24.12.6,0,.6C49.94,28.41,49.82,28.53,49.58,28.53Zm10.05-3.37-.25-2.65c0-.6-.12-1-1-1v-.24l2-.12v.24c-.72.24-.72.6-.72,1.2l.36,4.45-.73.12-3.61-4.33.25,3c.12.84.12,1,1,1.08v.24l-2.17.25V27.2c.84-.36,1-.6,1-1.44l-.36-3.49a6.7,6.7,0,0,0-1-.6v-.18l2-.12Z" transform="translate(-15.95 -18)"/><path class="cls-2" d="M55,27.45v-.37h.12c.6-.24.73-.36.6-1.08l-.24-3.61a1.3,1.3,0,0,0-.84-.36h-.24v-.36l2.17-.36,3,3.61-.25-2.41c0-.72-.12-1-.84-1h-.12v-.36l2.41-.36v.36h-.12c-.6.12-.72.36-.6,1.08l.36,4.45-1,.36-3.36-4.21.24,2.77c0,1,.12,1,.84,1.08h.12v.36Zm.12-.25,2-.12V27c-.84-.12-1-.24-1-1.2L56,22.27l3.73,4.45h.6l-.24-4.45c0-.72,0-1.08.72-1.2V21l-1.93.12v.12c.73,0,.85.6,1,1.08V25.4l-3.13-4-1.93.24v.12a.9.9,0,0,1,.84.6l.25,3.73c.06.6-.07.84-.73,1.08Zm15.16,1.21a2.83,2.83,0,0,0,3.61-2.17A2.65,2.65,0,0,0,72,22.63c-1.81-.6-3.13.6-3.61,2.17a2.72,2.72,0,0,0,1.92,3.61v-.36c-.84-.24-1.08-1.09-.6-3s1.21-2.53,2-2.17,1.2,1,.72,3c-.24,1-.84,2.65-2.17,2.17" transform="translate(-15.95 -18)"/><path class="cls-2" d="M71.12,28.53c-.24,0-.61,0-.73-.12h-.12a2.57,2.57,0,0,1-1.92-1.33,4,4,0,0,1-.24-2.4,3,3,0,0,1,1.44-1.93A2.44,2.44,0,0,1,72,22.39a3,3,0,0,1,1.92,1.45,4,4,0,0,1,.24,2.4,3,3,0,0,1-1.44,1.93A2.68,2.68,0,0,1,71.12,28.53Zm-.73-.12a2.39,2.39,0,0,0,2-.36,2.72,2.72,0,0,0,1.2-1.93A3.18,3.18,0,0,0,73.52,24a3.67,3.67,0,0,0-1.8-1.45,2.35,2.35,0,0,0-2.17.36,3.17,3.17,0,0,0-1.2,1.93A3.18,3.18,0,0,0,68.47,27a2.23,2.23,0,0,0,1.68,1.21v-.12a1.29,1.29,0,0,1-.72-.85A4.58,4.58,0,0,1,69.55,25c.6-2.17,1.69-2.53,2.17-2.41,1,.24,1.2,1.45.72,3.13a5.8,5.8,0,0,1-.72,1.81,1.32,1.32,0,0,1-1.57.6Zm0-.48c.61.12,1,0,1.57-.61a3.18,3.18,0,0,0,.6-1.68c.6-1.8.24-2.77-.6-3-1.08-.24-1.81,1-2,2.17a4.12,4.12,0,0,0-.24,2.28A.8.8,0,0,0,70.39,27.93Z" transform="translate(-15.95 -18)"/><path class="cls-2" d="M76.05,26.84l.36.12a1.15,1.15,0,0,0,1.44-.36l.36.12-.84,2.05-.24-.12a1.11,1.11,0,0,0-.6-1.45l-.36-.12-.72,1.69c-.24.6-.12.72.36,1l-.24.24-2.65-1.08.12-.24c.6.24.72.12,1-.36l1.57-3.49c.24-.6.12-.72-.36-1l.12-.25,4.33,1.93-.24,1.68h-.3a2.32,2.32,0,0,0-1.57-2c-.6-.24-.6-.12-.84.36A13.54,13.54,0,0,1,76.05,26.84Z" transform="translate(-15.95 -18)"/><path class="cls-2" d="M75.69,30.21l-2.77-1.32.12-.36h.12c.6.24.72.12.84-.36l1.57-3.49v-.6c0-.24-.24-.24-.6-.36h-.12l.12-.37h.12l4.45,1.93-.24,1.8h-.6V27A2.32,2.32,0,0,0,77.13,25c-.6-.24-.6-.12-.72.24l-.6,1.56h.36c.6.24.84.12,1.44-.36l.6.12-1,2.17-.36-.12v-.12a.91.91,0,0,0-.6-1.21l-.36-.12L75.57,29c-.24.6-.12.6.36.84h.12l-.36.36ZM73,28.89l2.53,1v-.12c-.6-.24-.6-.6-.36-1L75.93,27l.6.24a1,1,0,0,1,.6,1.45h.12l.84-1.93L78,26.6a1.17,1.17,0,0,1-1.56.36l-.6-.12v-.12l.6-1.68c.24-.6.36-.6,1-.36a3.2,3.2,0,0,1,1.57,2h.12l.12-1.56-4.33-1.69v.12c.36.13.6.25.6.37s0,.36-.12.6l-1.57,3.49C74,28.89,73.76,29,73,28.89Zm6.44,2.77c.6.36.72.24,1-.12l2.17-3.13c.36-.6.24-.72-.24-1l.12-.25,4,2.77L86,31.42h-.25A3,3,0,0,0,84.65,29c-.6-.36-.72-.24-1,.24l-.84,1.2.12.12c.6.61,1,.61,1.8,0l.24.12-1.44,1.93-.24-.12c.24-.72,0-1.08-.6-1.69l-.12-.12-1,1.45c-.24.36-.36.6,0,1a3.23,3.23,0,0,0,2.77.36l.12.24-1.44.84-4-2.76.36-.12Z" transform="translate(-15.95 -18)"/><path class="cls-2" d="M83.21,34.78l-4-2.88.24-.36h.12c.6.24.6.24,1-.12l2.17-3.13c.12-.36,0-.6-.36-.84h-.12l.24-.37h.24l4,2.89-.6,1.69-.37-.12v-.36A2.69,2.69,0,0,0,84.65,29c-.24-.12-.36-.24-.6-.24s-.24.24-.36.6l-.84,1.2c.6.61,1,.61,1.68,0l.36.24v.12l-1.44,1.93-.36-.24c.24-.72,0-1.08-.6-1.57h-.12l-.85,1.21c-.24.36-.36.6,0,.84a3.17,3.17,0,0,0,2.77.36h.12l.12.36ZM79.48,32l3.85,2.64,1.2-.72v-.12a3.71,3.71,0,0,1-2.77-.36c-.6-.36-.36-.72-.12-1.08l1-1.57.24.12c.6.61.84.85.6,1.69l.12.12,1.2-1.81-.12-.12c-.72.61-1.08.37-1.8-.12l-.24-.12.72-1.2a1.42,1.42,0,0,1,.6-.6c.12-.12.36,0,.72.24a3.46,3.46,0,0,1,1.08,2.41h.13L86.22,30l-3.85-2.65v.13c.6.36.6.6.12,1.08l-2,3.13C80.32,32.14,80.08,32.26,79.48,32Zm9.14,5.11,1.93-1.92c.6-.61.72-.73.12-1.45l.12-.24,1.56,1.57-.12.24c-.6-.61-.84-.24-1.44.24L87.66,38.7l-.6-.61.84-5.53-2,2.16c-.61.61-.61.73-.13,1.57l-.24.12L83.93,35l.12-.25c.6.61.84.37,1.44-.12L88.14,32a2.35,2.35,0,0,0-.24-1l.12-.24,1.57,1.45C89.52,32.26,88.62,37.13,88.62,37.13Z" transform="translate(-15.95 -18)"/><path class="cls-2" d="M87.66,38.82l-.6-.61.84-5.29L86,34.84c-.61.61-.61.73-.12,1.45l-.25.48L83.81,35l.24-.25c.6.37.84.37,1.2-.12L87.78,32a2.94,2.94,0,0,0-.24-1l.24-.24,1.56,1.57-.72,4.57,1.69-1.8c.6-.61.6-.73.12-1.21l.24-.24,1.68,1.69v.12c-.6-.36-.72-.24-1.2.24C91.09,35.69,87.66,38.82,87.66,38.82Zm-.36-.49.36.37,3-3.13c.6-.6.72-.73,1.44-.24l.12-.12-1.44-1.45-.12.12c.6.6.24,1-.24,1.57l-1.93,2,.84-5.17-1.2-1.45L88,31a1.33,1.33,0,0,1,.24,1L85.61,34.6c-.6.61-.84.61-1.56.24l-.12.25,1.56,1.56.12-.12c-.6-.72-.36-1,.25-1.69l2.4-2.4Zm1.08.85c.36.6.6.6,1,.12l3.13-2.17c.6-.36.6-.6.12-1l.24-.12,2.89,3.85L95,41.1,94.76,41a2.69,2.69,0,0,0-.48-2.65c-.36-.6-.6-.36-1.09-.12l-1.2.73.12.12c.6.6.72.84,1.69.6l.12.36-2,1.44-.24-.36c.6-.6.36-1.08,0-1.8l-.12-.12-1.2,1.08c-.36.24-.6.6-.24,1a4.22,4.22,0,0,0,2.52,1.21v.24l-1.44.48-2.89-3.73Z" transform="translate(-15.95 -18)"/><path class="cls-2" d="M91,43.27l-3-4,.36-.24v.12c.36.36.6.6.84.12l3.13-2.17c.24-.12.24-.24.36-.36s0-.24-.24-.6v-.12l.36-.24v.12l2.89,3.85-1,1.32-.36-.24A3,3,0,0,0,94,38.33Q93.8,38,93.62,38a2.06,2.06,0,0,0-.61.24l-.84.85c.6.6.72.72,1.57.6L94,40,92.05,41.7l-.24-.36c.6-.6.36-1,0-1.68v-.12l-1.44.84A.55.55,0,0,0,90,41a.44.44,0,0,0,.12.36,3.61,3.61,0,0,0,2.52,1.21h.12v.36Zm-2.59-3.85,2.77,3.73,1.44-.36v-.12a4.17,4.17,0,0,1-2.52-1.21c-.12-.24-.24-.36-.12-.6s.24-.36.6-.6l1.44-1,.12.24a1.2,1.2,0,0,1,.12,1.8l.12.12,1.81-1.2-.24-.12c-.85.24-1.09,0-1.69-.6L92,39.18l1.45-1a1.32,1.32,0,0,1,.72-.36,1.1,1.1,0,0,1,.6.36,2.87,2.87,0,0,1,.36,2.65l.12.12.84-1.08-2.76-3.73h-.13v.6a1.1,1.1,0,0,1-.36.6l-3.12,2.17C89,39.78,88.74,39.78,88.38,39.42Zm6.8,4.69,1.56-.72c.37-.24.61-.24.85.12.36.72.36,1.2-.36,1.68s-1.45.24-1.93-.84l-.12-.24-.36.12c.12.24.24.6-.6,1.56l-.6.85c-.12.24-.37.36-.37.6L94.1,49l.24-.12a1.78,1.78,0,0,1,.36-1.68l.6-.72a4,4,0,0,0,.36-.73c.6.61,1.2,1.09,1.93.73A1.67,1.67,0,0,0,98,44.11l-1.57-3-.24.12c.24.6.24.72-.24,1L92.53,44c-.6.24-.72.12-1-.36l-.24.12,1.44,2.53.24-.12c-.24-.61-.24-.73.24-1l1.69-.84.24-.24Z" transform="translate(-15.95 -18)"/><path class="cls-2" d="M94.22,49.1l-1-1.92a.68.68,0,0,0,.25-.6l.12-.12.6-.85a1.9,1.9,0,0,0,.6-1.44L93.13,45c-.12.12-.24.24-.24.36A1.61,1.61,0,0,0,93,46v.12l-.24.13-1.44-2.65.36-.24v.12c.24.6.6.6.84.24l3.37-1.81q.36-.18.36-.36a1.61,1.61,0,0,0-.12-.6l.36-.24,1.69,3.13a2.4,2.4,0,0,1,.24,1.56,1.28,1.28,0,0,1-.72,1,1.47,1.47,0,0,1-1.93-.61c-.12.24-.24.36-.36.61l-.6.84c-.36.6-.6,1-.36,1.56Zm-1-1.8L94.1,49h.12c-.24-.6.12-1.08.36-1.68l.6-.84c.12-.24.24-.37.36-.61v-.24l.12.12a1.34,1.34,0,0,0,1.93.61,1.06,1.06,0,0,0,.6-.85A2.26,2.26,0,0,0,98,44.05l-1.57-3h-.12a1.61,1.61,0,0,1,.12.6c0,.12-.24.36-.6.6l-3.37,1.81c-.6.24-.72.12-1.08-.24h-.12l1.2,2.41h.12a1.13,1.13,0,0,1-.12-.61c0-.12.24-.36.6-.6l3.37-1.8c.36-.24.6-.36,1,.24s.36.84.24,1.08-.24.6-.61.6a1,1,0,0,1-1,.12,2.16,2.16,0,0,1-1-1.08l-.12.12c.12.24.12.6-.6,1.56l-.48.73-.12.12c-.12.24-.36.36-.49.6Zm2-3.19c.36.6.6,1,1,1.08a1.08,1.08,0,0,0,.85-.12c.24-.12.6-.36.6-.6a1.06,1.06,0,0,0-.24-1c-.24-.36-.36-.36-.73-.12Z" transform="translate(-15.95 -18)"/><path class="cls-2" d="M99.63,52.11l-.12-.24c.6-1,1-1.68.72-2.41s-1.2-1.2-3.12-.6-2.41,1.57-2,2.41,1,.72,1.68.6.61-.36.61-1l.24-.12.84,2.52H98c-.24-.6-.6-.6-1-.36l-1.08.24c-.12-.6-.24-.6-.6-1s-.6-.6-.6-1.08a2.62,2.62,0,0,1,1.8-3.61,2.93,2.93,0,0,1,4,1.68,1.08,1.08,0,0,1,.12.6v.61c.12.24.25.36.37.6C100.9,51,99.63,52.11,99.63,52.11Z" transform="translate(-15.95 -18)"/><path class="cls-2" d="M98.07,53.43c-.24-.6-.36-.6-1-.36l-1.21.36v-.12c-.12-.6-.24-.6-.6-1s-.6-.6-.6-1.08a2.67,2.67,0,0,1,.12-2.17,3.71,3.71,0,0,1,1.8-1.44,3.24,3.24,0,0,1,4.22,1.8,1.64,1.64,0,0,1,.12.61v.6c0,.24.24.36.36.6l.12.12-1.93,1L99.27,52c.6-1,1-1.68.72-2.17a1.29,1.29,0,0,0-.84-.72,3.18,3.18,0,0,0-2,.24c-1.09.36-1.81.85-1.93,1.45a1,1,0,0,0,0,.84c.12.24.24.6.36.6a1.69,1.69,0,0,0,1.08-.12c.61-.24.61-.36.36-.84V51l.61-.12.84,2.77Zm-.6-.72c.24,0,.36.12.6.6h.12l-.84-2.4h-.12c.12.6.12.72-.61,1a2.07,2.07,0,0,1-1.2.12c-.24-.12-.36-.36-.6-.6a1.32,1.32,0,0,1,0-1c.24-.61,1-1,2-1.45A5,5,0,0,1,99,48.74a1.38,1.38,0,0,1,1,.84c.24.61,0,1.21-.72,2.41l.12.12,1.2-.84a1,1,0,0,1-.36-.6v-.6a1.1,1.1,0,0,0-.12-.61,3.12,3.12,0,0,0-3.85-1.68,2.54,2.54,0,0,0-1.68,1.44,2.46,2.46,0,0,0-.12,2.05,2.61,2.61,0,0,0,.6,1,5.08,5.08,0,0,0,.6.84l1-.36A1.66,1.66,0,0,0,97.47,52.71Z" transform="translate(-15.95 -18)"/><path class="cls-2" d="M101.86,54.88h-.24c-.24-.36-.36-.6-.48-.6s-.24.12-.37.24L99.21,56l1.69.6a5.2,5.2,0,0,0,.6.12c.36-.12.36-.36.24-.72H102l.36,2h-.24a.91.91,0,0,0-.84-.85L101,57l-2-.84-1.68.36c-.61.12-.61.24-.61.85h-.24l-.6-2.77h.24c.12.6.24.72.84.6L98.49,55l2-1.93a.88.88,0,0,0,.37-.84h.24Z" transform="translate(-15.95 -18)"/><path class="cls-2" d="M102.1,58.19c-.12-.6-.36-.72-.84-1L101,57.1l-1.93-.84-1.8.36c-.61.12-.61.24-.61.72v.13l-.36.12-.6-3,.36-.12v.12c.12.6.24.6.72.6l1.57-.24,2-1.93a.93.93,0,0,0,.36-.84v-.12l.37-.12.6,2.89h-.36v-.24c-.12-.36-.24-.36-.24-.36s-.12.12-.24.12l-1.57,1.2,1.57.6a1.08,1.08,0,0,0,.6.12c.24,0,.24-.24.24-.6v-.12l.36-.12.36,2.17-.36.6Zm-2.95-2.11,2.17.84a1.36,1.36,0,0,1,1,.85h.12L102,55.84h-.12c0,.24,0,.6-.36.72a1.3,1.3,0,0,1-.6-.12l-1.81-.36L101,54.4c.12-.12.24-.12.36-.24s.36.12.6.6H102l-.6-2.53h-.12c0,.36-.12.6-.61.84l-2,1.93-1.56.24c-.73.12-.73-.12-1-.6H95.9l.6,2.64h.12c-.12-.6.12-.72.61-.84Zm-71.83,31c.36.61.6.61,1,.12l3-2.4c.36-.36.6-.6.12-1l.24-.12,3,3.73-1,1.32-.24-.12A2.72,2.72,0,0,0,32.85,86c-.6-.6-.6-.36-1.08,0l-1.08,1,.12.12a1.53,1.53,0,0,0,1.68.61l.24.24-1.8,1.56-.12-.6c.6-.6.36-1.08-.12-1.81l-.12-.12-1.33,1.21c-.36.24-.6.6-.24,1a3.57,3.57,0,0,0,2.65,1.08v.24l-1.56.6-3-3.73Z" transform="translate(-15.95 -18)"/><path class="cls-2" d="M30.09,90.91,27,87.06l.36-.24v.12c.36.36.6.61,1,.12l3-2.4a.63.63,0,0,0,.12-1v-.13l.36-.24,3.13,3.85-.84,1.57-.36-.36v-.12a3,3,0,0,0-.36-2.53c-.13-.24-.25-.36-.37-.36s-.24.12-.6.36l-1.08.84c.6.6.72.72,1.56.6l.24.37-1.8,1.56-.6-.24c.6-.6.36-1-.12-1.69v-.12l-1.33,1.09a.55.55,0,0,0-.36.6.44.44,0,0,0,.12.36,3.79,3.79,0,0,0,2.53,1.08h.12l.12.36-1.68.36ZM27.2,87.18l3,3.61,1.44-.36v-.12A4.84,4.84,0,0,1,29,89.23a.92.92,0,0,1-.24-.6c0-.24.24-.36.36-.6l1.45-1.09.12.24c.6.61.6,1,.12,1.81l.12.12,1.68-1.44-.12-.12c-.72.24-1.08.12-1.68-.61l-.12-.24h.12l1.2-1a1.76,1.76,0,0,1,.6-.36,1.76,1.76,0,0,1,.6.36,3.25,3.25,0,0,1,.61,2.65l.72-1.21-3-3.61h-.12c.36.61.24.73-.12,1.09L28.4,87.18A1,1,0,0,1,27.2,87.18Zm6.2,6.44c-.61-.6-.37-.6,0-1l2.52-2.77c.36-.36.6-.6,1-.12.73.72,1,1.69-.24,3-1.56,1.56-2.52,1.44-3.24.84l-.25.24a2.82,2.82,0,0,0,4.22-.12,3,3,0,0,0,.6-3.25c-.24-.36-.6-.72-.84-1.08l-1.93-1.8-.12.24c.36.36.6.6.12,1.08l-2.53,3c-.36.36-.6.36-1.08,0l-.12.24,2.05,1.92v-.48Z" transform="translate(-15.95 -18)"/><path class="cls-2" d="M35.32,94.82a2.64,2.64,0,0,1-1-.12c-.6-.12-.84-.6-1.09-.72l-.12-.12-2-1.92.24-.36h.12c.24.12.36.24.6.24s.24-.12.6-.24l2.53-2.89c.36-.36.36-.6-.12-1H35l.24-.37,1.93,1.81A3.31,3.31,0,0,1,38,90.25a2.8,2.8,0,0,1-.6,3.37A2.38,2.38,0,0,1,35.32,94.82Zm-2-1.08a2.54,2.54,0,0,0,1.09.72,2.9,2.9,0,0,0,3-.72,3,3,0,0,0,.6-3.13c-.12-.36-.6-.6-.84-1l-1.93-1.8-.24.24a.68.68,0,0,1,0,1.08l-2.53,2.89c-.24.24-.36.36-.6.36a2,2,0,0,1-.6-.24v.12l1.92,1.8.12-.36c-.6-.48-.36-.6,0-1l2.53-2.71c.24-.24.36-.36.6-.36s.24.12.6.24a1.65,1.65,0,0,1,.61,1.21,2.64,2.64,0,0,1-1,1.92C35.32,94.22,34.24,94.46,33.27,93.74Zm.13-.24c.6.6,1.56.84,3-.84a2.65,2.65,0,0,0,.85-1.93,1.68,1.68,0,0,0-.61-1.08c-.12-.12-.24-.24-.36-.24s-.24.12-.36.36L33.4,92.54c-.49.48-.49.48,0,1Zm9.86,2.17L43,95.55c0-.73-.24-1.93-1-2.17s-1-.24-1.2.24.12,1.08.6,1.57l.36.36c.6.72,1.2,1.68.6,2.64a2.08,2.08,0,0,1-2.65.61,1.79,1.79,0,0,1-.72-.61c-.12-.12-.12-.24-.24-.24a2.06,2.06,0,0,0-1-.12l.6-1.92.36.12a3.34,3.34,0,0,0,1,2.52,1.24,1.24,0,0,0,1.57-.24c.36-.6-.12-1.08-.61-1.56-.72-.84-1.68-1.93-1-3a1.94,1.94,0,0,1,2.41-.6c.24.12.6.36.6.6L43,94c.12.12.6.12.6.12Z" transform="translate(-15.95 -18)"/><path class="cls-2" d="M40.49,99a1.94,1.94,0,0,1-1.08-.36,1.46,1.46,0,0,1-.72-.73l-.24-.24c-.12-.12-.12-.12-.72-.12h-.12l.6-1.92.6.12v.12a3.08,3.08,0,0,0,1,2.52c.24.12.6.25.72.12s.61-.12.61-.36c.24-.6-.12-1-.37-1.44-.72-.84-1.68-1.93-.84-3.13A1.38,1.38,0,0,1,41,92.9a2,2,0,0,1,1.44.24c.24.12.6.36.6.6l.24.24a.54.54,0,0,0,.6,0H44l-.6,1.93-.6-.12v-.12c0-.72-.24-1.93-.84-2.17a.7.7,0,0,0-1.08.24c-.25.6.12.84.36,1.21l.36.6c.72.84,1.2,1.8.6,2.76A2.35,2.35,0,0,1,40.49,99Zm-2.64-1.57c.6,0,.6.12.6.12s.24.12.24.24c.24.24.6.6.72.6a1.71,1.71,0,0,0,2.53-.6c.6-.84.12-1.68-.6-2.64L41.1,95a1.72,1.72,0,0,1-.61-1.57c.24-.6.85-.6,1.45-.24a3.13,3.13,0,0,1,1,2.17H43l.36-1.57c-.24,0-.6,0-.6-.12s-.12-.12-.24-.24l-.6-.6a1.49,1.49,0,0,0-1.21-.24,1.87,1.87,0,0,0-1,.72c-.6,1.08.12,1.93.84,2.89a1.66,1.66,0,0,1,.61,1.68c-.12.24-.36.36-.73.6a1.14,1.14,0,0,1-.84-.24c-.84-.6-1-1.92-1.08-2.64h-.12l-.6,1.92Zm11-1-.24,1.68h-.24a3.08,3.08,0,0,0-1.09-1.92l-1.92,4.21c-.24.6-.12.72.36,1v.24l-2.65-1.08.12-.24c.6.24.72.12,1-.36l1.93-4.21a2.37,2.37,0,0,0-2.17.6l-.24-.24.84-1.45Z" transform="translate(-15.95 -18)"/><path class="cls-2" d="M45.73,101.68,43,100.48l.12-.36h.12c.6.24.72.12.84-.36l1.81-4.21a2.15,2.15,0,0,0-2.05.6l-.36-.24,1.08-1.45L49,96.39l-.24,1.8-.61.12a3.61,3.61,0,0,0-1-1.92l-1.8,4.21a1.08,1.08,0,0,0-.12.6c0,.12.24.24.6.36H46Zm-2.47-1.32,2.53,1.08v-.12c-.24-.12-.36-.24-.6-.36s0-.36.12-.6L47.23,96h.12A3,3,0,0,1,48.56,98h.12l.24-1.56-4.46-1.93-.84,1.21.12.12a3.51,3.51,0,0,1,2.17-.6H46v.12L44.1,99.52c0,.84-.36,1.08-.84.84Zm5.6-.24L50.54,98v2.65l-1.68-.48-.24.36,1.92.6v1.57c-.12.24-.24.24-.72.12l-.12.24,2.77.72.12-.24c-.61-.24-.61-.6-.61-1.21l-.12-5h-1.2L48,100.72a1.52,1.52,0,0,1-1.56.84l-.12.24,1.92.61.13-.25a.76.76,0,0,1-.61-.72c.12-.24.24-.36.36-.6l.25-.36Z" transform="translate(-15.95 -18)"/><path class="cls-2" d="M52.47,103.79,49.58,103l.12-.36h.12c.6.12.6,0,.6-.12V101l-1.92-.6-.25.36c-.12.24-.24.36-.36.6s.24.6.61.6h.12l-.12.36h-.12l-2.05-.6.12-.36h.12c.72,0,1-.36,1.44-.84l2.65-3.61h1.45l.12,5.29c0,.61,0,.85.6,1H53l-.48.6Zm-2.65-1,2.53.72v-.12c-.61-.24-.61-.6-.61-1.09v-.12l-.12-4.81h-1.2l-2.65,3.49a1.52,1.52,0,0,1-1.56.84v.12l1.92.61a1.07,1.07,0,0,1-.6-.85c.12-.24.24-.36.36-.6l.24-.36.37-.36,1.8-2.41v3l-1.8-.6-.12.12,1.92.6v1.57C50.42,102.71,50.18,102.71,49.82,102.83ZM49,100l1.56.36V98Zm9.44,4.15c.6,0,.72-.12.72-.72V99.58c0-.6-.24-.72-.72-.72v-.25h4.81l.61,1.57-.24.12a3.11,3.11,0,0,0-2.17-1.2c-.72,0-.72.24-.72.84v1.56h.12a1.28,1.28,0,0,0,1.44-1h.12v2.17H62c-.24-.73-.6-1-1.44-1h-.12v1.69c0,.6,0,.72.6.72A3.91,3.91,0,0,0,63.6,103l.24.12-.61,1.56H58.42Z" transform="translate(-15.95 -18)"/><path class="cls-2" d="M58.18,104.51v-.36h.12c.6,0,.72-.12.72-.6V99.7c0-.6-.12-.6-.72-.6h-.12v-.36h5l.61,1.68-.36.12a3.11,3.11,0,0,0-2.17-1.2c-.36,0-.6,0-.6.12s-.12.24-.12.6v1.44h.12a1.3,1.3,0,0,0,1.44-.84h.6v2.53h-.6c-.24-.72-.6-.85-1.44-.85h-.12V104c0,.6,0,.72.6.72a4.54,4.54,0,0,0,2.53-1.2l.36.12-.6,1.68Zm.36-.24,4.57.12.61-1.44H63.6a3.87,3.87,0,0,1-2.53,1.2c-.6,0-.72-.36-.72-.84V101.5h.36a1.4,1.4,0,0,1,1.56,1h.12v-2h-.12c-.24.72-.72.84-1.56.84h-.24V99.58c0-.36,0-.6.12-.6s.24-.24.72-.24a3.08,3.08,0,0,1,2.17,1.2h.12L63,98.49H58.42c.6,0,.72.25.72.85v3.85C59.26,103.91,59,104.27,58.54,104.27Zm9.81-4.75-.24.12c-.6-.6-1.45-1.21-2-1.09s-1,.37-.84,1,.72.72,1.44.84l.61.12a2.31,2.31,0,0,1,2.16,1.68,1.81,1.81,0,0,1-1.68,2H66.48c-.12,0-.24,0-.6.36l-1.2-1.92.12-.12c.6.6,1.56,1.56,2.41,1.44.6-.12,1.08-.6,1-1.08s-.72-.73-1.21-.85c-1.08-.24-2.52-.36-2.64-1.8a1.76,1.76,0,0,1,1.56-1.93h1.21c.24,0,.6-.24.6-.36l.66,1.57Z" transform="translate(-15.95 -18)"/><path class="cls-2" d="M65.16,104.51l-.72-1.92.36-.25a2.58,2.58,0,0,0,2,1.21h.25a.89.89,0,0,0,.72-.6c.12-.24.24-.36.12-.61-.12-.6-.6-.6-1.21-.72H66.6c-1.08-.24-2.52-.36-2.64-1.8a1.71,1.71,0,0,1,1.68-1.93h1.08c.12,0,.37-.24.61-.36l.12-.12.84,1.93-.36.24c-.6-.6-1.45-1.21-2.05-1.09a.74.74,0,0,0-.72.85c.12.48.6.6,1.08.72l.6.12c1.09.24,2,.6,2.17,1.8a2.51,2.51,0,0,1-.36,1.57,2.35,2.35,0,0,1-1.44.72H65.76C65.76,104.15,65.76,104.27,65.16,104.51Zm-.72-1.8.72,1.68a1.21,1.21,0,0,1,.6-.24h.48a1.34,1.34,0,0,0,1,0,1.92,1.92,0,0,0,1.2-.6,1.51,1.51,0,0,0,.36-1.45c-.12-1.08-1.08-1.44-2-1.68l-.6-.12c-.6-.12-1.2-.24-1.44-.84s.24-1,.84-1.09a2.75,2.75,0,0,1,2.17,1.09l.12-.12-.36-1.45a.92.92,0,0,1-.61.24h-.36c-.24,0-.6-.12-.84,0a1.69,1.69,0,0,0-1.56,1.93c.12,1.2,1.44,1.56,2.52,1.68h.12c.61.12,1.21.24,1.45.85,0,.24,0,.6-.24.72s-.6.6-.84.6a3.38,3.38,0,0,1-2.53-1.2Zm9.8-.24a3,3,0,0,0,1.81-3.86,2.76,2.76,0,0,0-3.73-1.92c-1.81.6-2.17,2.17-1.81,3.85a3,3,0,0,0,3.73,1.93l-.12-.25c-.84.25-1.68-.24-2.16-2s-.24-2.77.6-3.13,1.68.12,2.17,2c.36,1,.72,2.64-.61,3.12" transform="translate(-15.95 -18)"/><path class="cls-2" d="M73.28,102.59a3.06,3.06,0,0,1-2.77-2,3,3,0,1,1,5.66-2.05,2.94,2.94,0,0,1-1.81,4h-.12C74.12,102.59,73.76,102.59,73.28,102.59Zm.12-6.08a2.64,2.64,0,0,0-1,.12,2.86,2.86,0,0,0-1.69,3.73,2.68,2.68,0,0,0,3.49,1.92v-.12c-.84.25-1.68-.6-2.16-2.16-.72-2.17-.12-3,.6-3.25,1-.36,1.8.36,2.41,2.17.24.72.84,2.64-.61,3.24v.12a2.88,2.88,0,0,0,1.69-3.73A3.37,3.37,0,0,0,73.4,96.51ZM73,97a.44.44,0,0,0-.36.12c-.84.24-1.08,1.44-.6,3s1.2,2.41,2,2c1.21-.36.85-1.92.61-3C74.24,97.59,73.76,97,73,97Zm19-7.64c.36.36.6.36,1.08,0l.25.12L91.45,91.4l-.36-.12c.36-.37.36-.61,0-1.09l-3-3L90.49,92l-.24.24-4.7-2L88,92.36c.84.84,1.08,1,1.69.6l.24.12-1.45,1.56-.36-.12c.36-.6.36-.72-.6-1.68l-2.17-2a.68.68,0,0,0-1.08,0l-.12-.12L85.8,89l3.48,1.68-1.8-3.49,1.68-1.68.24.12c-.36.36-.6.6,0,1.08Z" transform="translate(-15.95 -18)"/><path class="cls-2" d="M88.26,94.7,88,94.46c.36-.6.36-.6-.6-1.56l-2.17-2.05a.92.92,0,0,0-.6-.24c-.12,0-.24.12-.6.24l-.24-.24,1.68-1.8,3.37,1.68-1.68-3.37,1.68-1.68.24.24c-.36.36-.36.6,0,1l2.77,2.77a.92.92,0,0,0,.6.24c.12,0,.24-.12.6-.24l.25.24-2,2-.12-.48a.69.69,0,0,0,.24-.61c0-.24-.12-.24-.24-.6L88.5,87.36l2.17,4.58-.24.24L86,90.25l1.92,1.93c.84.84,1,.84,1.56.6l.25.24L88.26,94.7Zm-.12-.24,1.45-1.2L89.46,93c-.6.6-.84.24-1.68-.6L85.37,90l.12-.12h.12l4.7,2.17.12-.12L87.9,87.12,88,87h.36l3,3c.24.24.36.36.36.6a2.17,2.17,0,0,1-.24.61l.12.12,1.93-1.93-.12-.12a.69.69,0,0,1-.61.24,2,2,0,0,1-.6-.24l-2.89-2.77c-.6-.6-.36-.72,0-1.08l-.12-.12-1.44,1.56,1.81,3.61L86,88.69l-1.69,1.8.12.12a.66.66,0,0,1,.6-.24,2,2,0,0,1,.6.24l2.17,2C88.5,93.62,88.5,93.74,88.14,94.46ZM94,88c.36-.6.24-.73-.12-1l-3.25-2c-.6-.24-.72-.24-1,.24L89.4,85l2.65-4,1.57.36v.24a3,3,0,0,0-2.41,1.08c-.36.6-.24.72.24,1l1.2.84.12-.12c.61-.6.61-1,0-1.81l.12-.24,1.93,1.2-.12.25c-.72-.25-1.08,0-1.69.6l-.12.12,1.45,1c.36.24.6.36,1-.12a3.28,3.28,0,0,0,.36-2.77l.24-.12.84,1.45L94.34,88Z" transform="translate(-15.95 -18)"/><path class="cls-2" d="M94.22,88.27,93.86,88v-.12c.24-.61.24-.61-.12-1l-3.25-2c-.24-.12-.36-.24-.6-.12s-.24.12-.37.36v.12l-.36-.12V84.9l2.77-4,1.69.6-.12.24h-.12a2.69,2.69,0,0,0-2.17,1.08c-.12.24-.24.36-.24.6s.24.25.6.37l1.2.84v-.12c.36-.6.61-1,0-1.69l.24-.36,1.93,1.45-.24.36c-.72-.24-1.08,0-1.57.6V85l1.45.84c.36.24.6.36.84,0a3.16,3.16,0,0,0,.36-2.77V83l.36-.12,1,1.45ZM94.1,88l2.64-3.85L95.9,83h-.12a3.7,3.7,0,0,1-.36,2.77c-.36.6-.72.36-1.08.12L93,84.9l.12-.24a1.3,1.3,0,0,1,1.69-.6l.12-.12-1.81-1.21L93,83c.61.73.37,1.09,0,1.81l-.12.24-1.44-1c-.24-.24-.6-.36-.6-.61a.78.78,0,0,1,.24-.6,4.17,4.17,0,0,1,2.41-1.2v-.12l-1.45-.36L89.52,85h.13a.66.66,0,0,1,.6-.36.78.78,0,0,1,.6.24l3.25,2c.24.36.24.49,0,1.09ZM96,79.91l1.69.72c.6.24.72.12,1-.36l.24.12L97.71,83l-.12-.36c.24-.6.12-.72-.36-1L93.74,80c-.61-.25-.73-.12-1,.36l-.24-.12,1.57-3.13c.6-1.09,1.44-1.57,2-1.09a1.53,1.53,0,0,1,.6,1.93,2.09,2.09,0,0,1,.85-.12h1a2,2,0,0,0,1.56-.6l.24.12-.84,1.8h-1.8c-1.21,0-1.33.24-1.69.73l-.36-.13.12-.12c.6-1.2.36-1.8-.6-2-.72-.36-1.2,0-1.56.72s0,.6.36.72l1.56.72.48.13Z" transform="translate(-15.95 -18)"/><path class="cls-2" d="M97.83,82.85l-.36-.12v-.12c.24-.6.12-.6-.24-.84l-3.49-1.68c-.61-.25-.61-.12-.85.36v.12l-.48-.12L94,77.2A2.76,2.76,0,0,1,95.06,76a1.66,1.66,0,0,1,1.08,0c.6.25.84,1,.72,1.93a1.68,1.68,0,0,1,.61-.12h1a2,2,0,0,0,1.56-.6v-.12l.36.12-.84,1.68h-1.8a2.32,2.32,0,0,0-1.45.36l1.57.73c.6.24.6.12.84-.37v-.12l.36.12-1.2,3.25Zm-.12-.24,1.2-2.4h-.12c-.24.6-.6.6-1.08.36l-1.93-1-1.56-.72c-.24-.12-.36-.12-.6-.24s-.12-.24,0-.6a1.73,1.73,0,0,1,.72-.84.74.74,0,0,1,.84.12,4,4,0,0,1,.72.72c.12.36,0,.72-.24,1.44l.24.12c.12-.36.6-.6,1.57-.6h1.8l.72-1.68h-.12c-.36.6-.84.6-1.56.6h-1c-.24,0-.61,0-.73.12l-.12.24V78c.12-.36.24-1.56-.6-1.92a1.23,1.23,0,0,0-1,0c-.36.12-.72.6-1.08,1.08l-1.45,3h.12c.24-.61.6-.61,1.09-.37l3.49,1.69A.82.82,0,0,1,97.71,82.61Zm-2.89-5.23h-.24c-.24.12-.6.36-.6.72s-.12.36,0,.36.24.12.36.24l1.56.72c.24-.6.36-1,.24-1.2s-.24-.6-.6-.6A1.19,1.19,0,0,0,94.82,77.38ZM96,74.61c-.6-.12-.72,0-.84.6L94.94,75l.84-2.77.24.12c-.12.49-.12.61.6.85l3.61,1.08c.61.12.73,0,.85-.6l.24.12-.85,2.77-.24-.12c.12-.61.12-.73-.6-1Z" transform="translate(-15.95 -18)"/><path class="cls-2" d="M100.47,76.78l-.36-.12v-.12c.12-.61.12-.73-.36-.85l-3.61-1.08c-.6-.12-.6,0-.84.6v.12L94.82,75l.84-2.77.36.12v.13c-.12.24-.12.6,0,.6s.24.24.6.24l3.61,1.08c.61.12.61,0,.85-.6v-.12l.36.24V74C101.38,74,100.47,76.78,100.47,76.78Zm-.12-.24L101.2,74h-.12a.85.85,0,0,1-1,.6L96.5,73.53c-.24-.12-.6-.24-.6-.36a.54.54,0,0,1,0-.6h-.12L94.94,75h.12c.12-.6.6-.6,1-.6l3.61,1.08C100.35,75.81,100.47,76.05,100.35,76.54Z" transform="translate(-15.95 -18)"/><path class="cls-2" d="M98.31,67.81v.36a2.07,2.07,0,0,0-1.93,1.57c-.24,1.2,1.21,1.8,2.05,1.92,1.92.36,2.89-.36,3-1.2a2.3,2.3,0,0,0-.73-1.93l.25-.12A3.08,3.08,0,0,1,102,71.18a2.76,2.76,0,0,1-3.37,2c-1.69-.36-3-1.81-2.65-3.37,0-.24.12-.6.24-.6a.92.92,0,0,0,.24-.6v-.73Z" transform="translate(-15.95 -18)"/><path class="cls-2" d="M99.39,73.29a1.08,1.08,0,0,1-.6-.12,3.71,3.71,0,0,1-2.41-1.57A2.19,2.19,0,0,1,96,69.68a1.29,1.29,0,0,1,.24-.72v-.12a.46.46,0,0,0,.12-.37v-.84l1.93-.12v.6h-.12c-.36.12-1.69.61-1.93,1.57-.12.6.12.84.6,1.2a3.26,3.26,0,0,0,1.57.6c1.8.36,2.77-.36,3-1.2a2.3,2.3,0,0,0-.73-1.93v-.12L101,68c1,.85,1.44,1.81,1.08,2.77a2.71,2.71,0,0,1-2.65,2.53Zm-2.65-5.12c0,.24.12.36,0,.61s-.12.24-.24.6v.12a.92.92,0,0,0-.24.6A2.9,2.9,0,0,0,96.62,72a4.83,4.83,0,0,0,2.17,1.57A2.63,2.63,0,0,0,102,71.66a2.68,2.68,0,0,0-1-2.64H101a2,2,0,0,1,.72,1.92c-.24,1-1.21,1.81-3.13,1.45A4.52,4.52,0,0,1,97,71.78a1.31,1.31,0,0,1-.6-1.56c.24-1.08,1.57-1.56,1.93-1.69v-.24Z" transform="translate(-15.95 -18)"/><path class="cls-2" d="M100.23,66.85l-2.52-1.08,2.64-.6-.12,1.68.36.12.12-1.92,1-.25a5.2,5.2,0,0,1,.6-.12c.24,0,.36.12.36.61h.24l.24-2.77h-.24c-.12.72-.6.72-1.08.84l-5.06,1.2L97,65.77l4,1.92A1.56,1.56,0,0,1,102,68.9h.24l.12-2.05h-.48c0,.36-.24.72-.6.6s-.61-.12-.61-.24l-.6-.24Z" transform="translate(-15.95 -18)"/><path class="cls-2" d="M102.46,69h-.36c-.12-.73-.6-.85-1.08-1.09L96.8,66l-.36-1.21h.12l5.06-1.08c.6-.12.84-.24.84-.72v-.12h.36l-.24,3h-.36v-.12c0-.6-.12-.6-.24-.6h-.6l-1,.12-.12,1.92.61.24a1.08,1.08,0,0,0,.6.12.64.64,0,0,0,.6-.6v-.3h.24V69h.12Zm-.24-.24.24-1.93h-.12c-.12.36-.24.6-.6.6s-.6-.12-.6-.24l-.37-.12-.48-.36-2.76-1.2,3-.73-.12,1.81.24.12.12-1.93,1-.24a5.2,5.2,0,0,1,.6-.12c.36,0,.36.24.36.61h.12l.12-2.65h-.12c-.12.6-.6.72-1,.84h-.12l-4.69,1.08.24,1.09,4,1.92A9.56,9.56,0,0,1,102.22,68.72Zm-4.27-3,2,1,.12-1.56Z" transform="translate(-15.95 -18)"/><path class="cls-1" d="M78.52,99.28V99" transform="translate(-15.95 -18)"/><path class="cls-2" d="M78.52,99.28,78.4,99h.12l.12.12Zm-1,.6.12.12m-.12,0-.24-.12h.36l.12.12Zm1.75.24.48-.24m-.48.24v-.12l.48-.12h.12Zm3.61-4.69Zm.12,0-.12-.12Zm-.36,3,1.8-1.2-.12-.12A16.13,16.13,0,0,0,82.61,98.55Z" transform="translate(-15.95 -18)"/><path class="cls-2" d="M82.61,98.8l-.12-.25h.12c.6-.36,1.08-.84,1.8-1.2h.12l.24.24h-.12ZM87.78,95a5.17,5.17,0,0,0-1.2.84Z" transform="translate(-15.95 -18)"/><path class="cls-2" d="M86.7,95.79a6.47,6.47,0,0,0,1-1.09h.12l.12.25Zm.6-3.37.12.24" transform="translate(-15.95 -18)"/><path class="cls-2" d="M87.18,92.54l.06-.06.18.18-.06.06Z" transform="translate(-15.95 -18)"/><path class="cls-1" d="M87.78,92.3l-.24-.12" transform="translate(-15.95 -18)"/><path class="cls-2" d="M87.66,92.42l-.12-.24h.12l.12.12Zm13.11-23.7-.12-.25.12-.12h.13A2.55,2.55,0,0,1,100.77,68.72ZM26.12,55.6Zm3.73-10.53-.12-.24ZM46,30.09h0Z" transform="translate(-15.95 -18)"/><path class="cls-1" d="M25.15,63.84V63.6" transform="translate(-15.95 -18)"/><path class="cls-2" d="M25,63.6h.12V64H25Z" transform="translate(-15.95 -18)"/><path class="cls-2" d="M31.41,91.7Zm0,.12v0Z" transform="translate(-15.95 -18)"/><path class="cls-2" d="M23.35,60.83a1.16,1.16,0,0,1-1.08,1.09,1.27,1.27,0,0,1-1.09-1.09,1.16,1.16,0,0,1,1.09-1.08A1.07,1.07,0,0,1,23.35,60.83Z" transform="translate(-15.95 -18)"/><path class="cls-2" d="M100.9,60.83a1.09,1.09,0,1,1-1.09-1.08A1,1,0,0,1,100.9,60.83Z" transform="translate(-15.95 -18)"/><path class="cls-1" d="M57.82,46" transform="translate(-15.95 -18)"/><path class="cls-2" d="M58.18,35.33a.66.66,0,0,0-.6-.36v.12a1.61,1.61,0,0,0,.12.6.66.66,0,0,0,.6.36l.12-.12A.78.78,0,0,0,58.18,35.33Zm-.12.48c-.12,0-.24,0-.24-.24v-.12c.12.12.12.12.24.12h.12C58.18,35.81,58.18,35.81,58.06,35.81Z" transform="translate(-15.95 -18)"/><path class="cls-2" d="M56.74,46.94a4.67,4.67,0,0,1,.36-.85C57.22,46.09,56.74,46.34,56.74,46.94Z" transform="translate(-15.95 -18)"/><path class="cls-2" d="M56.86,46.94c-.24-.6.48-1,.48-1l.12.12A1.61,1.61,0,0,0,56.86,46.94Z" transform="translate(-15.95 -18)"/><path class="cls-2" d="M60.71,47.42a5.53,5.53,0,0,1,.72-1.57Z" transform="translate(-15.95 -18)"/><path class="cls-2" d="M60.71,47.54a3.53,3.53,0,0,1,.6-1.69l.12.12C61.43,46,60.71,47.54,60.71,47.54Z" transform="translate(-15.95 -18)"/><path class="cls-2" d="M61.31,35c-.24-.13-.36-.25-.6-.37H59.63a1.68,1.68,0,0,1-.61.12H58.9a.18.18,0,0,0,0,.25l.12.12h.12l.12.12c0,.12.12.12.24.24s.25.12.37.24c.36.12.6,0,1.08-.36a1,1,0,0,1,.72-.24h.6c.12.12-.6,0-1-.12Zm-1.08.72a.59.59,0,0,1-.6-.6s.12-.12.6-.12.6.12.6.12S60.59,35.69,60.23,35.69Zm8.48,10.89c-.24-.61-.6-.73-.84-1.09a6.55,6.55,0,0,1-1.69-3.61,20.7,20.7,0,0,0-.36-3.73c-.12-1-.24-1.92-.24-2.16a6.69,6.69,0,0,0-4.33-2.17,2.68,2.68,0,0,0-1.56-.36c-1.09.12-1.45.6-1.57,1a2.37,2.37,0,0,0-1.08.12h-.36a2.6,2.6,0,0,0-2.17,1.57,1.76,1.76,0,0,0,.6,1.92l.12.24v-.54a1.45,1.45,0,0,1,.61-.24,7.61,7.61,0,0,1,2.76.36,3.81,3.81,0,0,1,.6.72,4.49,4.49,0,0,1-.6,4.7l-.36.36A7,7,0,0,0,56.32,46v.37c-.61.72-.61,1-1.09,1.08-.12,0-.24.12-.36.12s-.24.12-.36.12v.12h-.24c.24,0,.6-.12.72-.12h.36a2.72,2.72,0,0,0,1.21-.36c.12.36.24.6.36.6h.6a.26.26,0,0,1,.24-.24c-.12.36,0,.6.12.6a1.49,1.49,0,0,1,.36-.24,4.14,4.14,0,0,0,1.08-1,1.22,1.22,0,0,0,.73,1.08h.12a5.33,5.33,0,0,0,2.52-1.56,3.28,3.28,0,0,0,1.93.84h.12a.55.55,0,0,0,0-.6,4.12,4.12,0,0,0,2.65.6h1.2v-.12c.24.06.24-.42.12-.78ZM58.9,36.41a3.38,3.38,0,0,1-1.2-.72c-.12-.12-.36-.85-.6-.85,0,0,.12-.12,1.44-.12l.36,1.45C59.14,36.41,59.38,36.65,58.9,36.41Zm5.54,9.26a9.23,9.23,0,0,0,.6,1.69c-.36-.12-1.93.24-2.05-2.41a4,4,0,0,1-2.64,3.13c-1.09-.84-.12-1.92-.6-1.56-.61.6-1.57,1.2-1.81,1.44-.12-.12,0-.36.36-.84,0-.6-.72-.36-1,.36,0,0-.12.36-.24.36s-.36,0-.6-.6a5.4,5.4,0,0,1-2.17.6,3.64,3.64,0,0,0,2.17-2.05,7.5,7.5,0,0,1,2.16-2.52,5,5,0,0,0,.84-4.45c-.12-.25-.36-1-.6-1.09a6.23,6.23,0,0,1,1.21-.12h.12c0-.24-.85-.6-1.09-.84a4.73,4.73,0,0,1-.72-1.8c.12-.37.6-1.45,2.65-1a8.33,8.33,0,0,1,4,2.53c0,.84.36,4.57.36,5.41A5.75,5.75,0,0,0,66,44c.12.84,1.21,1.92,1.93,2.77a1.76,1.76,0,0,1,.36.6,6.31,6.31,0,0,1-3.85-1.69ZM59.75,35s0,.36.24.36.36-.24.24-.36C60.47,35,60,34.84,59.75,35Z" transform="translate(-15.95 -18)"/><path class="cls-2" d="M76.89,52.83H44.65V71s-.25,7.28,3.85,12.94C52.23,88.75,61,93.62,61,93.62s8.36-5.05,12-9.8A21.1,21.1,0,0,0,76.77,71ZM71.48,82.37a41.28,41.28,0,0,1-10.65,9.09,44.94,44.94,0,0,1-9-7.16c-3.61-4-4.45-7-4.81-10.29a23.81,23.81,0,0,1-.24-3V54.58H74.48L60.59,67.51l1.68.36L57,74.55l1.8.24-6,9L63.36,73.47l-2.17-.36,7-7.28L67,65.47l7.53-7.16V70.88C74.85,70.88,75.21,77.5,71.48,82.37Z" transform="translate(-15.95 -18)"/><path class="cls-2" d="M51.86,58.55a1,1,0,0,1-.24-.72c.12-.36.12-.61,0-.73.12,0,.36.61.36.73s.13.36.37.6L52.59,57l.24,1.45s0-.6.36-.6a1.39,1.39,0,0,0,.6-.61c.12.12,0,.61-.24.85a.63.63,0,0,0-.12.6l1.2-.84L53.91,59s.36-.36.72-.24.6.12.72,0c0,.12-.24.36-.72.6-.6,0-.6.36-.6.36l1.44.24L54,60.23c.12,0,.6.12.6.36a1.48,1.48,0,0,0,.6.61c-.12.12-.6,0-.84-.25a.63.63,0,0,0-.6-.12L54.51,62l-1.08-.6c.12,0,.24.6.24.72a.76.76,0,0,0,0,.72c-.12,0-.36-.36-.36-.72s-.24-.36-.24-.6l-.24,1.2-.24-1.44a1.76,1.76,0,0,1-.36.6c-.25.24-.37.24-.61.6-.12-.12,0-.6.24-.84a.61.61,0,0,0,.12-.61l-1.2.85.72-1.21s-.36.24-.6.12a.76.76,0,0,0-.72,0c0-.12.36-.36.72-.6.36,0,.36-.12.6-.24l-1.44-.24,1.44-.24c-.12,0-.6-.12-.6-.36a1.42,1.42,0,0,0-.6-.6c.12-.12.6,0,.84.24a.63.63,0,0,0,.6.12L51,57.71Z" transform="translate(-15.95 -18)"/><path class="cls-2" d="M52.83,62.76l-.36-1.2a1.1,1.1,0,0,1-.36.6c-.25.24-.37.24-.61.6-.12-.12,0-.6.24-.84a.63.63,0,0,0,.12-.6l-1.2.84.72-1.09a4.85,4.85,0,0,1-.6.13.7.7,0,0,0-.72,0,1,1,0,0,1,.84-.61c.24,0,.36,0,.36-.12l-1.44-.24L51,60a1.1,1.1,0,0,1-.6-.36c-.24-.24-.24-.36-.6-.6a.8.8,0,0,1,.84.24.9.9,0,0,0,.6.12L50.42,58l1.08.72a.9.9,0,0,1-.12-.6.78.78,0,0,0,0-.73c.12,0,.36.61.6.85,0,.24.13.36.25.36l.24-1.45.24,1.21a1.1,1.1,0,0,1,.36-.6,1.39,1.39,0,0,0,.6-.61.81.81,0,0,1-.24.85.9.9,0,0,0-.12.6l1.08-.72-.6,1.08a.53.53,0,0,1,.6-.12.76.76,0,0,0,.72,0,.78.78,0,0,1-.72.6.92.92,0,0,0-.6.24l1.44.24-1.2.24c.24,0,.6.24.6.36a1.42,1.42,0,0,0,.6.6c-.12.13-.6,0-.84-.24a.9.9,0,0,0-.6-.12l.72,1.09-1.08-.73c.12.13.12.61.12.61a.76.76,0,0,0,0,.72c-.12,0-.36-.36-.6-.84,0-.24-.12-.36-.24-.36Zm-.36-1.56.24,1.2L53,61.2c.12,0,.24.12.24.6a.81.81,0,0,0,.36.72.76.76,0,0,1,0-.72c0-.12,0-.6-.12-.6v-.13l1.08.73-.72-1.09a.63.63,0,0,1,.6.12,1.71,1.71,0,0,0,.72.24,1.42,1.42,0,0,1-.6-.6c0-.12-.24-.24-.6-.36h-.12l1.2-.24-1.2-.24a.6.6,0,0,1,.6-.36c.36,0,.6-.24.6-.36a.76.76,0,0,1-.72,0h-.12a1.48,1.48,0,0,0-.6.24l.72-1.08-1.08.72a.63.63,0,0,1,.12-.6c.24-.12.24-.6.24-.72a1.42,1.42,0,0,1-.6.6,5.2,5.2,0,0,1-.12.6l-.24-1.2-.24,1.2a1.36,1.36,0,0,1-.37-.6,1.44,1.44,0,0,0-.36-.73,1.48,1.48,0,0,1,0,.73c-.12.24.12.6.24.72l-1.08-.6.72,1.08a.63.63,0,0,1-.6-.12c-.12-.24-.6-.24-.72-.24a1.42,1.42,0,0,1,.6.6,1,1,0,0,0,.6.36L50.06,60l1.44.24-.12.12c-.12.12-.12.12-.6.12a.69.69,0,0,0-.72.48.76.76,0,0,1,.72,0c.24.12.6-.12.6-.12l-.72,1,1.08-.73a.64.64,0,0,1-.12.61,1,1,0,0,0-.24.72,1.42,1.42,0,0,1,.6-.6c.37,0,.49-.6.49-.6Z" transform="translate(-15.95 -18)"/><path class="cls-2" d="M70.51,76.54H65.7a.12.12,0,0,1-.12-.12c0-.12,0-.12.12-.12h4.81c0,.12.12.12,0,.24Z" transform="translate(-15.95 -18)"/><path class="cls-2" d="M69.55,76.54h0l-.36-4.46h-.12l.24,3.73.24.73h-.24a.12.12,0,0,1-.12-.12v-.61h-.84v.61a.12.12,0,0,1-.12.12c-.12,0-.12,0-.12-.12v-.61h-.84v.61a.12.12,0,0,1-.12.12s-.13,0-.13-.12v-.61l.25-3v-.73h-.12v4.34a.12.12,0,0,1-.13.12.12.12,0,0,1-.12-.12L67.15,72a.12.12,0,0,1,.12-.12h2a.12.12,0,0,1,.12.12Zm-1.2-.73h.84v-.12Zm-1.08,0h.84v-.12Zm1.08-.24h.84l-.12-2.64h-.72Zm-1.08,0h.84V72.93h-.6Zm1.08-2.64H69v-.12Zm-.84,0h.6v-.12Zm.84-.24H69v-.61h-.6Zm-.72,0h.6v-.61h-.6Zm1.8-.73H67a.12.12,0,0,1-.12-.12c0-.12,0-.12.12-.12h2.41c0,.12.12.12,0,.24Z" transform="translate(-15.95 -18)"/><path class="cls-2" d="M68.11,68.05h.36l-.12,1.21Z" transform="translate(-15.95 -18)"/><path class="cls-2" d="M68.35,69.2,68.23,68h.36C68.59,68.05,68.35,69.2,68.35,69.2Zm-.24-1.15.12.85.12-.85Zm0,3.79h.36l-.12-1.08Z" transform="translate(-15.95 -18)"/><path class="cls-2" d="M68.59,71.84h-.36l.12-1.08Zm-.48,0h.24l-.12-1Zm2.16-2.16V70l-1.2-.12Z" transform="translate(-15.95 -18)"/><path class="cls-2" d="M70.39,70l-1.2-.12,1.2-.12Zm-1.08-.12.84.12V69.8Zm-3,0V70l1.33-.12Z" transform="translate(-15.95 -18)"/><path class="cls-2" d="M66.36,70v-.36l1.21.12C67.51,69.8,66.36,70,66.36,70Zm.24-.12v.24l1-.12Zm3-1.39.12.13-.84.84Z" transform="translate(-15.95 -18)"/><path class="cls-2" d="M68.83,69.44l.72-1.09.24.24A10.46,10.46,0,0,1,68.83,69.44Zm.72-.91-.6.73Zm-2.77,2.59.24.24.85-1Z" transform="translate(-15.95 -18)"/><path class="cls-2" d="M67,71.36l-.24-.24,1-.72Zm-.12-.24.73-.6Zm2.89,0-.12.12-.84-.84Z" transform="translate(-15.95 -18)"/><path class="cls-2" d="M69.67,71.36l-.72-1,1,.72Zm-.6-.84.6.72.12-.12Zm-2-2-.24.13,1.09.84Z" transform="translate(-15.95 -18)"/><path class="cls-2" d="M67.87,69.44l-1-.85.25-.24C67.15,68.41,67.87,69.44,67.87,69.44Zm-1.09-.78.73.6Zm.73-.37.24-.12L68,69.26Z" transform="translate(-15.95 -18)"/><path class="cls-2" d="M68,69.2l-.6-1.09.24-.12Zm-.48-.91.6.85-.24-.85ZM69,71.72h.24l-.48-1.2Z" transform="translate(-15.95 -18)"/><path class="cls-2" d="M69,71.84l-.36-1.32.6,1.08Zm-.24-1,.24.84.24-.12Zm1.44-1.8.12.24L69,69.56Z" transform="translate(-15.95 -18)"/><path class="cls-2" d="M69,69.68l1.08-.6.12.24Zm1.2-.6-.84.48.84-.24Zm-3.43,1.44v.36l1.09-.72Z" transform="translate(-15.95 -18)"/><path class="cls-2" d="M66.72,70.88l-.12-.24,1.21-.24C67.75,70.4,66.72,70.88,66.72,70.88Zm0-.36.12.24.85-.6C67.63,70.16,66.72,70.52,66.72,70.52Zm2.11-2.35.24.12-.48,1.09Z" transform="translate(-15.95 -18)"/><path class="cls-2" d="M68.59,69.32l.24-1.21.24.12C69.07,68.29,68.59,69.32,68.59,69.32ZM69,68.17l-.24,1Zm-1.44,3.55.24.12L68,70.52Z" transform="translate(-15.95 -18)"/><path class="cls-2" d="M67.87,71.84l-.36-.12.6-1Zm-.24-.12.24.12.24-.84Zm2.64-1.32-.12.36-1.08-.6Z" transform="translate(-15.95 -18)"/><path class="cls-2" d="M70.15,70.88l-1.08-.72,1.2.36Zm-1-.72.84.6.12-.24Zm-2.47-1.08-.12.24,1.21.36Z" transform="translate(-15.95 -18)"/><path class="cls-2" d="M67.63,69.68l-1.21-.36.12-.24Zm-1-.36.85.36-.85-.6Zm1-.6.36.6Zm.36.6-.36-.6.12-.13C67.75,68.66,68,69.32,68,69.32Zm1.08-.6H69l-.24.6Z" transform="translate(-15.95 -18)"/><path class="cls-2" d="M68.71,69.32l.24-.6.12.12Zm-1.56,0V69.2l.6.36Z" transform="translate(-15.95 -18)"/><path class="cls-2" d="M67.75,69.56l-.6-.24V69.2Zm-.6-.24.24.12Zm1.44-.66h-.12v.6Z" transform="translate(-15.95 -18)"/><path class="cls-2" d="M68.47,69.2v-.61h.12Zm.12-.54v0Zm-1.57,1v-.12l.61.36Z" transform="translate(-15.95 -18)"/><path class="cls-2" d="M67.63,69.92,67,69.8v-.24ZM67,69.68h0Zm1-1,.12.6Zm.12.54L68,68.59h.12Z" transform="translate(-15.95 -18)"/><path class="cls-2" d="M67,70v.12l.61-.12Zm0,.12.61-.12Z" transform="translate(-15.95 -18)"/><path class="cls-2" d="M68.71,71.12h-.12l-.12-.36Zm-.12,0-.12-.6Zm0-.12v0Z" transform="translate(-15.95 -18)"/><path class="cls-2" d="M67.15,70.52l.12.24.48-.48Zm.12.24.48-.36Z" transform="translate(-15.95 -18)"/><path class="cls-2" d="M67.63,71l.12.12.24-.6Zm.12.12.24-.48Z" transform="translate(-15.95 -18)"/><path class="cls-2" d="M68,71.12h.12v-.36Zm.12,0v0Zm-.12,0,.12-.24Z" transform="translate(-15.95 -18)"/><path class="cls-2" d="M69.55,70.16V70h-.48Zm0,0L69,70ZM69.31,70h0Z" transform="translate(-15.95 -18)"/><path class="cls-2" d="M69.43,69.2h-.12l-.36.24Z" transform="translate(-15.95 -18)"/><path class="cls-2" d="M69,69.44l.6-.36v.12Z" transform="translate(-15.95 -18)"/><path class="cls-2" d="M69.55,69.56v.12h-.48Zm-.48.36.6-.24v.12Zm.48-.36-.24.12Z" transform="translate(-15.95 -18)"/><path class="cls-2" d="M69.43,70.52,69,70.28Zm0,.24-.6-.36Zm-.24-.36.24.12Z" transform="translate(-15.95 -18)"/><path class="cls-2" d="M69.07,71l-.24-.48Zm0,.12-.24-.6Z" transform="translate(-15.95 -18)"/><path class="cls-2" d="M68.35,70a.26.26,0,0,0,.24-.24c0-.12-.12-.36-.24-.36a.26.26,0,0,0-.24.24C68.11,70,68.11,70,68.35,70Z" transform="translate(-15.95 -18)"/><path class="cls-2" d="M68.35,70a.24.24,0,1,1,.24-.24C68.59,70,68.47,70,68.35,70Zm0-.36c-.12,0-.12.12,0,0-.12.24,0,.24,0,.24s.12-.12,0-.24C68.59,69.92,68.47,69.68,68.35,69.68Z" transform="translate(-15.95 -18)"/><path class="cls-2" d="M68.11,69.56a.17.17,0,0,1,.24,0v-.24c-.12-.12-.24,0-.36,0Z" transform="translate(-15.95 -18)"/><path class="cls-2" d="M68.11,69.68,68,69.32a.22.22,0,0,1,.36,0v.36C68.47,69.56,68.35,69.56,68.11,69.68Zm0-.36v.24h.24v-.24Z" transform="translate(-15.95 -18)"/><path class="cls-2" d="M68.11,70.16a.17.17,0,0,0,.24,0v.24c-.12.12-.24,0-.36,0Z" transform="translate(-15.95 -18)"/><path class="cls-2" d="M68.35,70.52h-.24l.12-.36a.17.17,0,0,0,.24,0l-.12.36Zm-.24-.12h.24v-.24h-.24Z" transform="translate(-15.95 -18)"/><path class="cls-2" d="M68,69.92a.17.17,0,0,1,0-.24l-.24-.24c-.12.12,0,.24,0,.36Z" transform="translate(-15.95 -18)"/><path class="cls-2" d="M67.75,70a.22.22,0,0,1,0-.36l.24.12v.12Zm.12-.36v.24l.24-.12v-.12Z" transform="translate(-15.95 -18)"/><path class="cls-2" d="M68.59,69.92a.17.17,0,0,0,0-.24h.24c.12.12,0,.24,0,.36Z" transform="translate(-15.95 -18)"/><path class="cls-2" d="M69,70l-.36-.12a.17.17,0,0,0,0-.24H69Zm-.24-.12L69,70V69.8Z" transform="translate(-15.95 -18)"/><path class="cls-2" d="M68,69.68h-.24C67.87,69.56,68,69.56,68,69.68Z" transform="translate(-15.95 -18)"/><path class="cls-2" d="M68,69.68l-.24-.12c0-.12.12-.12.12-.24Zm-.12-.12.24.12-.24-.12C68,69.44,67.87,69.44,67.87,69.56Z" transform="translate(-15.95 -18)"/><path class="cls-2" d="M68.59,69.68h.24c0-.12-.12-.12-.12-.24Z" transform="translate(-15.95 -18)"/><path class="cls-2" d="M68.59,69.68v-.36c.12,0,.12.12.24.24Zm0-.12h.24C68.83,69.44,68.71,69.44,68.59,69.56Z" transform="translate(-15.95 -18)"/><path class="cls-2" d="M68.59,70.16H69a.26.26,0,0,1-.24.24Z" transform="translate(-15.95 -18)"/><path class="cls-2" d="M68.71,70.4l-.24-.24.12-.12.24.12A.42.42,0,0,1,68.71,70.4Zm-.12-.24.12.24a.12.12,0,0,0,.12-.12Z" transform="translate(-15.95 -18)"/><path class="cls-2" d="M68.11,70.16h-.24c0,.12.12.12.12.24Z" transform="translate(-15.95 -18)"/><path class="cls-2" d="M68,70.4a.26.26,0,0,1-.24-.24L68,70l.12.12Zm-.12-.24c0,.12.12.12,0,0h0Z" transform="translate(-15.95 -18)"/><path class="cls-2" d="M70.39,69.92v.48l1.81.48v-1.2Z" transform="translate(-15.95 -18)"/><path class="cls-2" d="M72.2,70.88l-1.93-.36v-.6l1.81-.24Zm-1.81-.48,1.81.36V69.68l-1.81.24Z" transform="translate(-15.95 -18)"/><path class="cls-2" d="M70.39,70.52,72.2,71l-.12.12Z" transform="translate(-15.95 -18)"/><path class="cls-2" d="M72.2,71.12l-1.93-.6V70.4l1.81.36Zm-1.69-.6,1.81.36Z" transform="translate(-15.95 -18)"/><path class="cls-2" d="M70.39,69.92l1.69-.36v-.12Z" transform="translate(-15.95 -18)"/><path class="cls-2" d="M70.39,69.92l1.93-.6v.12Zm0,0,1.81-.24Z" transform="translate(-15.95 -18)"/><path class="cls-2" d="M54.15,75h0l-.72-1.2h-1.2L51.62,75H51.5v-.12l.36-4.69A.12.12,0,0,1,52,70h1.69a.12.12,0,0,1,.12.12v.6Zm-.6-1.2.36.72v-.72Zm-1.81,0v.72l.37-.72Zm1.69-.12h.36l-.12-1.81H51.74l-.12,1.81H52l.61-1.08Zm-1.08,0h1l-.48-1Zm-.61-1.81h1.93l-.12-1H51.86Zm.12-1.32h1.69v-.6h-.12l-.12.48h-.12v-.12l.12-.36h-.84l.12.24v.12h-.12l-.12-.36H52Zm1.69-.6-.36-.72h-.72l-.36.6H52v-.12l.25-3.13a.12.12,0,0,1,.12-.12h1.2a.12.12,0,0,1,.12.12v1l.12,1.08-.24,1.33Zm-1.44-.84v0Zm1.2,0,.12.36ZM53.19,69h.24v-.61Zm-.72,0h.6l-.24-.49Zm-.36,0v0Zm.12-.67.24.61.36-.61.24.61.24-.61-.24-.24h-.6Zm1-.48h.24v-.24Zm-.48,0h0Zm-.48,0v0Zm0-.36.24.36.24-.24h.12l.24.24.36-.36-.12-.12h-.72Zm1-.24v0Zm-.6,0H53v-.12L52.83,67Zm-.36,0v-.36h-.12Z" transform="translate(-15.95 -18)"/><path class="cls-2" d="M53.31,67l-.12-.24h-1v.12l-.12-.24h1.44Zm-1.08-.36h0l1.08.12v-.12Z" transform="translate(-15.95 -18)"/><path class="cls-2" d="M53.07,66.61l-.24-.12-.12.12v-.36h.6Zm-.48-.36h0ZM51.5,75.69v-.84a.12.12,0,0,1,.12-.12h3.49v.72a.12.12,0,0,1-.12.12H53.43a.12.12,0,0,1-.12-.12v-.72H51.62l-.12,1Zm2-.12H55V75H53.55Zm-1.32-1.2h0a.53.53,0,0,0,.12-.6v-.12c-.12-.36-.12-.36-.49-.72l-.24-.61V72.2l.85-.84V69.8a.12.12,0,0,1,.12-.12c.12,0,.12,0,.12.12v1.44h.12V70a.12.12,0,0,1,.12-.12c.12,0,.12,0,.12.12V71.6l.84.85v.12l-.6,1.2h-.12v-.12l.36-1.2-.72-.73v1.09a.12.12,0,0,1-.12.12c-.12,0-.12,0-.12-.12V71.6h-.12l-.12.12v1.09a.12.12,0,0,1-.12.12c-.12,0-.12,0-.12-.12v-1l-.73.73.12.36c.24.6.24.6.36.72V74c.12,0,.12-.12.25-.12a.12.12,0,0,1,0,.24c-.13,0-.25.12-.37.12C52.35,74.37,52.35,74.37,52.23,74.37ZM53,69.92h0l-.12-3.13a.12.12,0,0,1,.12-.12c.12,0,.12,0,.12.12Zm-.24,0h0l-.12-3.13a.12.12,0,0,1,.12-.12c.12,0,.12,0,.12.12Z" transform="translate(-15.95 -18)"/><path class="cls-2" d="M54.27,75.69h0l-.12-.84v-.12h.12Zm-.84,0H51a.12.12,0,0,1-.12-.12c0-.12,0-.12.12-.12h2.41c.12.12.12.12,0,.24Z" transform="translate(-15.95 -18)"/><path class="cls-2" d="M52.83,72.57v1.2l.12.12v1.68h-.24V73.89l.12-.12Z" transform="translate(-15.95 -18)"/><path class="cls-2" d="M53,75.57h-.36V73.89l.24-.12v-1.2H53v1.2l.12.12A7.92,7.92,0,0,0,53,75.57Zm-.24,0,.12-1.68h-.24Zm-1.81-.12.12-.12h0Z" transform="translate(-15.95 -18)"/><path class="cls-2" d="M50.9,75.45l.12-.24.84.12Zm.12-.12h0Z" transform="translate(-15.95 -18)"/><path class="cls-2" d="M51.74,75.57c-.12,0,0-.24,0-.36A.26.26,0,0,0,52,75v-.24a.12.12,0,0,1,.13-.12,1.3,1.3,0,0,0,.12.6c.12.12.12.12.12.24v.24s-.12.12,0,.12C51.86,75.57,51.74,75.69,51.74,75.57Z" transform="translate(-15.95 -18)"/><path class="cls-2" d="M52.11,75.69a1.32,1.32,0,0,1-.61-.12v-.36a.26.26,0,0,0,.24-.24v-.12a.12.12,0,0,1,.12-.12,1.3,1.3,0,0,0,.12.6c.13,0,.13.12.13.24v.12Zm-.37-.6v.36h.37v-.36c0-.12-.13-.12-.13-.24s-.12-.24-.12-.6v.36A1.89,1.89,0,0,0,51.74,75.09Z" transform="translate(-15.95 -18)"/><path class="cls-2" d="M52.35,75.57c0-.12.12-.12.24-.12s.12-.12.24-.12.24,0,.24.12h.6v.12Z" transform="translate(-15.95 -18)"/><path class="cls-2" d="M53.31,75.69h-1v-.12h.48a.59.59,0,0,1,.36.12Zm-1-.12H53l-.12-.12h-.24C52.47,75.57,52.47,75.57,52.35,75.57Z" transform="translate(-15.95 -18)"/><path class="cls-2" d="M52.59,72.69h-.85a.12.12,0,0,1-.12-.12c0-.12,0-.12.12-.12h.73l-.73-1.69v-.12l.85-1,1,1v.12l-.72,1.69h.72a.12.12,0,0,1,.12.12c0,.12,0,.12-.12.12Zm.12-.12H53l.72-1.69-.84-.72L52,71Z" transform="translate(-15.95 -18)"/><path class="cls-2" d="M53.67,70.28h0L53.55,70H51.86v.12l-.12-.36h1.93v.48Zm-1.81-.36h1.81V69.8Z" transform="translate(-15.95 -18)"/><path class="cls-2" d="M64.56,79.06h-.48V78.7l.48.24Z" transform="translate(-15.95 -18)"/><path class="cls-2" d="M64.08,79.91v-.37h0L64,79.42h.6v.24Z" transform="translate(-15.95 -18)"/><path class="cls-2" d="M65.88,82.85l-6.44-.6V81.17l6.44.6v1.08Zm-6.38-.6,6.44.6v-1l-6.44-.6Z" transform="translate(-15.95 -18)"/><path class="cls-2" d="M61.67,82.37l-2.17-.12,2.17.12Zm0-.72-2.17-.12,2.17.12Zm-1.08-.6V79.36c0-.6,0-1.56.36-1.92a1.6,1.6,0,0,1,1-.36c.24-.6,1.08-.36,1.08-.36h.12c.12,0,.12,0,.25.24a.62.62,0,0,1,.6.6,1.6,1.6,0,0,1,.72,1.08,1.29,1.29,0,0,1,.12,1.45.42.42,0,0,0-.12.24v-.12L64.8,80c.24-.61.24-.85-.12-1.21,0-.36-.6-.84-.72-1.08a1.32,1.32,0,0,0-.6-.6l-.13-.24h-.12c-.12,0-.84,0-1,.36-.12,0-.72.12-.84.36A3.45,3.45,0,0,0,61,79.48C60.71,80.09,60.71,81.05,60.59,81.05Z" transform="translate(-15.95 -18)"/><path class="cls-2" d="M66,81.17l-1.2-.12v-.6l1.08.12.24-1v.73l-.12.84Zm-1.08-.24,1.08.12v-.36l-1.08-.12Zm1.2-.24v.24l.12-.6v-.61Zm.6-1.15h-1.8V79.3h1.8C66.72,79.18,66.78,79.3,66.72,79.54ZM65,79.42h1.68V79.3Z" transform="translate(-15.95 -18)"/><path class="cls-2" d="M66.72,79.66h-.24a.9.9,0,0,1-.12-.6c0-.12,0-.12.12-.12h.12C66.6,79.18,66.6,79.54,66.72,79.66Zm-.36-.12c.12-.12,0-.36.12-.6h-.12Z" transform="translate(-15.95 -18)"/><path class="cls-2" d="M64.92,80.45h0l.36-1.09h0Z" transform="translate(-15.95 -18)"/><path class="cls-2" d="M66,82.85h0l.36-2L66,82l.36-1.56v.36Z" transform="translate(-15.95 -18)"/><path class="cls-2" d="M63,81.17c-.84-3.25,0-4.45.12-4.57A6.19,6.19,0,0,0,63,81.17Zm-1.44-.72a10.87,10.87,0,0,1-.12-1.57c0-1.08.12-1.8.6-2a3.31,3.31,0,0,0-.36,1.92c-.12,1.15,0,1.69-.12,1.69Z" transform="translate(-15.95 -18)"/><path class="cls-2" d="M64.8,80a4.06,4.06,0,0,1,0-1.21v-.12A.85.85,0,0,1,64.8,80Zm0-1v1C65,79.54,65.16,79.18,64.8,78.94Z" transform="translate(-15.95 -18)"/><path class="cls-2" d="M59.38,81.17l.73-.72v-.73h-.73v-.6c0-.12,0-.12.12-.24h1l-.12.24h-.12v1h.36v.12H60Zm.12-1.51h.73v-.24l.12-.24H59.5v.12A.23.23,0,0,0,59.5,79.66Z" transform="translate(-15.95 -18)"/><path class="cls-2" d="M60,79.91h-.24c-.12,0-.12-.25-.12-.37s0-.6.24-.6h.24c.12.12-.12,1-.12,1Zm-.24,0H60v-.13a2,2,0,0,1,.12-.84h-.24c-.12,0-.12.12-.12.36Z" transform="translate(-15.95 -18)"/><path class="cls-2" d="M59.75,79.3h0Zm.84-.12Zm.12-1.08a1.48,1.48,0,0,1,.84-.24C61.67,78.1,61.19,78,60.71,78.1Z" transform="translate(-15.95 -18)"/><path class="cls-2" d="M64.8,81.53l-1.08-.12.72-.6.36-.24h.12v.36h.36Zm-1.08-.24h.84l.36-.36h-.24v-.24l-.36.24Z" transform="translate(-15.95 -18)"/><path id="SVGID" class="cls-2" d="M66.6,79.06v.24" transform="translate(-15.95 -18)"/><g class="cls-3"><path class="cls-2" d="M66.6,79.3v0Z" transform="translate(-15.95 -18)"/></g><path class="cls-2" d="M66.6,79.3v0Z" transform="translate(-15.95 -18)"/><path class="cls-2" d="M62.75,61.8a10.93,10.93,0,0,0-.24-3.13l-.24-.6a2.44,2.44,0,0,1,.12.6,8.19,8.19,0,0,1,0,3c-.12,0-.12.12-.12.24s0,.12.12.12a5.24,5.24,0,0,1-.6,1.8h-.12c.12,0,.36,0,.6-.6a5,5,0,0,0,.36-1.08A.93.93,0,0,0,62.75,61.8Z" transform="translate(-15.95 -18)"/><path class="cls-2" d="M61.67,63.72c-.24,0-.24-.12-.24-.12l.36-.12a2.85,2.85,0,0,0,.6-1.8.42.42,0,0,1-.12-.24c0-.12,0-.12.12-.24a11.54,11.54,0,0,0,0-2.89c0-.12,0-.24-.12-.24-.12-.36-.12-.36,0-.36s.24.6.24.6a10,10,0,0,1,.24,3v.12c0,.12,0,.12-.12.24a3.53,3.53,0,0,1-.36,1.08C62,63.6,61.79,63.72,61.67,63.72Zm-.24,0h.24a.77.77,0,0,0,.6-.6A5,5,0,0,0,62.63,62l.12-.12V61.8a6.92,6.92,0,0,0-.24-3s-.12-.6-.24-.6,0,.24.12.24,0,.24.12.24a12.44,12.44,0,0,1,0,3,.42.42,0,0,0-.12.24c0,.12,0,.12.12.12a5.24,5.24,0,0,1-.6,1.8A1.89,1.89,0,0,0,61.43,63.72Z" transform="translate(-15.95 -18)"/><path class="cls-2" d="M61.55,61.07a.57.57,0,0,0,.6-.6.56.56,0,0,0-.6-.6.64.64,0,0,0-.6.6C60.83,60.83,61.19,61.07,61.55,61.07Z" transform="translate(-15.95 -18)"/><path class="cls-2" d="M61.55,61.07a.57.57,0,0,1-.6-.6c0-.48.24-.6.6-.6a.57.57,0,0,1,.6.6A.64.64,0,0,1,61.55,61.07Zm0-1.32a.57.57,0,0,0-.6.6c0,.48.24.6.6.6a.57.57,0,0,0,.6-.6C62,60.11,61.67,59.75,61.55,59.75Zm.72-.24c-.72-.72-1.56-1.08-1.8-1.44a.12.12,0,0,0-.12-.12.42.42,0,0,0-.24-.12c-.12,0-.12,0-.24.12a5.45,5.45,0,0,1-.61-.12V58c.24,0,.37.12.61.12a.12.12,0,0,0,.12.12.42.42,0,0,0,.24.12h.12a15.88,15.88,0,0,1,1.8,1l.12.24Z" transform="translate(-15.95 -18)"/><path class="cls-2" d="M62.39,59.75a.42.42,0,0,1-.24-.12,4.45,4.45,0,0,0-1.8-1h-.12c-.12,0-.12,0-.24-.12a.12.12,0,0,0-.12-.12h-.12a2.57,2.57,0,0,0-.61-.12.12.12,0,1,1,0-.24,1.68,1.68,0,0,1,.61.12.42.42,0,0,1,.24-.12c.12,0,.12,0,.24.12a.12.12,0,0,0,.12.12,7.14,7.14,0,0,1,2,1.44Zm-2-1.2a6.86,6.86,0,0,1,1.8,1l.24.12a.12.12,0,0,0-.12-.12c-.72-.6-1.44-1.08-1.8-1.44V58l-.12-.12c-.12,0-.12,0-.12.12a2.44,2.44,0,0,1-.6-.12c.24,0,.36.12.6.12h.12v.12C60.23,58.55,60.23,58.55,60.35,58.55Z" transform="translate(-15.95 -18)"/><path class="cls-2" d="M61.67,58.67l-.24.12a18.71,18.71,0,0,0-1.8,1.92.26.26,0,0,0-.25.24v.12A9.28,9.28,0,0,0,59,62v.6c.12,0,0-.24,0-.6a2.09,2.09,0,0,1,.36-.84c.12,0,.12,0,.12-.13a.41.41,0,0,0,.13-.24,14.45,14.45,0,0,1,1.2-1.8A.9.9,0,0,0,61.67,58.67Z" transform="translate(-15.95 -18)"/><path class="cls-2" d="M59.14,62.64C59,62.64,59,62,59,62a1.86,1.86,0,0,1,.36-1V61a.26.26,0,0,1,.25-.24,7.25,7.25,0,0,1,1.8-1.92l.24-.12-.36.36a14.45,14.45,0,0,0-1.2,1.8c0,.12,0,.12-.12.24l-.12.13a1.31,1.31,0,0,0-.37.84v.36C59.26,62.64,59.26,62.64,59.14,62.64Zm2.53-4a.42.42,0,0,1-.24.12,17.32,17.32,0,0,0-1.8,1.92c-.13,0-.13.12-.13.24v.12a4.37,4.37,0,0,0-.36,1v.12c.12-.24.24-.6.36-.84h.13l.12-.12c.36-.73,1.2-1.81,1.2-1.93C61.43,58.79,61.55,58.67,61.67,58.67Z" transform="translate(-15.95 -18)"/><path class="cls-2" d="M64.44,59.87s-.36-.24-.6-.36a8.56,8.56,0,0,0-2.41-.36,4.45,4.45,0,0,0-2.77.6,2.45,2.45,0,0,0-.6.6,1.48,1.48,0,0,1,.6-.24,5.66,5.66,0,0,1,2.65-.36A17.13,17.13,0,0,1,64,60,.42.42,0,0,1,64.44,59.87Z" transform="translate(-15.95 -18)"/><path class="cls-2" d="M58.18,60.11a2.08,2.08,0,0,1,.6-.6,6.2,6.2,0,0,1,2.77-.6,5.4,5.4,0,0,1,2.41.36,3.94,3.94,0,0,0,.72.36,2.44,2.44,0,0,0-.6-.12,17.13,17.13,0,0,0-2.65-.24,7.82,7.82,0,0,0-2.65.36l-.6.48Zm3.37-1a6.2,6.2,0,0,0-2.77.6c-.24.12-.36.24-.6.36.12-.12.36-.12.6-.24a5.94,5.94,0,0,1,2.77-.36,17.13,17.13,0,0,1,2.65.24c.12,0,.24.12.36.12a2.62,2.62,0,0,0-.6-.36A9.72,9.72,0,0,0,61.55,59.15Z" transform="translate(-15.95 -18)"/><path class="cls-2" d="M62.63,78.22V78h-1v.24Z" transform="translate(-15.95 -18)"/><path class="cls-2" d="M62.63,78.22H61.55V78h1.08Zm-1,0h1V78.1Z" transform="translate(-15.95 -18)"/><path class="cls-2" d="M60.35,79.18v-.24s-.12,0-.12.6v.61c.12,0,.12-.24.12-.24h-.12v-.37C60.23,79.18,60.35,79.06,60.35,79.18Z" transform="translate(-15.95 -18)"/><path class="cls-2" d="M60.23,79.91a.86.86,0,0,1,0-.61c0-.6.12-.6.24-.6v.24a.37.37,0,0,1-.12.24v.36h.12C60.35,79.91,60.35,79.91,60.23,79.91Zm.12-1s-.12.12-.12.6v.37l.12-.13v-.36c0-.12,0-.24.12-.24C60.35,79.06,60.35,79.06,60.35,78.94Z" transform="translate(-15.95 -18)"/><path class="cls-2" d="M60.23,79.18h-.36l.12-.24h.36Zm-.36-.12h.24v-.12Z" transform="translate(-15.95 -18)"/><path class="cls-2" d="M60.47,80.09v.24h.12v-.24Z" transform="translate(-15.95 -18)"/><path class="cls-2" d="M61.67,78.46h0c.12-.12,0-.12,0,0Z" transform="translate(-15.95 -18)"/><path class="cls-2" d="M62.39,78.46h0c.12-.12,0-.12,0,0Z" transform="translate(-15.95 -18)"/><path class="cls-2" d="M62.51,77.74c.12-.12,0-.12,0,0,0-.12-.12-.12,0,0Z" transform="translate(-15.95 -18)"/><path class="cls-2" d="M61.79,77.74Z" transform="translate(-15.95 -18)"/><path class="cls-2" d="M60.59,81.17l1,.12.24-.24a1.52,1.52,0,0,1-.24-.72v.72l-1-.12Z" transform="translate(-15.95 -18)"/><path class="cls-2" d="M61.67,81.29l-1-.12v-.24l.84.12v-.6a1.48,1.48,0,0,0,.24.6Zm-1.08-.12.84.12.24-.24a1.73,1.73,0,0,0-.24-.36v.48Z" transform="translate(-15.95 -18)"/><path class="cls-2" d="M62.63,81.29l.36-.24a4.89,4.89,0,0,0-.24-.84v1Z" transform="translate(-15.95 -18)"/><path class="cls-2" d="M62.63,81.53v-1.2a2.37,2.37,0,0,0,.24.84Zm.12-1.08v.84l.24-.24A1.94,1.94,0,0,0,62.75,80.45Z" transform="translate(-15.95 -18)"/><path class="cls-2" d="M64.2,80.45c.12-.12,0-.12,0,0Z" transform="translate(-15.95 -18)"/><path class="cls-2" d="M64.2,80.21Z" transform="translate(-15.95 -18)"/><path class="cls-2" d="M64.2,79.91Z" transform="translate(-15.95 -18)"/><path class="cls-2" d="M64.2,78.7" transform="translate(-15.95 -18)"/><path class="cls-2" d="M64.2,78.46c.12-.12,0-.12,0,0Z" transform="translate(-15.95 -18)"/><path class="cls-2" d="M64.2,78.22h0c.12-.12,0-.12,0,0Z" transform="translate(-15.95 -18)"/><path class="cls-2" d="M65.16,81.53h.24s-.12-.24-.24,0c-.12-.12-.24-.12-.24,0Z" transform="translate(-15.95 -18)"/><path class="cls-2" d="M65.28,81.17Z" transform="translate(-15.95 -18)"/><path class="cls-2" d="M64.56,81.53h0c.24-.24,0-.24,0,0h0C64.44,81.29,64.44,81.53,64.56,81.53Z" transform="translate(-15.95 -18)"/><path class="cls-2" d="M64.08,81.29h0c.12,0,.12-.12,0,0Z" transform="translate(-15.95 -18)"/><path class="cls-2" d="M66.72,79.42h0c0,.12-.12,0-.12-.24v-.36a.37.37,0,0,0,.12.24C66.72,79.18,66.6,79.3,66.72,79.42Z" transform="translate(-15.95 -18)"/><path class="cls-2" d="M66.72,79.66c-.12,0-.12-.24-.12-.36v-.36s.12,0,.12.24H66.6v.24l.12.24Zm-.12-.24Zm0-.36v.24C66.72,79.06,66.72,79.06,66.6,79.06Z" transform="translate(-15.95 -18)"/><path class="cls-2" d="M61.55,63.72c-.6,0-1.08-1.56-1.08-3.37S61.07,57,61.55,57s1.08,1.57,1.08,3.37S62.15,63.72,61.55,63.72Zm0-6.44c-.6,0-1,1.57-1,3.25s.6,3.25,1,3.25c.6,0,1-1.56,1-3.25C62.51,58.55,62.15,57.28,61.55,57.28Z" transform="translate(-15.95 -18)"/><path class="cls-2" d="M59.63,63a.45.45,0,0,1-.37-.12c-.24-.24-.12-.84.24-1.68-.72-.25-1.2-.61-1.2-.85s.36-.6,1.08-.84c-.36-.6-.6-1.08-.24-1.44s1.45-.12,2.41.6a4.5,4.5,0,0,1,1.93-1.08.44.44,0,0,1,.36.12c.24.24.24.6,0,1.2,0,.12-.12.24-.12.36.72.24,1.44.6,1.44.84s-.36.6-1.08.84c.36.61.6,1.09.24,1.45s-1.45.12-2.53-.72C60.83,62.4,60.23,63,59.63,63Zm-.13-1.8c-.36.72-.6,1.2-.24,1.56a.45.45,0,0,0,.37.12c.6,0,1.08-.36,1.92-1.08l-.36-.36A6.4,6.4,0,0,1,59.5,61.2Zm2.17.72c1.08.72,1.93,1,2.41.72.24-.24,0-.72-.24-1.2a8.34,8.34,0,0,1-1.81.24C61.79,61.56,61.67,61.8,61.67,61.92Zm-.36-.48c.12.12.24.12.36.24l.24-.24Zm-.12-.12H62l.36-.37c.24-.24.6-.6.6-.72-.24-.24-.6-.6-.72-.6s-.24-.12-.24-.24h-.84c-.12.12-.24.24-.24.36-.24.24-.6.6-.6.72a2.9,2.9,0,0,0,.84.85C60.83,61.2,61,61.32,61.19,61.32Zm-1.56-.12c.36.12.84.12,1.44.24-.12,0-.12-.12-.24-.12l-.72-.73A7.46,7.46,0,0,0,59.63,61.2ZM63,60.35c-.24.24-.36.6-.6.72s-.12.25-.24.25a7.67,7.67,0,0,0,1.69-.25A2.48,2.48,0,0,1,63,60.35Zm-3.73-.72c-.6.24-1,.6-1,.72,0,.36.6.6,1.2.85.13-.25.25-.61.61-.73A5.58,5.58,0,0,1,59.26,59.63Zm3.73.6a4.56,4.56,0,0,1,.73.84c.6-.24,1-.6,1-.72,0-.36-.6-.6-1.2-.84C63.36,59.75,63.11,60,63,60.23Zm-3.61-.6a1.79,1.79,0,0,0,.61.72,1.76,1.76,0,0,1,.6-.72l.24-.24A5.3,5.3,0,0,0,59.38,59.63ZM62,59.39c.12,0,.12.12.24.12.24.24.6.6.72.6.12-.24.24-.6.37-.6A4.6,4.6,0,0,0,62,59.39Zm-2.65-1.2a.44.44,0,0,0-.36.12c-.24.24-.12.72.24,1.2A7.25,7.25,0,0,1,61,59.27l.36-.36A4.25,4.25,0,0,0,59.38,58.19Zm2.41,1.08a7.2,7.2,0,0,1,1.57.24c0-.12.12-.24.12-.36A1.48,1.48,0,0,0,63.6,58a.45.45,0,0,0-.37-.12c-.6,0-1.08.6-1.92,1.08A.82.82,0,0,1,61.79,59.27ZM61.43,59c-.12.12-.24.12-.24.24h.6C61.67,59.15,61.55,59,61.43,59Z" transform="translate(-15.95 -18)"/><path class="cls-2" d="M64.08,78.1s-.24-.72-.85-.72v.24c.61,0,.61.12.73.24S64.08,78.1,64.08,78.1Zm0,0h0a.94.94,0,0,0-.85-.36V77.5a.57.57,0,0,1,.61.6C64.08,78,64.08,78.1,64.08,78.1Z" transform="translate(-15.95 -18)"/><path class="cls-2" d="M64.08,78.94a1,1,0,0,0-1-.6v.36A5.61,5.61,0,0,0,64.08,78.94Zm-.12,0a2.22,2.22,0,0,0-.85-.24v-.12a1.1,1.1,0,0,1,.85.36Z" transform="translate(-15.95 -18)"/><path class="cls-2" d="M63.48,77.5Z" transform="translate(-15.95 -18)"/><path class="cls-2" d="M64,80.33" transform="translate(-15.95 -18)"/><path class="cls-2" d="M64,79.66a3.57,3.57,0,0,1-.85.25v.36A1.77,1.77,0,0,0,64,79.66Zm-.85.43v-.25c.25,0,.61-.12.73-.12L64,79.6h-.12A.86.86,0,0,1,63.11,80.09Z" transform="translate(-15.95 -18)"/><path class="cls-2" d="M51.26,52.23a2.56,2.56,0,0,1-1.44-.36,1.32,1.32,0,0,1-1.08.36,1.89,1.89,0,0,1-1.93-1.92,1.3,1.3,0,0,1,.36-1.09,1,1,0,0,1,.72-.24,2.31,2.31,0,0,1,1,.24,2.49,2.49,0,0,1,.72-.24,1.84,1.84,0,0,1,1.8,1.45v.12a.37.37,0,0,0,.12.24,4,4,0,0,0,.73,1.08V52h-.12v.12C52.35,52,52.11,52.23,51.26,52.23Zm-1.44-.72a5.53,5.53,0,0,0,1.2.6,1.62,1.62,0,0,0,1.09-.36,1.63,1.63,0,0,1-.61-1.08c0-.12-.12-.12-.12-.24v-.12A1.62,1.62,0,0,0,49.7,49.1c-.36,0-.6.24-.72.24a2.22,2.22,0,0,0-.85-.24c-.24,0-.6.12-.6.24a1.39,1.39,0,0,0-.36,1,1.78,1.78,0,0,0,1.69,1.92A1.39,1.39,0,0,0,49.82,51.51Z" transform="translate(-15.95 -18)"/><path class="cls-2" d="M55.9,52.23c-.61,0-1,0-1.21-.24a6,6,0,0,1-1.44.24,2.5,2.5,0,0,1-1.81-1.8,5970985942995.43,5970985942995.43,0,0,1-.24-.24,1.86,1.86,0,0,0-.6-.85l-.12-.12.12-.12a2,2,0,0,1,1.45-.6,1.59,1.59,0,0,1,1.2.36,1.79,1.79,0,0,1,.84-.36A2,2,0,0,1,55.9,50v.12a.37.37,0,0,0,.12.24,2.16,2.16,0,0,0,.72,1.08v.12l-.12.12C56.74,52.11,56.74,52.23,55.9,52.23Zm-1.27-.6a2,2,0,0,0,1.21.36c.72,0,.72-.12,1-.36a4.17,4.17,0,0,1-.72-1.08c0-.12-.12-.12-.12-.24v-.12A1.64,1.64,0,0,0,54.27,49a1.37,1.37,0,0,0-.72.36,1.79,1.79,0,0,0-1.2-.36,2.84,2.84,0,0,0-1.21.36c.24.24.36.61.6.85a5970985942995.75,5970985942995.75,0,0,0,.24.24c.25.6.73,1.56,1.69,1.68A1.43,1.43,0,0,0,54.63,51.63Z" transform="translate(-15.95 -18)"/><path class="cls-2" d="M60.47,52.23c-.6,0-1,0-1.21-.24a4.48,4.48,0,0,1-1.44.24,2.49,2.49,0,0,1-1.8-1.8c0-.12,0-.12-.12-.12a.12.12,0,0,0-.13-.12,1.86,1.86,0,0,0-.6-.85l-.12-.12V49.1a1.81,1.81,0,0,1,1.45-.6,1.59,1.59,0,0,1,1.2.36,1.79,1.79,0,0,1,.84-.36A2,2,0,0,1,60.35,50v.12a.37.37,0,0,0,.12.24,2.16,2.16,0,0,0,.72,1.08h.12v.12l-.12.12C61.43,52.11,61.19,52.23,60.47,52.23Zm-1.33-.6a2.06,2.06,0,0,0,1.21.36c.72,0,.72-.12,1-.36a4.17,4.17,0,0,1-.72-1.08v-.36A1.62,1.62,0,0,0,58.9,49c-.36,0-.72.24-.72.36A1.79,1.79,0,0,0,57,49a2.94,2.94,0,0,0-1.21.36c.25.24.37.61.61.85a5970985942996.19,5970985942996.19,0,0,0,.24.24c.24.6.72,1.56,1.68,1.68C58.18,52.11,59,52,59.14,51.63Z" transform="translate(-15.95 -18)"/><path class="cls-2" d="M65,52.23c-.6,0-1,0-1.2-.24a4.54,4.54,0,0,1-1.45.24,2.49,2.49,0,0,1-1.8-1.8c0-.12,0-.12-.12-.12v-.12a1.86,1.86,0,0,0-.6-.85l-.12-.12.12-.12a2,2,0,0,1,1.44-.6,1.59,1.59,0,0,1,1.2.36,1.79,1.79,0,0,1,.85-.36A2,2,0,0,1,65.16,50v.12a.37.37,0,0,0,.12.24A2.16,2.16,0,0,0,66,51.39v.12l-.12.12C65.88,52.11,65.76,52.23,65,52.23Zm-1.32-.6a2,2,0,0,0,1.2.36c.72,0,.84-.12,1-.36a4.17,4.17,0,0,1-.72-1.08c0-.12,0-.12-.12-.12v-.12a1.62,1.62,0,0,0-1.68-1.21,1.36,1.36,0,0,0-.73.36,1.79,1.79,0,0,0-1.2-.36,2.36,2.36,0,0,0-1.2.36c.24.24.6.61.6.85v.12a.12.12,0,0,0,.12.12c.24.6.72,1.56,1.68,1.68A2,2,0,0,0,63.72,51.63Z" transform="translate(-15.95 -18)"/><path class="cls-2" d="M69.43,52.23c-.6,0-1,0-1.2-.24a4.49,4.49,0,0,1-1.45.24,2.49,2.49,0,0,1-1.8-1.8c0-.12,0-.12-.12-.12v-.12a1.86,1.86,0,0,0-.6-.85v-.12l.12-.12a2,2,0,0,1,1.44-.6,1.59,1.59,0,0,1,1.2.36,1.88,1.88,0,0,1,.85-.36A2,2,0,0,1,69.67,50v.12a.12.12,0,0,0,.12.12,3.2,3.2,0,0,0,.72,1.2v.12l-.12.12C70.39,52.11,70.27,52.23,69.43,52.23Zm-1.32-.6a2,2,0,0,0,1.2.36c.72,0,.72-.12,1-.36a3.2,3.2,0,0,1-.72-1.2c0-.12,0-.12-.12-.12v-.12A1.62,1.62,0,0,0,67.75,49a.89.89,0,0,0-.73.36,1.79,1.79,0,0,0-1.2-.36,2.36,2.36,0,0,0-1.2.36c.24.24.36.61.6.85v.12a.12.12,0,0,0,.12.12c.24.6.72,1.56,1.68,1.68C67.27,52.11,68,52,68.11,51.63Z" transform="translate(-15.95 -18)"/><path class="cls-2" d="M74,52.23c-.6,0-1,0-1.2-.24a4.48,4.48,0,0,1-1.44.24,2.48,2.48,0,0,1-1.81-1.8c0-.12,0-.12-.12-.12a.12.12,0,0,0-.12-.12,1.86,1.86,0,0,0-.6-.85l-.12-.12.12-.12a1.8,1.8,0,0,1,1.44-.6,1.62,1.62,0,0,1,1.21.36,1.79,1.79,0,0,1,.84-.36,2.21,2.21,0,0,1,1.92,1.2c0,.12.12.12.12.25a1.42,1.42,0,0,1,.37,1.44C74.85,51.87,74.48,52.23,74,52.23Zm-1.32-.6a2.84,2.84,0,0,0,1.2.36c.6,0,.6-.24.73-.6a1.22,1.22,0,0,0-.37-1.08c0-.12-.12-.12-.12-.24A1.8,1.8,0,0,0,72.32,49a.86.86,0,0,0-.72.36A1.8,1.8,0,0,0,70.39,49a2.84,2.84,0,0,0-1.2.36c.24.24.36.61.6.85a1990328647668.49,1990328647668.49,0,0,0,.24.24c.24.6.72,1.56,1.69,1.68C71.72,52.11,72.56,52,72.68,51.63Z" transform="translate(-15.95 -18)"/><path class="cls-2" d="M67,49.22c.61.24.61.73,1.21,1.09-.36-.61-1-1.21-.6-1.45C67.63,48.62,67.15,49.1,67,49.22Z" transform="translate(-15.95 -18)"/><path class="cls-2" d="M68.35,50.31a1.21,1.21,0,0,1-.72-.61,2.59,2.59,0,0,0-.61-.6h.13c.12-.12.6-.36.72-.24a.42.42,0,0,0-.24.12,1,1,0,0,0,.6.84C68.11,50.07,68.35,50.07,68.35,50.31Zm-1.2-1.09a1.42,1.42,0,0,1,.6.6c.12.25.36.37.6.61,0-.12-.12-.12-.12-.24-.24-.37-.6-.61-.6-.85s.12-.12.12-.24c-.12-.36-.48,0-.6.12Zm1,2.65c-.36-.36-.6-1-1.21-1.08.61.6.85,1.08.37,1.44A1.85,1.85,0,0,0,68.11,51.87Z" transform="translate(-15.95 -18)"/><path class="cls-2" d="M67.15,52.23q.36-.18.36-.36a1.72,1.72,0,0,0-.61-1c.61.12.73.6,1,.72s.24.24.24.36S67.75,52.11,67.15,52.23ZM67,50.91a1.72,1.72,0,0,1,.61,1c0,.12-.12.24-.12.36.24,0,.6-.12.6-.24s-.12-.24-.24-.36C67.63,51.15,67.51,51,67,50.91Zm4.7-1.69c.6.24.6.73,1.2,1.09-.36-.61-1-1.21-.6-1.45C72.2,48.62,72,49.1,71.72,49.22Z" transform="translate(-15.95 -18)"/><path class="cls-2" d="M72.92,50.31a1.21,1.21,0,0,1-.72-.61,2.7,2.7,0,0,0-.6-.6c.12,0,.12-.12.24-.12a.53.53,0,0,1,.6-.12.42.42,0,0,0-.24.12,1,1,0,0,0,.6.84C72.68,50.07,72.92,50.07,72.92,50.31Zm-1.2-1.09a1.42,1.42,0,0,1,.6.6c.12.25.36.37.6.61,0-.12-.12-.12-.12-.24-.24-.37-.6-.61-.6-.85s.12-.12.12-.24a2.44,2.44,0,0,1-.6.12Zm1,2.65c-.36-.36-.6-1-1.2-1.08.6.6,1,1.08.36,1.44A5.85,5.85,0,0,0,72.68,51.87Z" transform="translate(-15.95 -18)"/><path class="cls-2" d="M71.72,52.23q.36-.18.36-.36c0-.36-.36-.72-.6-1,.6.12.72.6,1,.72s.24.24.24.36A1.86,1.86,0,0,1,71.72,52.23Zm-.12-1.32c.24.24.6.6.6,1,0,.12-.12.24-.12.36.24,0,.6-.12.6-.24s-.12-.24-.24-.36A1.22,1.22,0,0,0,71.6,50.91ZM49.1,49.1c.6.24.6.72,1.2,1.09-.36-.61-1-1.09-.36-1.45C49.58,48.74,49.22,49.1,49.1,49.1Z" transform="translate(-15.95 -18)"/><path class="cls-2" d="M50.42,50.19a1.24,1.24,0,0,1-.72-.61,2.7,2.7,0,0,0-.6-.6h.12a1.71,1.71,0,0,1,.72-.24h0a.26.26,0,0,0-.24.24,1.3,1.3,0,0,0,.36.84C50.18,50,50.18,50.07,50.42,50.19ZM49.1,49.1a1.42,1.42,0,0,1,.6.6c.12.25.36.37.6.61,0-.12-.12-.12-.12-.24-.24-.37-.6-.61-.36-.85a.12.12,0,0,1,.12-.12.5.5,0,0,0-.84,0Zm.72,2.53c-.36-.36-.6-1.08-1.2-1.2.6.6,1,1.2.6,1.68A.61.61,0,0,0,49.82,51.63Z" transform="translate(-15.95 -18)"/><path class="cls-2" d="M49,52.11c.24-.12.24-.24.36-.36a2.83,2.83,0,0,0-.6-1.2c.6.12.72.6,1,.84s.24.24.24.36A1.18,1.18,0,0,1,49,52.11Zm-.24-1.56a1.66,1.66,0,0,1,.6,1.08c0,.12-.12.24-.12.36.36,0,.6-.12.6-.36s-.24-.24-.24-.36C49.34,51,49.1,50.67,48.74,50.55Z" transform="translate(-15.95 -18)"/><path class="cls-2" d="M53.55,49.22c.6.24.6.73,1.2,1.09-.36-.61-1-1.21-.36-1.45C54.15,48.62,53.79,49.1,53.55,49.22Z" transform="translate(-15.95 -18)"/><path class="cls-2" d="M54.87,50.31a1.21,1.21,0,0,1-.72-.61,2.7,2.7,0,0,0-.6-.6c.12,0,.12-.12.24-.12s.36-.24.6-.12h-.12a.26.26,0,0,0-.24.24c-.12.24.12.6.6.85C54.63,50.07,54.87,50.19,54.87,50.31Zm-1.32-1.09a1.42,1.42,0,0,1,.6.6c.12.25.36.37.6.61a.12.12,0,0,0-.12-.12c-.24-.36-.6-.73-.6-1s.12-.12.24-.24a5.2,5.2,0,0,1-.6.12C53.67,49.1,53.67,49.1,53.55,49.22Z" transform="translate(-15.95 -18)"/><path class="cls-2" d="M54.51,51.87c-.36-.36-.6-1-1.2-1.08.6.6.84,1,.36,1.44A1.85,1.85,0,0,0,54.51,51.87Z" transform="translate(-15.95 -18)"/><path class="cls-2" d="M53.67,52.11q.36-.18.36-.36a1.75,1.75,0,0,0-.6-1c.6.12.72.6,1,.72s.24.24.24.36C54.39,52.11,54.27,52.11,53.67,52.11Zm-.24-1.2a1.75,1.75,0,0,1,.6,1c0,.12-.12.24-.12.36.24,0,.6-.12.6-.24s-.12-.24-.24-.36C54.15,51.15,53.79,51,53.43,50.91Z" transform="translate(-15.95 -18)"/><path class="cls-2" d="M57.94,49.22c.6.24.6.73,1.2,1.09-.36-.61-1-1.21-.6-1.45C58.54,48.74,58.18,49.1,57.94,49.22Z" transform="translate(-15.95 -18)"/><path class="cls-2" d="M59.26,50.31a1.21,1.21,0,0,1-.72-.61,2.7,2.7,0,0,0-.6-.6c.12,0,.12-.12.24-.12a.53.53,0,0,1,.6-.12h0a.42.42,0,0,0-.24.12,1,1,0,0,0,.6.84C59.14,50.07,59.26,50.07,59.26,50.31Zm-1.2-1.09a1.42,1.42,0,0,1,.6.6c.12.25.36.37.6.61,0-.12-.12-.12-.12-.24-.24-.37-.6-.61-.6-.85a.12.12,0,0,1,.12-.12c-.12,0-.24.12-.36.12C58.18,49.1,58.06,49.1,58.06,49.22Z" transform="translate(-15.95 -18)"/><path class="cls-2" d="M59.14,51.87c-.36-.36-.6-1-1.2-1.08.6.6,1,1,.36,1.44A5.85,5.85,0,0,0,59.14,51.87Z" transform="translate(-15.95 -18)"/><path class="cls-2" d="M58.06,52.11c.24-.12.24-.24.36-.36a1.75,1.75,0,0,0-.6-1c.6.12.72.6,1,.72s.24.24.24.36S58.66,52.11,58.06,52.11Zm-.12-1.2a1.75,1.75,0,0,1,.6,1c0,.12-.12.24-.12.36.24,0,.6-.12.6-.24s-.12-.24-.24-.36C58.66,51.15,58.42,51,57.94,50.91Z" transform="translate(-15.95 -18)"/><path class="cls-2" d="M62.63,49.22c.6.24.6.73,1.21,1.09-.36-.61-1-1.21-.61-1.45C63.11,48.62,63,49.1,62.63,49.22Z" transform="translate(-15.95 -18)"/><path class="cls-2" d="M64,50.31a1.26,1.26,0,0,1-.73-.61,2.7,2.7,0,0,0-.6-.6c.12,0,.12-.12.24-.12a.54.54,0,0,1,.61-.12.46.46,0,0,0-.25.12,1,1,0,0,0,.61.84C63.72,50.07,63.72,50.07,64,50.31Zm-1.33-1.09a1.42,1.42,0,0,1,.6.6c.13.25.37.37.61.61,0-.12-.12-.12-.12-.24-.24-.37-.61-.61-.61-.85s.12-.12.12-.24a2.44,2.44,0,0,1-.6.12Z" transform="translate(-15.95 -18)"/><path class="cls-2" d="M63.6,51.87c-.37-.36-.61-1-1.21-1.08.6.6.84,1,.36,1.44A6,6,0,0,0,63.6,51.87Z" transform="translate(-15.95 -18)"/><path class="cls-2" d="M62.75,52.11q.36-.18.36-.36a1.75,1.75,0,0,0-.6-1c.6.12.72.6.85.72s.24.24.24.36A1,1,0,0,1,62.75,52.11Zm-.24-1.2a1.75,1.75,0,0,1,.6,1c0,.12-.12.24-.12.36.24,0,.61-.12.61-.24s-.12-.24-.24-.36C63.11,51.15,63,51,62.51,50.91Z" transform="translate(-15.95 -18)"/><path class="cls-2" d="M50.9,51.63c.6,0,1,0,1-.12-.12.24-.6.36-1.08.36-.72,0-1.08-.72-1.2-.84S49.46,49.34,48,49C49.7,48.86,49.7,51.51,50.9,51.63Z" transform="translate(-15.95 -18)"/><path class="cls-2" d="M55.9,51.63c.24,0,.72-.12.72-.24a1,1,0,0,1-.85.6A3.54,3.54,0,0,1,54,51a1.17,1.17,0,0,0-1.2-.6c-.85,0-.85-1.09-1.09-1.09a1,1,0,0,1,.73-.24C54,48.86,54.63,51.63,55.9,51.63Z" transform="translate(-15.95 -18)"/><path class="cls-2" d="M60.47,51.63c.24,0,.72-.12.72-.24a.94.94,0,0,1-.84.6,3.58,3.58,0,0,1-1.81-1,1.17,1.17,0,0,0-1.2-.6c-.84,0-.84-1.09-1.08-1.09A1,1,0,0,1,57,49.1C58.42,48.86,59.14,51.63,60.47,51.63Z" transform="translate(-15.95 -18)"/><path class="cls-2" d="M65,51.63c.24,0,.72-.12.72-.24a.94.94,0,0,1-.84.6,3.58,3.58,0,0,1-1.81-1,1.34,1.34,0,0,0-1.2-.6c-.84,0-.84-1.09-1.08-1.09a1,1,0,0,1,.72-.24C63,48.86,63.6,51.63,65,51.63Z" transform="translate(-15.95 -18)"/><path class="cls-2" d="M69.43,51.63c.24,0,.72-.12.72-.24a.94.94,0,0,1-.84.6,3.54,3.54,0,0,1-1.8-1,1.35,1.35,0,0,0-1.21-.6c-.84,0-.84-1.09-1.08-1.09a1,1,0,0,1,.72-.24C67.51,48.86,68.11,51.63,69.43,51.63Z" transform="translate(-15.95 -18)"/><path class="cls-2" d="M74.12,51.63c.24,0,.36.24-.12.24a3.54,3.54,0,0,1-1.8-1,1.17,1.17,0,0,0-1.2-.6c-.85,0-.85-1.09-1.09-1.09a1,1,0,0,1,.72-.24C72,48.86,72.68,51.63,74.12,51.63Z" transform="translate(-15.95 -18)"/><path class="cls-2" d="M64.2,80.93a5.82,5.82,0,0,1,0-3.25.37.37,0,0,1,.24.12,2.62,2.62,0,0,1,.36.6,10.35,10.35,0,0,0,0,1.93Zm0-3.19a8.27,8.27,0,0,0,0,3l.6-.36a10.37,10.37,0,0,1,0-1.93c-.12-.24-.24-.6-.36-.6Z" transform="translate(-15.95 -18)"/><path class="cls-2" d="M64.08,80.93c-.12-.24-.12-.6-.24-1a5.46,5.46,0,0,1-.61.24V80a4.68,4.68,0,0,0,.61-.13V79c-.24,0-.61-.12-.73-.12v-.24a1.29,1.29,0,0,1,.73.24c0-.36,0-.6.12-.72-.12-.24-.24-.36-.73-.36v-.24c.25,0,.61.12.61.36,0-.12,0-.24.12-.24s-.36-.36-.6-.6h-.13A2.33,2.33,0,0,0,62.87,79a5.42,5.42,0,0,0,.36,1.93Zm-.72-3.67h0C63.48,77.38,63.36,77.38,63.36,77.26Zm-.13.48c.13.12,0,.12,0,0Zm-.12.48h0c.12.12,0,.12,0,0Zm0,.72c.12.12,0,.12,0,0-.12.12-.12,0,0,0Zm0,.36c.12.12,0,.12,0,0,0,.12-.12,0,0,0Zm0,.36h0c.12.12,0,.12,0,0,0,.12-.12.25,0,0Zm.12.67h0c.13-.12.13,0,0,0Zm0,.36h0c.13-.12.13,0,0,0Zm.13.36h0c-.13-.12,0-.12,0,0h0C63.48,80.93,63.48,81.05,63.36,81.05Z" transform="translate(-15.95 -18)"/></svg>